<svg xmlns="http://www.w3.org/2000/svg" xmlns:xlink="http://www.w3.org/1999/xlink" width="1512" zoomAndPan="magnify" viewBox="0 0 1134 1133.999944" height="1512" preserveAspectRatio="xMidYMid meet" version="1.0"><defs><filter x="0%" y="0%" width="100%" height="100%" id="74a18f3c57"><feColorMatrix values="0 0 0 0 1 0 0 0 0 1 0 0 0 0 1 0 0 0 1 0" color-interpolation-filters="sRGB"/></filter><g/><clipPath id="ea04482282"><path d="M 0 0.664062 L 1134 0.664062 L 1134 577.328125 L 0 577.328125 Z M 0 0.664062 " clip-rule="nonzero"/></clipPath><clipPath id="cc45a01232"><path d="M 0 0.664062 L 1134 0.664062 L 1134 577.328125 L 0 577.328125 Z M 0 0.664062 " clip-rule="nonzero"/></clipPath><clipPath id="e77227a6e5"><path d="M 30.808594 8.203125 L 1104.984375 8.203125 L 1104.984375 569.792969 L 30.808594 569.792969 Z M 30.808594 8.203125 " clip-rule="nonzero"/></clipPath><linearGradient x1="-1.031" gradientTransform="matrix(3.775044, 0, 0, 3.769042, 34.700683, 215.501063)" y1="19.5" x2="283.516" gradientUnits="userSpaceOnUse" y2="19.5" id="c7deb52912"><stop stop-opacity="1" stop-color="rgb(9.799194%, 48.629761%, 1.959229%)" offset="0"/><stop stop-opacity="1" stop-color="rgb(9.799194%, 48.629761%, 1.959229%)" offset="0.125"/><stop stop-opacity="1" stop-color="rgb(9.799194%, 48.629761%, 1.959229%)" offset="0.1875"/><stop stop-opacity="1" stop-color="rgb(9.779358%, 48.748779%, 1.980591%)" offset="0.203125"/><stop stop-opacity="1" stop-color="rgb(9.706116%, 49.203491%, 2.064514%)" offset="0.207031"/><stop stop-opacity="1" stop-color="rgb(9.65271%, 49.539185%, 2.125549%)" offset="0.210937"/><stop stop-opacity="1" stop-color="rgb(9.599304%, 49.873352%, 2.186584%)" offset="0.214844"/><stop stop-opacity="1" stop-color="rgb(9.545898%, 50.209045%, 2.249146%)" offset="0.21875"/><stop stop-opacity="1" stop-color="rgb(9.492493%, 50.543213%, 2.310181%)" offset="0.222656"/><stop stop-opacity="1" stop-color="rgb(9.439087%, 50.878906%, 2.371216%)" offset="0.226562"/><stop stop-opacity="1" stop-color="rgb(9.385681%, 51.213074%, 2.432251%)" offset="0.230469"/><stop stop-opacity="1" stop-color="rgb(9.332275%, 51.548767%, 2.493286%)" offset="0.234375"/><stop stop-opacity="1" stop-color="rgb(9.277344%, 51.882935%, 2.554321%)" offset="0.238281"/><stop stop-opacity="1" stop-color="rgb(9.223938%, 52.217102%, 2.616882%)" offset="0.242188"/><stop stop-opacity="1" stop-color="rgb(9.170532%, 52.55127%, 2.677917%)" offset="0.246094"/><stop stop-opacity="1" stop-color="rgb(9.117126%, 52.886963%, 2.738953%)" offset="0.25"/><stop stop-opacity="1" stop-color="rgb(9.063721%, 53.22113%, 2.799988%)" offset="0.253906"/><stop stop-opacity="1" stop-color="rgb(9.010315%, 53.556824%, 2.862549%)" offset="0.257812"/><stop stop-opacity="1" stop-color="rgb(8.955383%, 53.890991%, 2.923584%)" offset="0.261719"/><stop stop-opacity="1" stop-color="rgb(8.901978%, 54.226685%, 2.984619%)" offset="0.265625"/><stop stop-opacity="1" stop-color="rgb(8.848572%, 54.560852%, 3.045654%)" offset="0.269531"/><stop stop-opacity="1" stop-color="rgb(8.795166%, 54.896545%, 3.106689%)" offset="0.273438"/><stop stop-opacity="1" stop-color="rgb(8.74176%, 55.230713%, 3.167725%)" offset="0.277344"/><stop stop-opacity="1" stop-color="rgb(8.688354%, 55.566406%, 3.230286%)" offset="0.28125"/><stop stop-opacity="1" stop-color="rgb(8.633423%, 55.900574%, 3.291321%)" offset="0.285156"/><stop stop-opacity="1" stop-color="rgb(8.580017%, 56.234741%, 3.352356%)" offset="0.289062"/><stop stop-opacity="1" stop-color="rgb(8.526611%, 56.568909%, 3.413391%)" offset="0.292969"/><stop stop-opacity="1" stop-color="rgb(8.473206%, 56.904602%, 3.474426%)" offset="0.296875"/><stop stop-opacity="1" stop-color="rgb(8.4198%, 57.23877%, 3.535461%)" offset="0.300781"/><stop stop-opacity="1" stop-color="rgb(8.366394%, 57.574463%, 3.598022%)" offset="0.304688"/><stop stop-opacity="1" stop-color="rgb(8.312988%, 57.90863%, 3.659058%)" offset="0.308594"/><stop stop-opacity="1" stop-color="rgb(8.259583%, 58.244324%, 3.720093%)" offset="0.3125"/><stop stop-opacity="1" stop-color="rgb(8.204651%, 58.578491%, 3.781128%)" offset="0.316406"/><stop stop-opacity="1" stop-color="rgb(8.151245%, 58.914185%, 3.843689%)" offset="0.320312"/><stop stop-opacity="1" stop-color="rgb(8.097839%, 59.248352%, 3.904724%)" offset="0.324219"/><stop stop-opacity="1" stop-color="rgb(8.044434%, 59.58252%, 3.965759%)" offset="0.328125"/><stop stop-opacity="1" stop-color="rgb(7.991028%, 59.916687%, 4.026794%)" offset="0.332031"/><stop stop-opacity="1" stop-color="rgb(7.937622%, 60.25238%, 4.08783%)" offset="0.335937"/><stop stop-opacity="1" stop-color="rgb(7.88269%, 60.586548%, 4.148865%)" offset="0.339844"/><stop stop-opacity="1" stop-color="rgb(7.829285%, 60.922241%, 4.211426%)" offset="0.34375"/><stop stop-opacity="1" stop-color="rgb(7.775879%, 61.256409%, 4.272461%)" offset="0.347656"/><stop stop-opacity="1" stop-color="rgb(7.722473%, 61.592102%, 4.333496%)" offset="0.351562"/><stop stop-opacity="1" stop-color="rgb(7.669067%, 61.92627%, 4.394531%)" offset="0.355469"/><stop stop-opacity="1" stop-color="rgb(7.615662%, 62.261963%, 4.457092%)" offset="0.359375"/><stop stop-opacity="1" stop-color="rgb(7.56073%, 62.59613%, 4.518127%)" offset="0.363281"/><stop stop-opacity="1" stop-color="rgb(7.507324%, 62.931824%, 4.579163%)" offset="0.367188"/><stop stop-opacity="1" stop-color="rgb(7.453918%, 63.265991%, 4.640198%)" offset="0.371094"/><stop stop-opacity="1" stop-color="rgb(7.400513%, 63.600159%, 4.701233%)" offset="0.375"/><stop stop-opacity="1" stop-color="rgb(7.347107%, 63.934326%, 4.762268%)" offset="0.378906"/><stop stop-opacity="1" stop-color="rgb(7.293701%, 64.27002%, 4.824829%)" offset="0.382813"/><stop stop-opacity="1" stop-color="rgb(7.23877%, 64.604187%, 4.885864%)" offset="0.386719"/><stop stop-opacity="1" stop-color="rgb(7.185364%, 64.93988%, 4.946899%)" offset="0.390625"/><stop stop-opacity="1" stop-color="rgb(7.131958%, 65.274048%, 5.007935%)" offset="0.394531"/><stop stop-opacity="1" stop-color="rgb(7.078552%, 65.609741%, 5.06897%)" offset="0.398437"/><stop stop-opacity="1" stop-color="rgb(7.025146%, 65.943909%, 5.130005%)" offset="0.402344"/><stop stop-opacity="1" stop-color="rgb(6.971741%, 66.279602%, 5.192566%)" offset="0.40625"/><stop stop-opacity="1" stop-color="rgb(6.918335%, 66.61377%, 5.253601%)" offset="0.410156"/><stop stop-opacity="1" stop-color="rgb(6.864929%, 66.949463%, 5.314636%)" offset="0.414062"/><stop stop-opacity="1" stop-color="rgb(6.809998%, 67.28363%, 5.375671%)" offset="0.417969"/><stop stop-opacity="1" stop-color="rgb(6.756592%, 67.617798%, 5.438232%)" offset="0.421875"/><stop stop-opacity="1" stop-color="rgb(6.703186%, 67.951965%, 5.499268%)" offset="0.425781"/><stop stop-opacity="1" stop-color="rgb(6.64978%, 68.287659%, 5.560303%)" offset="0.429687"/><stop stop-opacity="1" stop-color="rgb(6.596375%, 68.621826%, 5.621338%)" offset="0.433594"/><stop stop-opacity="1" stop-color="rgb(6.542969%, 68.95752%, 5.682373%)" offset="0.4375"/><stop stop-opacity="1" stop-color="rgb(6.488037%, 69.291687%, 5.743408%)" offset="0.441406"/><stop stop-opacity="1" stop-color="rgb(6.434631%, 69.62738%, 5.805969%)" offset="0.445312"/><stop stop-opacity="1" stop-color="rgb(6.381226%, 69.961548%, 5.867004%)" offset="0.449219"/><stop stop-opacity="1" stop-color="rgb(6.32782%, 70.297241%, 5.92804%)" offset="0.453125"/><stop stop-opacity="1" stop-color="rgb(6.274414%, 70.631409%, 5.989075%)" offset="0.457031"/><stop stop-opacity="1" stop-color="rgb(6.221008%, 70.965576%, 6.051636%)" offset="0.460938"/><stop stop-opacity="1" stop-color="rgb(6.166077%, 71.299744%, 6.112671%)" offset="0.464844"/><stop stop-opacity="1" stop-color="rgb(6.112671%, 71.635437%, 6.173706%)" offset="0.46875"/><stop stop-opacity="1" stop-color="rgb(6.059265%, 71.969604%, 6.234741%)" offset="0.472656"/><stop stop-opacity="1" stop-color="rgb(6.005859%, 72.305298%, 6.295776%)" offset="0.476563"/><stop stop-opacity="1" stop-color="rgb(5.952454%, 72.639465%, 6.356812%)" offset="0.480469"/><stop stop-opacity="1" stop-color="rgb(5.899048%, 72.975159%, 6.419373%)" offset="0.484375"/><stop stop-opacity="1" stop-color="rgb(5.845642%, 73.309326%, 6.480408%)" offset="0.488281"/><stop stop-opacity="1" stop-color="rgb(5.792236%, 73.64502%, 6.541443%)" offset="0.492187"/><stop stop-opacity="1" stop-color="rgb(5.737305%, 73.979187%, 6.602478%)" offset="0.496094"/><stop stop-opacity="1" stop-color="rgb(5.683899%, 74.31488%, 6.663513%)" offset="0.5"/><stop stop-opacity="1" stop-color="rgb(5.630493%, 74.649048%, 6.724548%)" offset="0.503906"/><stop stop-opacity="1" stop-color="rgb(5.577087%, 74.983215%, 6.787109%)" offset="0.507812"/><stop stop-opacity="1" stop-color="rgb(5.523682%, 75.317383%, 6.848145%)" offset="0.511719"/><stop stop-opacity="1" stop-color="rgb(5.470276%, 75.653076%, 6.90918%)" offset="0.515625"/><stop stop-opacity="1" stop-color="rgb(5.415344%, 75.987244%, 6.970215%)" offset="0.519531"/><stop stop-opacity="1" stop-color="rgb(5.361938%, 76.322937%, 7.032776%)" offset="0.523438"/><stop stop-opacity="1" stop-color="rgb(5.308533%, 76.657104%, 7.093811%)" offset="0.527344"/><stop stop-opacity="1" stop-color="rgb(5.255127%, 76.992798%, 7.154846%)" offset="0.53125"/><stop stop-opacity="1" stop-color="rgb(5.201721%, 77.326965%, 7.215881%)" offset="0.535156"/><stop stop-opacity="1" stop-color="rgb(5.148315%, 77.662659%, 7.276917%)" offset="0.539062"/><stop stop-opacity="1" stop-color="rgb(5.093384%, 77.996826%, 7.337952%)" offset="0.542969"/><stop stop-opacity="1" stop-color="rgb(5.039978%, 78.33252%, 7.400513%)" offset="0.546875"/><stop stop-opacity="1" stop-color="rgb(4.986572%, 78.666687%, 7.461548%)" offset="0.550781"/><stop stop-opacity="1" stop-color="rgb(4.933167%, 79.000854%, 7.522583%)" offset="0.554688"/><stop stop-opacity="1" stop-color="rgb(4.879761%, 79.335022%, 7.583618%)" offset="0.558594"/><stop stop-opacity="1" stop-color="rgb(4.826355%, 79.670715%, 7.646179%)" offset="0.5625"/><stop stop-opacity="1" stop-color="rgb(4.771423%, 80.004883%, 7.707214%)" offset="0.566406"/><stop stop-opacity="1" stop-color="rgb(4.718018%, 80.340576%, 7.76825%)" offset="0.570312"/><stop stop-opacity="1" stop-color="rgb(4.664612%, 80.674744%, 7.829285%)" offset="0.574219"/><stop stop-opacity="1" stop-color="rgb(4.611206%, 81.010437%, 7.89032%)" offset="0.578125"/><stop stop-opacity="1" stop-color="rgb(4.5578%, 81.344604%, 7.951355%)" offset="0.582031"/><stop stop-opacity="1" stop-color="rgb(4.504395%, 81.680298%, 8.013916%)" offset="0.585938"/><stop stop-opacity="1" stop-color="rgb(4.450989%, 82.014465%, 8.074951%)" offset="0.589844"/><stop stop-opacity="1" stop-color="rgb(4.397583%, 82.348633%, 8.135986%)" offset="0.59375"/><stop stop-opacity="1" stop-color="rgb(4.342651%, 82.6828%, 8.197021%)" offset="0.597656"/><stop stop-opacity="1" stop-color="rgb(4.289246%, 83.018494%, 8.258057%)" offset="0.601562"/><stop stop-opacity="1" stop-color="rgb(4.23584%, 83.352661%, 8.319092%)" offset="0.605469"/><stop stop-opacity="1" stop-color="rgb(4.182434%, 83.688354%, 8.381653%)" offset="0.609375"/><stop stop-opacity="1" stop-color="rgb(4.129028%, 84.022522%, 8.442688%)" offset="0.613281"/><stop stop-opacity="1" stop-color="rgb(4.075623%, 84.358215%, 8.503723%)" offset="0.617188"/><stop stop-opacity="1" stop-color="rgb(4.020691%, 84.692383%, 8.564758%)" offset="0.621094"/><stop stop-opacity="1" stop-color="rgb(3.967285%, 85.028076%, 8.627319%)" offset="0.625"/><stop stop-opacity="1" stop-color="rgb(3.913879%, 85.362244%, 8.688354%)" offset="0.628906"/><stop stop-opacity="1" stop-color="rgb(3.860474%, 85.697937%, 8.74939%)" offset="0.632812"/><stop stop-opacity="1" stop-color="rgb(3.807068%, 86.032104%, 8.810425%)" offset="0.636719"/><stop stop-opacity="1" stop-color="rgb(3.753662%, 86.366272%, 8.87146%)" offset="0.640625"/><stop stop-opacity="1" stop-color="rgb(3.69873%, 86.700439%, 8.932495%)" offset="0.644531"/><stop stop-opacity="1" stop-color="rgb(3.645325%, 87.036133%, 8.995056%)" offset="0.648438"/><stop stop-opacity="1" stop-color="rgb(3.591919%, 87.3703%, 9.056091%)" offset="0.652344"/><stop stop-opacity="1" stop-color="rgb(3.538513%, 87.705994%, 9.117126%)" offset="0.65625"/><stop stop-opacity="1" stop-color="rgb(3.485107%, 88.040161%, 9.178162%)" offset="0.660156"/><stop stop-opacity="1" stop-color="rgb(3.431702%, 88.375854%, 9.240723%)" offset="0.664062"/><stop stop-opacity="1" stop-color="rgb(3.378296%, 88.710022%, 9.301758%)" offset="0.667969"/><stop stop-opacity="1" stop-color="rgb(3.32489%, 89.045715%, 9.362793%)" offset="0.671875"/><stop stop-opacity="1" stop-color="rgb(3.269958%, 89.379883%, 9.423828%)" offset="0.675781"/><stop stop-opacity="1" stop-color="rgb(3.216553%, 89.715576%, 9.484863%)" offset="0.679688"/><stop stop-opacity="1" stop-color="rgb(3.163147%, 90.049744%, 9.545898%)" offset="0.683594"/><stop stop-opacity="1" stop-color="rgb(3.109741%, 90.383911%, 9.608459%)" offset="0.6875"/><stop stop-opacity="1" stop-color="rgb(3.056335%, 90.718079%, 9.669495%)" offset="0.691406"/><stop stop-opacity="1" stop-color="rgb(3.00293%, 91.053772%, 9.73053%)" offset="0.695312"/><stop stop-opacity="1" stop-color="rgb(2.947998%, 91.387939%, 9.791565%)" offset="0.699219"/><stop stop-opacity="1" stop-color="rgb(2.894592%, 91.723633%, 9.8526%)" offset="0.703125"/><stop stop-opacity="1" stop-color="rgb(2.841187%, 92.0578%, 9.913635%)" offset="0.707031"/><stop stop-opacity="1" stop-color="rgb(2.787781%, 92.393494%, 9.976196%)" offset="0.710938"/><stop stop-opacity="1" stop-color="rgb(2.734375%, 92.727661%, 10.037231%)" offset="0.714844"/><stop stop-opacity="1" stop-color="rgb(2.680969%, 93.063354%, 10.098267%)" offset="0.71875"/><stop stop-opacity="1" stop-color="rgb(2.626038%, 93.397522%, 10.159302%)" offset="0.722656"/><stop stop-opacity="1" stop-color="rgb(2.572632%, 93.731689%, 10.221863%)" offset="0.726562"/><stop stop-opacity="1" stop-color="rgb(2.519226%, 94.065857%, 10.282898%)" offset="0.730469"/><stop stop-opacity="1" stop-color="rgb(2.46582%, 94.40155%, 10.343933%)" offset="0.734375"/><stop stop-opacity="1" stop-color="rgb(2.412415%, 94.735718%, 10.404968%)" offset="0.738281"/><stop stop-opacity="1" stop-color="rgb(2.359009%, 95.071411%, 10.466003%)" offset="0.742188"/><stop stop-opacity="1" stop-color="rgb(2.304077%, 95.405579%, 10.527039%)" offset="0.746094"/><stop stop-opacity="1" stop-color="rgb(2.250671%, 95.741272%, 10.5896%)" offset="0.75"/><stop stop-opacity="1" stop-color="rgb(2.197266%, 96.075439%, 10.650635%)" offset="0.753906"/><stop stop-opacity="1" stop-color="rgb(2.14386%, 96.411133%, 10.71167%)" offset="0.757812"/><stop stop-opacity="1" stop-color="rgb(2.090454%, 96.7453%, 10.772705%)" offset="0.761719"/><stop stop-opacity="1" stop-color="rgb(2.037048%, 97.080994%, 10.835266%)" offset="0.765625"/><stop stop-opacity="1" stop-color="rgb(1.983643%, 97.415161%, 10.896301%)" offset="0.769531"/><stop stop-opacity="1" stop-color="rgb(1.930237%, 97.749329%, 10.957336%)" offset="0.773438"/><stop stop-opacity="1" stop-color="rgb(1.875305%, 98.083496%, 11.018372%)" offset="0.777344"/><stop stop-opacity="1" stop-color="rgb(1.821899%, 98.419189%, 11.079407%)" offset="0.78125"/><stop stop-opacity="1" stop-color="rgb(1.768494%, 98.753357%, 11.140442%)" offset="0.785156"/><stop stop-opacity="1" stop-color="rgb(1.715088%, 99.08905%, 11.203003%)" offset="0.789062"/><stop stop-opacity="1" stop-color="rgb(1.661682%, 99.423218%, 11.264038%)" offset="0.792969"/><stop stop-opacity="1" stop-color="rgb(1.608276%, 99.758911%, 11.325073%)" offset="0.796875"/><stop stop-opacity="1" stop-color="rgb(1.58844%, 99.879456%, 11.346436%)" offset="0.8125"/><stop stop-opacity="1" stop-color="rgb(1.568604%, 100%, 11.369324%)" offset="0.875"/><stop stop-opacity="1" stop-color="rgb(1.568604%, 100%, 11.369324%)" offset="1"/></linearGradient><clipPath id="4904aae1fe"><rect x="0" width="1134" y="0" height="578"/></clipPath><clipPath id="4ceebf24f8"><path d="M 0 0.664062 L 1134 0.664062 L 1134 577.328125 L 0 577.328125 Z M 0 0.664062 " clip-rule="nonzero"/></clipPath><clipPath id="6e7a63c18d"><rect x="0" width="1134" y="0" height="578"/></clipPath><clipPath id="a24e969b12"><rect x="0" width="1134" y="0" height="578"/></clipPath><mask id="8204fca08a"><g filter="url(#74a18f3c57)"><g transform="matrix(1, 0, 0, 1, 0, -0.000000000000341061)"><g clip-path="url(#a24e969b12)"><g clip-path="url(#4ceebf24f8)"><g transform="matrix(1, 0, 0, 1, 0, -0.000000000000341061)"><g clip-path="url(#6e7a63c18d)"><g fill="#000000" fill-opacity="1"><g transform="translate(245.526335, 324.803281)"><g><path d="M 33.625 1.296875 C 27.675781 1.296875 21.925781 0.488281 16.375 -1.125 C 10.832031 -2.738281 6.378906 -4.832031 3.015625 -7.40625 L 8.921875 -20.515625 C 12.140625 -18.148438 15.96875 -16.25 20.40625 -14.8125 C 24.851562 -13.382812 29.296875 -12.671875 33.734375 -12.671875 C 38.671875 -12.671875 42.320312 -13.40625 44.6875 -14.875 C 47.050781 -16.34375 48.234375 -18.296875 48.234375 -20.734375 C 48.234375 -22.523438 47.535156 -24.007812 46.140625 -25.1875 C 44.742188 -26.375 42.953125 -27.320312 40.765625 -28.03125 C 38.578125 -28.75 35.625 -29.539062 31.90625 -30.40625 C 26.175781 -31.757812 21.484375 -33.117188 17.828125 -34.484375 C 14.179688 -35.847656 11.050781 -38.03125 8.4375 -41.03125 C 5.820312 -44.039062 4.515625 -48.050781 4.515625 -53.0625 C 4.515625 -57.4375 5.695312 -61.394531 8.0625 -64.9375 C 10.425781 -68.476562 13.988281 -71.285156 18.75 -73.359375 C 23.507812 -75.441406 29.328125 -76.484375 36.203125 -76.484375 C 41.003906 -76.484375 45.695312 -75.910156 50.28125 -74.765625 C 54.863281 -73.617188 58.875 -71.972656 62.3125 -69.828125 L 56.9375 -56.609375 C 49.988281 -60.546875 43.039062 -62.515625 36.09375 -62.515625 C 31.226562 -62.515625 27.628906 -61.726562 25.296875 -60.15625 C 22.972656 -58.582031 21.8125 -56.503906 21.8125 -53.921875 C 21.8125 -51.347656 23.148438 -49.429688 25.828125 -48.171875 C 28.515625 -46.921875 32.617188 -45.6875 38.140625 -44.46875 C 43.867188 -43.113281 48.554688 -41.753906 52.203125 -40.390625 C 55.859375 -39.023438 58.992188 -36.875 61.609375 -33.9375 C 64.222656 -31.007812 65.53125 -27.035156 65.53125 -22.015625 C 65.53125 -17.722656 64.328125 -13.800781 61.921875 -10.25 C 59.523438 -6.707031 55.925781 -3.894531 51.125 -1.8125 C 46.332031 0.257812 40.5 1.296875 33.625 1.296875 Z M 33.625 1.296875 "/></g></g></g><g fill="#000000" fill-opacity="1"><g transform="translate(314.059028, 324.803281)"><g><path d="M 8.921875 -75.203125 L 26.3125 -75.203125 L 26.3125 0 L 8.921875 0 Z M 8.921875 -75.203125 "/></g></g></g><g fill="#000000" fill-opacity="1"><g transform="translate(349.292136, 324.803281)"><g><path d="M 5.59375 -36.953125 L 35.984375 -36.953125 L 35.984375 -23.53125 L 5.59375 -23.53125 Z M 5.59375 -36.953125 "/></g></g></g><g fill="#000000" fill-opacity="1"><g transform="translate(390.755531, 324.803281)"><g/></g></g><g fill="#000000" fill-opacity="1"><g transform="translate(421.154835, 324.803281)"><g><path d="M 41.46875 -75.203125 C 48.125 -75.203125 53.90625 -74.085938 58.8125 -71.859375 C 63.71875 -69.640625 67.492188 -66.488281 70.140625 -62.40625 C 72.796875 -58.332031 74.125 -53.5 74.125 -47.90625 C 74.125 -42.394531 72.796875 -37.578125 70.140625 -33.453125 C 67.492188 -29.335938 63.71875 -26.1875 58.8125 -24 C 53.90625 -21.820312 48.125 -20.734375 41.46875 -20.734375 L 26.3125 -20.734375 L 26.3125 0 L 8.921875 0 L 8.921875 -75.203125 Z M 40.5 -34.90625 C 45.726562 -34.90625 49.703125 -36.035156 52.421875 -38.296875 C 55.140625 -40.554688 56.5 -43.757812 56.5 -47.90625 C 56.5 -52.132812 55.140625 -55.375 52.421875 -57.625 C 49.703125 -59.882812 45.726562 -61.015625 40.5 -61.015625 L 26.3125 -61.015625 L 26.3125 -34.90625 Z M 40.5 -34.90625 "/></g></g></g><g fill="#000000" fill-opacity="1"><g transform="translate(499.784861, 324.803281)"><g><path d="M 45.328125 1.296875 C 37.523438 1.296875 30.488281 -0.382812 24.21875 -3.75 C 17.957031 -7.125 13.050781 -11.765625 9.5 -17.671875 C 5.957031 -23.578125 4.1875 -30.21875 4.1875 -37.59375 C 4.1875 -44.96875 5.957031 -51.609375 9.5 -57.515625 C 13.050781 -63.429688 17.957031 -68.070312 24.21875 -71.4375 C 30.488281 -74.800781 37.523438 -76.484375 45.328125 -76.484375 C 53.140625 -76.484375 60.160156 -74.800781 66.390625 -71.4375 C 72.617188 -68.070312 77.519531 -63.429688 81.09375 -57.515625 C 84.675781 -51.609375 86.46875 -44.96875 86.46875 -37.59375 C 86.46875 -30.21875 84.675781 -23.578125 81.09375 -17.671875 C 77.519531 -11.765625 72.617188 -7.125 66.390625 -3.75 C 60.160156 -0.382812 53.140625 1.296875 45.328125 1.296875 Z M 45.328125 -13.53125 C 49.773438 -13.53125 53.785156 -14.550781 57.359375 -16.59375 C 60.941406 -18.632812 63.753906 -21.476562 65.796875 -25.125 C 67.835938 -28.78125 68.859375 -32.9375 68.859375 -37.59375 C 68.859375 -42.25 67.835938 -46.398438 65.796875 -50.046875 C 63.753906 -53.703125 60.941406 -56.550781 57.359375 -58.59375 C 53.785156 -60.632812 49.773438 -61.65625 45.328125 -61.65625 C 40.890625 -61.65625 36.878906 -60.632812 33.296875 -58.59375 C 29.722656 -56.550781 26.914062 -53.703125 24.875 -50.046875 C 22.832031 -46.398438 21.8125 -42.25 21.8125 -37.59375 C 21.8125 -32.9375 22.832031 -28.78125 24.875 -25.125 C 26.914062 -21.476562 29.722656 -18.632812 33.296875 -16.59375 C 36.878906 -14.550781 40.890625 -13.53125 45.328125 -13.53125 Z M 45.328125 -13.53125 "/></g></g></g><g fill="#000000" fill-opacity="1"><g transform="translate(590.445679, 324.803281)"><g><path d="M 33.625 1.296875 C 27.675781 1.296875 21.925781 0.488281 16.375 -1.125 C 10.832031 -2.738281 6.378906 -4.832031 3.015625 -7.40625 L 8.921875 -20.515625 C 12.140625 -18.148438 15.96875 -16.25 20.40625 -14.8125 C 24.851562 -13.382812 29.296875 -12.671875 33.734375 -12.671875 C 38.671875 -12.671875 42.320312 -13.40625 44.6875 -14.875 C 47.050781 -16.34375 48.234375 -18.296875 48.234375 -20.734375 C 48.234375 -22.523438 47.535156 -24.007812 46.140625 -25.1875 C 44.742188 -26.375 42.953125 -27.320312 40.765625 -28.03125 C 38.578125 -28.75 35.625 -29.539062 31.90625 -30.40625 C 26.175781 -31.757812 21.484375 -33.117188 17.828125 -34.484375 C 14.179688 -35.847656 11.050781 -38.03125 8.4375 -41.03125 C 5.820312 -44.039062 4.515625 -48.050781 4.515625 -53.0625 C 4.515625 -57.4375 5.695312 -61.394531 8.0625 -64.9375 C 10.425781 -68.476562 13.988281 -71.285156 18.75 -73.359375 C 23.507812 -75.441406 29.328125 -76.484375 36.203125 -76.484375 C 41.003906 -76.484375 45.695312 -75.910156 50.28125 -74.765625 C 54.863281 -73.617188 58.875 -71.972656 62.3125 -69.828125 L 56.9375 -56.609375 C 49.988281 -60.546875 43.039062 -62.515625 36.09375 -62.515625 C 31.226562 -62.515625 27.628906 -61.726562 25.296875 -60.15625 C 22.972656 -58.582031 21.8125 -56.503906 21.8125 -53.921875 C 21.8125 -51.347656 23.148438 -49.429688 25.828125 -48.171875 C 28.515625 -46.921875 32.617188 -45.6875 38.140625 -44.46875 C 43.867188 -43.113281 48.554688 -41.753906 52.203125 -40.390625 C 55.859375 -39.023438 58.992188 -36.875 61.609375 -33.9375 C 64.222656 -31.007812 65.53125 -27.035156 65.53125 -22.015625 C 65.53125 -17.722656 64.328125 -13.800781 61.921875 -10.25 C 59.523438 -6.707031 55.925781 -3.894531 51.125 -1.8125 C 46.332031 0.257812 40.5 1.296875 33.625 1.296875 Z M 33.625 1.296875 "/></g></g></g><g fill="#000000" fill-opacity="1"><g transform="translate(658.978371, 324.803281)"><g><path d="M 8.921875 -75.203125 L 43.078125 -75.203125 C 51.242188 -75.203125 58.457031 -73.640625 64.71875 -70.515625 C 70.988281 -67.398438 75.859375 -63.015625 79.328125 -57.359375 C 82.804688 -51.703125 84.546875 -45.113281 84.546875 -37.59375 C 84.546875 -30.070312 82.804688 -23.484375 79.328125 -17.828125 C 75.859375 -12.171875 70.988281 -7.785156 64.71875 -4.671875 C 58.457031 -1.554688 51.242188 0 43.078125 0 L 8.921875 0 Z M 42.21875 -14.28125 C 49.738281 -14.28125 55.734375 -16.375 60.203125 -20.5625 C 64.679688 -24.757812 66.921875 -30.4375 66.921875 -37.59375 C 66.921875 -44.757812 64.679688 -50.4375 60.203125 -54.625 C 55.734375 -58.8125 49.738281 -60.90625 42.21875 -60.90625 L 26.3125 -60.90625 L 26.3125 -14.28125 Z M 42.21875 -14.28125 "/></g></g></g><g fill="#000000" fill-opacity="1"><g transform="translate(747.705666, 324.803281)"><g><path d="M 67.140625 -13.96875 L 67.140625 0 L 8.921875 0 L 8.921875 -75.203125 L 65.75 -75.203125 L 65.75 -61.234375 L 26.21875 -61.234375 L 26.21875 -44.90625 L 61.125 -44.90625 L 61.125 -31.375 L 26.21875 -31.375 L 26.21875 -13.96875 Z M 67.140625 -13.96875 "/></g></g></g><g fill="#000000" fill-opacity="1"><g transform="translate(819.783167, 324.803281)"><g><path d="M 33.625 1.296875 C 27.675781 1.296875 21.925781 0.488281 16.375 -1.125 C 10.832031 -2.738281 6.378906 -4.832031 3.015625 -7.40625 L 8.921875 -20.515625 C 12.140625 -18.148438 15.96875 -16.25 20.40625 -14.8125 C 24.851562 -13.382812 29.296875 -12.671875 33.734375 -12.671875 C 38.671875 -12.671875 42.320312 -13.40625 44.6875 -14.875 C 47.050781 -16.34375 48.234375 -18.296875 48.234375 -20.734375 C 48.234375 -22.523438 47.535156 -24.007812 46.140625 -25.1875 C 44.742188 -26.375 42.953125 -27.320312 40.765625 -28.03125 C 38.578125 -28.75 35.625 -29.539062 31.90625 -30.40625 C 26.175781 -31.757812 21.484375 -33.117188 17.828125 -34.484375 C 14.179688 -35.847656 11.050781 -38.03125 8.4375 -41.03125 C 5.820312 -44.039062 4.515625 -48.050781 4.515625 -53.0625 C 4.515625 -57.4375 5.695312 -61.394531 8.0625 -64.9375 C 10.425781 -68.476562 13.988281 -71.285156 18.75 -73.359375 C 23.507812 -75.441406 29.328125 -76.484375 36.203125 -76.484375 C 41.003906 -76.484375 45.695312 -75.910156 50.28125 -74.765625 C 54.863281 -73.617188 58.875 -71.972656 62.3125 -69.828125 L 56.9375 -56.609375 C 49.988281 -60.546875 43.039062 -62.515625 36.09375 -62.515625 C 31.226562 -62.515625 27.628906 -61.726562 25.296875 -60.15625 C 22.972656 -58.582031 21.8125 -56.503906 21.8125 -53.921875 C 21.8125 -51.347656 23.148438 -49.429688 25.828125 -48.171875 C 28.515625 -46.921875 32.617188 -45.6875 38.140625 -44.46875 C 43.867188 -43.113281 48.554688 -41.753906 52.203125 -40.390625 C 55.859375 -39.023438 58.992188 -36.875 61.609375 -33.9375 C 64.222656 -31.007812 65.53125 -27.035156 65.53125 -22.015625 C 65.53125 -17.722656 64.328125 -13.800781 61.921875 -10.25 C 59.523438 -6.707031 55.925781 -3.894531 51.125 -1.8125 C 46.332031 0.257812 40.5 1.296875 33.625 1.296875 Z M 33.625 1.296875 "/></g></g></g></g></g></g></g></g></g></mask><clipPath id="b88fe17ca2"><path d="M 30.808594 8.203125 L 1104.984375 8.203125 L 1104.984375 569.792969 L 30.808594 569.792969 Z M 30.808594 8.203125 " clip-rule="nonzero"/></clipPath><clipPath id="46ddd682e5"><rect x="0" width="1134" y="0" height="578"/></clipPath><clipPath id="52af09b9c2"><rect x="0" width="1134" y="0" height="578"/></clipPath><clipPath id="d4c079aebf"><rect x="0" width="1134" y="0" height="578"/></clipPath><clipPath id="65e314a24f"><path d="M 0 0.296875 L 1134 0.296875 L 1134 390 L 0 390 Z M 0 0.296875 " clip-rule="nonzero"/></clipPath><clipPath id="8d1588eb43"><path d="M 0 0.296875 L 1134 0.296875 L 1134 390 L 0 390 Z M 0 0.296875 " clip-rule="nonzero"/></clipPath><clipPath id="65def593e0"><path d="M 96.917969 7.675781 L 1034.226562 7.675781 L 1034.226562 381.621094 L 96.917969 381.621094 Z M 96.917969 7.675781 " clip-rule="nonzero"/></clipPath><linearGradient x1="6.302" gradientTransform="matrix(2.457066, 0, 0, 2.45479, 81.433921, 144.326794)" y1="20.5" x2="387.776" gradientUnits="userSpaceOnUse" y2="20.5" id="ab05dd578e"><stop stop-opacity="1" stop-color="rgb(9.799194%, 48.629761%, 1.959229%)" offset="0"/><stop stop-opacity="1" stop-color="rgb(9.799194%, 48.629761%, 1.959229%)" offset="0.125"/><stop stop-opacity="1" stop-color="rgb(9.783936%, 48.719788%, 1.976013%)" offset="0.15625"/><stop stop-opacity="1" stop-color="rgb(9.7229%, 49.101257%, 2.044678%)" offset="0.160156"/><stop stop-opacity="1" stop-color="rgb(9.677124%, 49.391174%, 2.098083%)" offset="0.164062"/><stop stop-opacity="1" stop-color="rgb(9.629822%, 49.681091%, 2.151489%)" offset="0.167969"/><stop stop-opacity="1" stop-color="rgb(9.584045%, 49.971008%, 2.204895%)" offset="0.171875"/><stop stop-opacity="1" stop-color="rgb(9.536743%, 50.260925%, 2.258301%)" offset="0.175781"/><stop stop-opacity="1" stop-color="rgb(9.490967%, 50.550842%, 2.311707%)" offset="0.179688"/><stop stop-opacity="1" stop-color="rgb(9.443665%, 50.840759%, 2.363586%)" offset="0.183594"/><stop stop-opacity="1" stop-color="rgb(9.397888%, 51.130676%, 2.416992%)" offset="0.1875"/><stop stop-opacity="1" stop-color="rgb(9.352112%, 51.419067%, 2.470398%)" offset="0.191406"/><stop stop-opacity="1" stop-color="rgb(9.306335%, 51.708984%, 2.523804%)" offset="0.195312"/><stop stop-opacity="1" stop-color="rgb(9.259033%, 51.998901%, 2.575684%)" offset="0.199219"/><stop stop-opacity="1" stop-color="rgb(9.213257%, 52.288818%, 2.629089%)" offset="0.203125"/><stop stop-opacity="1" stop-color="rgb(9.165955%, 52.578735%, 2.682495%)" offset="0.207031"/><stop stop-opacity="1" stop-color="rgb(9.120178%, 52.868652%, 2.735901%)" offset="0.210938"/><stop stop-opacity="1" stop-color="rgb(9.072876%, 53.158569%, 2.789307%)" offset="0.214844"/><stop stop-opacity="1" stop-color="rgb(9.0271%, 53.448486%, 2.842712%)" offset="0.21875"/><stop stop-opacity="1" stop-color="rgb(8.979797%, 53.738403%, 2.894592%)" offset="0.222656"/><stop stop-opacity="1" stop-color="rgb(8.934021%, 54.02832%, 2.947998%)" offset="0.226563"/><stop stop-opacity="1" stop-color="rgb(8.886719%, 54.318237%, 3.001404%)" offset="0.230469"/><stop stop-opacity="1" stop-color="rgb(8.840942%, 54.608154%, 3.05481%)" offset="0.234375"/><stop stop-opacity="1" stop-color="rgb(8.79364%, 54.898071%, 3.106689%)" offset="0.238281"/><stop stop-opacity="1" stop-color="rgb(8.747864%, 55.187988%, 3.160095%)" offset="0.242188"/><stop stop-opacity="1" stop-color="rgb(8.702087%, 55.476379%, 3.213501%)" offset="0.246094"/><stop stop-opacity="1" stop-color="rgb(8.656311%, 55.766296%, 3.266907%)" offset="0.25"/><stop stop-opacity="1" stop-color="rgb(8.609009%, 56.056213%, 3.318787%)" offset="0.253906"/><stop stop-opacity="1" stop-color="rgb(8.563232%, 56.34613%, 3.372192%)" offset="0.257813"/><stop stop-opacity="1" stop-color="rgb(8.51593%, 56.636047%, 3.425598%)" offset="0.261719"/><stop stop-opacity="1" stop-color="rgb(8.470154%, 56.925964%, 3.479004%)" offset="0.265625"/><stop stop-opacity="1" stop-color="rgb(8.422852%, 57.215881%, 3.53241%)" offset="0.269531"/><stop stop-opacity="1" stop-color="rgb(8.377075%, 57.505798%, 3.585815%)" offset="0.273438"/><stop stop-opacity="1" stop-color="rgb(8.329773%, 57.795715%, 3.637695%)" offset="0.277344"/><stop stop-opacity="1" stop-color="rgb(8.283997%, 58.085632%, 3.691101%)" offset="0.28125"/><stop stop-opacity="1" stop-color="rgb(8.236694%, 58.375549%, 3.744507%)" offset="0.285156"/><stop stop-opacity="1" stop-color="rgb(8.190918%, 58.665466%, 3.797913%)" offset="0.289062"/><stop stop-opacity="1" stop-color="rgb(8.143616%, 58.955383%, 3.849792%)" offset="0.292969"/><stop stop-opacity="1" stop-color="rgb(8.097839%, 59.2453%, 3.903198%)" offset="0.296875"/><stop stop-opacity="1" stop-color="rgb(8.052063%, 59.533691%, 3.956604%)" offset="0.300781"/><stop stop-opacity="1" stop-color="rgb(8.006287%, 59.823608%, 4.01001%)" offset="0.304688"/><stop stop-opacity="1" stop-color="rgb(7.958984%, 60.113525%, 4.063416%)" offset="0.308594"/><stop stop-opacity="1" stop-color="rgb(7.913208%, 60.403442%, 4.116821%)" offset="0.3125"/><stop stop-opacity="1" stop-color="rgb(7.865906%, 60.693359%, 4.168701%)" offset="0.316406"/><stop stop-opacity="1" stop-color="rgb(7.820129%, 60.983276%, 4.222107%)" offset="0.320313"/><stop stop-opacity="1" stop-color="rgb(7.772827%, 61.273193%, 4.275513%)" offset="0.324219"/><stop stop-opacity="1" stop-color="rgb(7.727051%, 61.56311%, 4.328918%)" offset="0.328125"/><stop stop-opacity="1" stop-color="rgb(7.679749%, 61.853027%, 4.380798%)" offset="0.332031"/><stop stop-opacity="1" stop-color="rgb(7.633972%, 62.142944%, 4.434204%)" offset="0.335938"/><stop stop-opacity="1" stop-color="rgb(7.58667%, 62.432861%, 4.48761%)" offset="0.339844"/><stop stop-opacity="1" stop-color="rgb(7.540894%, 62.722778%, 4.541016%)" offset="0.34375"/><stop stop-opacity="1" stop-color="rgb(7.493591%, 63.011169%, 4.592896%)" offset="0.347656"/><stop stop-opacity="1" stop-color="rgb(7.447815%, 63.301086%, 4.646301%)" offset="0.351563"/><stop stop-opacity="1" stop-color="rgb(7.402039%, 63.591003%, 4.699707%)" offset="0.355469"/><stop stop-opacity="1" stop-color="rgb(7.356262%, 63.88092%, 4.753113%)" offset="0.359375"/><stop stop-opacity="1" stop-color="rgb(7.30896%, 64.170837%, 4.806519%)" offset="0.363281"/><stop stop-opacity="1" stop-color="rgb(7.263184%, 64.460754%, 4.859924%)" offset="0.367188"/><stop stop-opacity="1" stop-color="rgb(7.215881%, 64.750671%, 4.911804%)" offset="0.371094"/><stop stop-opacity="1" stop-color="rgb(7.170105%, 65.040588%, 4.96521%)" offset="0.375"/><stop stop-opacity="1" stop-color="rgb(7.122803%, 65.330505%, 5.018616%)" offset="0.378906"/><stop stop-opacity="1" stop-color="rgb(7.077026%, 65.620422%, 5.072021%)" offset="0.382812"/><stop stop-opacity="1" stop-color="rgb(7.029724%, 65.910339%, 5.123901%)" offset="0.386719"/><stop stop-opacity="1" stop-color="rgb(6.983948%, 66.200256%, 5.177307%)" offset="0.390625"/><stop stop-opacity="1" stop-color="rgb(6.936646%, 66.490173%, 5.230713%)" offset="0.394531"/><stop stop-opacity="1" stop-color="rgb(6.890869%, 66.78009%, 5.284119%)" offset="0.398438"/><stop stop-opacity="1" stop-color="rgb(6.843567%, 67.068481%, 5.337524%)" offset="0.402344"/><stop stop-opacity="1" stop-color="rgb(6.797791%, 67.358398%, 5.39093%)" offset="0.40625"/><stop stop-opacity="1" stop-color="rgb(6.752014%, 67.648315%, 5.44281%)" offset="0.410156"/><stop stop-opacity="1" stop-color="rgb(6.706238%, 67.938232%, 5.496216%)" offset="0.414062"/><stop stop-opacity="1" stop-color="rgb(6.658936%, 68.228149%, 5.549622%)" offset="0.417969"/><stop stop-opacity="1" stop-color="rgb(6.613159%, 68.518066%, 5.603027%)" offset="0.421875"/><stop stop-opacity="1" stop-color="rgb(6.565857%, 68.807983%, 5.654907%)" offset="0.425781"/><stop stop-opacity="1" stop-color="rgb(6.520081%, 69.0979%, 5.708313%)" offset="0.429688"/><stop stop-opacity="1" stop-color="rgb(6.472778%, 69.387817%, 5.761719%)" offset="0.433594"/><stop stop-opacity="1" stop-color="rgb(6.427002%, 69.677734%, 5.815125%)" offset="0.4375"/><stop stop-opacity="1" stop-color="rgb(6.3797%, 69.967651%, 5.867004%)" offset="0.441406"/><stop stop-opacity="1" stop-color="rgb(6.333923%, 70.257568%, 5.92041%)" offset="0.445313"/><stop stop-opacity="1" stop-color="rgb(6.286621%, 70.545959%, 5.973816%)" offset="0.449219"/><stop stop-opacity="1" stop-color="rgb(6.240845%, 70.835876%, 6.027222%)" offset="0.453125"/><stop stop-opacity="1" stop-color="rgb(6.193542%, 71.125793%, 6.080627%)" offset="0.457031"/><stop stop-opacity="1" stop-color="rgb(6.147766%, 71.41571%, 6.134033%)" offset="0.460938"/><stop stop-opacity="1" stop-color="rgb(6.10199%, 71.705627%, 6.185913%)" offset="0.464844"/><stop stop-opacity="1" stop-color="rgb(6.056213%, 71.995544%, 6.239319%)" offset="0.46875"/><stop stop-opacity="1" stop-color="rgb(6.008911%, 72.285461%, 6.292725%)" offset="0.472656"/><stop stop-opacity="1" stop-color="rgb(5.963135%, 72.575378%, 6.34613%)" offset="0.476562"/><stop stop-opacity="1" stop-color="rgb(5.915833%, 72.865295%, 6.39801%)" offset="0.480469"/><stop stop-opacity="1" stop-color="rgb(5.870056%, 73.155212%, 6.451416%)" offset="0.484375"/><stop stop-opacity="1" stop-color="rgb(5.822754%, 73.445129%, 6.504822%)" offset="0.488281"/><stop stop-opacity="1" stop-color="rgb(5.776978%, 73.735046%, 6.558228%)" offset="0.492188"/><stop stop-opacity="1" stop-color="rgb(5.729675%, 74.024963%, 6.610107%)" offset="0.496094"/><stop stop-opacity="1" stop-color="rgb(5.683899%, 74.31488%, 6.663513%)" offset="0.5"/><stop stop-opacity="1" stop-color="rgb(5.636597%, 74.603271%, 6.716919%)" offset="0.503906"/><stop stop-opacity="1" stop-color="rgb(5.59082%, 74.893188%, 6.770325%)" offset="0.507812"/><stop stop-opacity="1" stop-color="rgb(5.545044%, 75.183105%, 6.82373%)" offset="0.511719"/><stop stop-opacity="1" stop-color="rgb(5.499268%, 75.473022%, 6.877136%)" offset="0.515625"/><stop stop-opacity="1" stop-color="rgb(5.451965%, 75.762939%, 6.929016%)" offset="0.519531"/><stop stop-opacity="1" stop-color="rgb(5.406189%, 76.052856%, 6.982422%)" offset="0.523438"/><stop stop-opacity="1" stop-color="rgb(5.358887%, 76.342773%, 7.035828%)" offset="0.527344"/><stop stop-opacity="1" stop-color="rgb(5.31311%, 76.63269%, 7.089233%)" offset="0.53125"/><stop stop-opacity="1" stop-color="rgb(5.265808%, 76.922607%, 7.141113%)" offset="0.535156"/><stop stop-opacity="1" stop-color="rgb(5.220032%, 77.212524%, 7.194519%)" offset="0.539062"/><stop stop-opacity="1" stop-color="rgb(5.172729%, 77.502441%, 7.247925%)" offset="0.542969"/><stop stop-opacity="1" stop-color="rgb(5.126953%, 77.792358%, 7.301331%)" offset="0.546875"/><stop stop-opacity="1" stop-color="rgb(5.079651%, 78.082275%, 7.354736%)" offset="0.550781"/><stop stop-opacity="1" stop-color="rgb(5.033875%, 78.372192%, 7.408142%)" offset="0.554688"/><stop stop-opacity="1" stop-color="rgb(4.986572%, 78.660583%, 7.460022%)" offset="0.558594"/><stop stop-opacity="1" stop-color="rgb(4.940796%, 78.9505%, 7.513428%)" offset="0.5625"/><stop stop-opacity="1" stop-color="rgb(4.89502%, 79.240417%, 7.566833%)" offset="0.566406"/><stop stop-opacity="1" stop-color="rgb(4.849243%, 79.530334%, 7.620239%)" offset="0.570312"/><stop stop-opacity="1" stop-color="rgb(4.801941%, 79.820251%, 7.672119%)" offset="0.574219"/><stop stop-opacity="1" stop-color="rgb(4.756165%, 80.110168%, 7.725525%)" offset="0.578125"/><stop stop-opacity="1" stop-color="rgb(4.708862%, 80.400085%, 7.778931%)" offset="0.582031"/><stop stop-opacity="1" stop-color="rgb(4.663086%, 80.690002%, 7.832336%)" offset="0.585938"/><stop stop-opacity="1" stop-color="rgb(4.615784%, 80.979919%, 7.884216%)" offset="0.589844"/><stop stop-opacity="1" stop-color="rgb(4.570007%, 81.269836%, 7.937622%)" offset="0.59375"/><stop stop-opacity="1" stop-color="rgb(4.522705%, 81.559753%, 7.991028%)" offset="0.597656"/><stop stop-opacity="1" stop-color="rgb(4.476929%, 81.84967%, 8.044434%)" offset="0.601562"/><stop stop-opacity="1" stop-color="rgb(4.429626%, 82.138062%, 8.097839%)" offset="0.605469"/><stop stop-opacity="1" stop-color="rgb(4.38385%, 82.427979%, 8.151245%)" offset="0.609375"/><stop stop-opacity="1" stop-color="rgb(4.336548%, 82.717896%, 8.203125%)" offset="0.613281"/><stop stop-opacity="1" stop-color="rgb(4.290771%, 83.007812%, 8.256531%)" offset="0.617188"/><stop stop-opacity="1" stop-color="rgb(4.244995%, 83.297729%, 8.309937%)" offset="0.621094"/><stop stop-opacity="1" stop-color="rgb(4.199219%, 83.587646%, 8.363342%)" offset="0.625"/><stop stop-opacity="1" stop-color="rgb(4.151917%, 83.877563%, 8.415222%)" offset="0.628906"/><stop stop-opacity="1" stop-color="rgb(4.10614%, 84.16748%, 8.468628%)" offset="0.632812"/><stop stop-opacity="1" stop-color="rgb(4.058838%, 84.457397%, 8.522034%)" offset="0.636719"/><stop stop-opacity="1" stop-color="rgb(4.013062%, 84.747314%, 8.575439%)" offset="0.640625"/><stop stop-opacity="1" stop-color="rgb(3.965759%, 85.037231%, 8.628845%)" offset="0.644531"/><stop stop-opacity="1" stop-color="rgb(3.919983%, 85.327148%, 8.682251%)" offset="0.648438"/><stop stop-opacity="1" stop-color="rgb(3.872681%, 85.617065%, 8.734131%)" offset="0.652344"/><stop stop-opacity="1" stop-color="rgb(3.826904%, 85.906982%, 8.787537%)" offset="0.65625"/><stop stop-opacity="1" stop-color="rgb(3.779602%, 86.195374%, 8.840942%)" offset="0.660156"/><stop stop-opacity="1" stop-color="rgb(3.733826%, 86.485291%, 8.894348%)" offset="0.664062"/><stop stop-opacity="1" stop-color="rgb(3.686523%, 86.775208%, 8.946228%)" offset="0.667969"/><stop stop-opacity="1" stop-color="rgb(3.640747%, 87.065125%, 8.999634%)" offset="0.671875"/><stop stop-opacity="1" stop-color="rgb(3.594971%, 87.355042%, 9.05304%)" offset="0.675781"/><stop stop-opacity="1" stop-color="rgb(3.549194%, 87.644958%, 9.106445%)" offset="0.679688"/><stop stop-opacity="1" stop-color="rgb(3.501892%, 87.934875%, 9.158325%)" offset="0.683594"/><stop stop-opacity="1" stop-color="rgb(3.456116%, 88.224792%, 9.211731%)" offset="0.6875"/><stop stop-opacity="1" stop-color="rgb(3.408813%, 88.514709%, 9.265137%)" offset="0.691406"/><stop stop-opacity="1" stop-color="rgb(3.363037%, 88.804626%, 9.318542%)" offset="0.695312"/><stop stop-opacity="1" stop-color="rgb(3.315735%, 89.094543%, 9.371948%)" offset="0.699219"/><stop stop-opacity="1" stop-color="rgb(3.269958%, 89.38446%, 9.425354%)" offset="0.703125"/><stop stop-opacity="1" stop-color="rgb(3.222656%, 89.672852%, 9.477234%)" offset="0.707031"/><stop stop-opacity="1" stop-color="rgb(3.17688%, 89.962769%, 9.53064%)" offset="0.710938"/><stop stop-opacity="1" stop-color="rgb(3.129578%, 90.252686%, 9.584045%)" offset="0.714844"/><stop stop-opacity="1" stop-color="rgb(3.083801%, 90.542603%, 9.637451%)" offset="0.71875"/><stop stop-opacity="1" stop-color="rgb(3.036499%, 90.83252%, 9.689331%)" offset="0.722656"/><stop stop-opacity="1" stop-color="rgb(2.990723%, 91.122437%, 9.742737%)" offset="0.726563"/><stop stop-opacity="1" stop-color="rgb(2.944946%, 91.412354%, 9.796143%)" offset="0.730469"/><stop stop-opacity="1" stop-color="rgb(2.89917%, 91.702271%, 9.849548%)" offset="0.734375"/><stop stop-opacity="1" stop-color="rgb(2.851868%, 91.992188%, 9.901428%)" offset="0.738281"/><stop stop-opacity="1" stop-color="rgb(2.806091%, 92.282104%, 9.954834%)" offset="0.742188"/><stop stop-opacity="1" stop-color="rgb(2.758789%, 92.572021%, 10.00824%)" offset="0.746094"/><stop stop-opacity="1" stop-color="rgb(2.713013%, 92.861938%, 10.061646%)" offset="0.75"/><stop stop-opacity="1" stop-color="rgb(2.66571%, 93.151855%, 10.115051%)" offset="0.753906"/><stop stop-opacity="1" stop-color="rgb(2.619934%, 93.441772%, 10.168457%)" offset="0.757813"/><stop stop-opacity="1" stop-color="rgb(2.572632%, 93.730164%, 10.220337%)" offset="0.761719"/><stop stop-opacity="1" stop-color="rgb(2.526855%, 94.020081%, 10.273743%)" offset="0.765625"/><stop stop-opacity="1" stop-color="rgb(2.479553%, 94.309998%, 10.327148%)" offset="0.769531"/><stop stop-opacity="1" stop-color="rgb(2.433777%, 94.599915%, 10.380554%)" offset="0.773438"/><stop stop-opacity="1" stop-color="rgb(2.386475%, 94.889832%, 10.432434%)" offset="0.777344"/><stop stop-opacity="1" stop-color="rgb(2.340698%, 95.179749%, 10.48584%)" offset="0.78125"/><stop stop-opacity="1" stop-color="rgb(2.294922%, 95.469666%, 10.539246%)" offset="0.785156"/><stop stop-opacity="1" stop-color="rgb(2.249146%, 95.759583%, 10.592651%)" offset="0.789063"/><stop stop-opacity="1" stop-color="rgb(2.201843%, 96.0495%, 10.646057%)" offset="0.792969"/><stop stop-opacity="1" stop-color="rgb(2.156067%, 96.339417%, 10.699463%)" offset="0.796875"/><stop stop-opacity="1" stop-color="rgb(2.108765%, 96.629333%, 10.751343%)" offset="0.800781"/><stop stop-opacity="1" stop-color="rgb(2.062988%, 96.91925%, 10.804749%)" offset="0.804688"/><stop stop-opacity="1" stop-color="rgb(2.015686%, 97.209167%, 10.858154%)" offset="0.808594"/><stop stop-opacity="1" stop-color="rgb(1.96991%, 97.499084%, 10.91156%)" offset="0.8125"/><stop stop-opacity="1" stop-color="rgb(1.922607%, 97.787476%, 10.96344%)" offset="0.816406"/><stop stop-opacity="1" stop-color="rgb(1.876831%, 98.077393%, 11.016846%)" offset="0.820313"/><stop stop-opacity="1" stop-color="rgb(1.829529%, 98.36731%, 11.070251%)" offset="0.824219"/><stop stop-opacity="1" stop-color="rgb(1.783752%, 98.657227%, 11.123657%)" offset="0.828125"/><stop stop-opacity="1" stop-color="rgb(1.73645%, 98.947144%, 11.175537%)" offset="0.832031"/><stop stop-opacity="1" stop-color="rgb(1.690674%, 99.237061%, 11.228943%)" offset="0.835938"/><stop stop-opacity="1" stop-color="rgb(1.644897%, 99.526978%, 11.282349%)" offset="0.839844"/><stop stop-opacity="1" stop-color="rgb(1.599121%, 99.816895%, 11.335754%)" offset="0.84375"/><stop stop-opacity="1" stop-color="rgb(1.583862%, 99.908447%, 11.352539%)" offset="0.875"/><stop stop-opacity="1" stop-color="rgb(1.568604%, 100%, 11.369324%)" offset="1"/></linearGradient><clipPath id="e4d98596a7"><rect x="0" width="1134" y="0" height="390"/></clipPath><clipPath id="370b30a762"><path d="M 0 0.296875 L 1134 0.296875 L 1134 390 L 0 390 Z M 0 0.296875 " clip-rule="nonzero"/></clipPath><clipPath id="0650c1e84c"><rect x="0" width="1134" y="0" height="390"/></clipPath><clipPath id="3d1047865c"><rect x="0" width="1134" y="0" height="390"/></clipPath><mask id="18641e86a4"><g filter="url(#74a18f3c57)"><g transform="matrix(1, 0, 0, 1, 0, -0.000000000000227374)"><g clip-path="url(#3d1047865c)"><g clip-path="url(#370b30a762)"><g transform="matrix(1, 0, 0, 1, 0, -0.000000000000227374)"><g clip-path="url(#0650c1e84c)"><g fill="#000000" fill-opacity="1"><g transform="translate(241.982819, 219.250427)"><g><path d="M 8.21875 -50.515625 L 13.5625 -50.515625 L 13.5625 -4.625 L 41.84375 -4.625 L 41.84375 0 L 8.21875 0 Z M 8.21875 -50.515625 "/></g></g></g><g fill="#000000" fill-opacity="1"><g transform="translate(284.480392, 219.250427)"><g><path d="M 20.421875 -38.25 C 25.378906 -38.25 29.179688 -37.007812 31.828125 -34.53125 C 34.472656 -32.050781 35.796875 -28.378906 35.796875 -23.515625 L 35.796875 0 L 30.890625 0 L 30.890625 -5.921875 C 29.734375 -3.941406 28.035156 -2.398438 25.796875 -1.296875 C 23.554688 -0.191406 20.898438 0.359375 17.828125 0.359375 C 13.585938 0.359375 10.21875 -0.648438 7.71875 -2.671875 C 5.21875 -4.691406 3.96875 -7.359375 3.96875 -10.671875 C 3.96875 -13.898438 5.132812 -16.5 7.46875 -18.46875 C 9.800781 -20.445312 13.515625 -21.4375 18.609375 -21.4375 L 30.671875 -21.4375 L 30.671875 -23.734375 C 30.671875 -27.003906 29.753906 -29.492188 27.921875 -31.203125 C 26.097656 -32.910156 23.429688 -33.765625 19.921875 -33.765625 C 17.515625 -33.765625 15.203125 -33.367188 12.984375 -32.578125 C 10.773438 -31.785156 8.875 -30.691406 7.28125 -29.296875 L 4.984375 -33.125 C 6.898438 -34.757812 9.207031 -36.019531 11.90625 -36.90625 C 14.601562 -37.800781 17.441406 -38.25 20.421875 -38.25 Z M 18.609375 -3.6875 C 21.503906 -3.6875 23.984375 -4.347656 26.046875 -5.671875 C 28.117188 -6.992188 29.660156 -8.90625 30.671875 -11.40625 L 30.671875 -17.609375 L 18.765625 -17.609375 C 12.265625 -17.609375 9.015625 -15.347656 9.015625 -10.828125 C 9.015625 -8.609375 9.859375 -6.863281 11.546875 -5.59375 C 13.234375 -4.320312 15.585938 -3.6875 18.609375 -3.6875 Z M 18.609375 -3.6875 "/></g></g></g><g fill="#000000" fill-opacity="1"><g transform="translate(327.050116, 219.250427)"><g><path d="M 39.03125 -37.953125 L 20.0625 4.546875 C 18.519531 8.109375 16.738281 10.632812 14.71875 12.125 C 12.695312 13.613281 10.269531 14.359375 7.4375 14.359375 C 5.601562 14.359375 3.890625 14.066406 2.296875 13.484375 C 0.710938 12.910156 -0.648438 12.046875 -1.796875 10.890625 L 0.578125 7.078125 C 2.503906 8.992188 4.8125 9.953125 7.5 9.953125 C 9.238281 9.953125 10.71875 9.472656 11.9375 8.515625 C 13.164062 7.554688 14.3125 5.921875 15.375 3.609375 L 17.03125 -0.078125 L 0.078125 -37.953125 L 5.40625 -37.953125 L 19.703125 -5.703125 L 33.984375 -37.953125 Z M 39.03125 -37.953125 "/></g></g></g><g fill="#000000" fill-opacity="1"><g transform="translate(366.156513, 219.250427)"><g><path d="M 20.421875 -38.25 C 25.378906 -38.25 29.179688 -37.007812 31.828125 -34.53125 C 34.472656 -32.050781 35.796875 -28.378906 35.796875 -23.515625 L 35.796875 0 L 30.890625 0 L 30.890625 -5.921875 C 29.734375 -3.941406 28.035156 -2.398438 25.796875 -1.296875 C 23.554688 -0.191406 20.898438 0.359375 17.828125 0.359375 C 13.585938 0.359375 10.21875 -0.648438 7.71875 -2.671875 C 5.21875 -4.691406 3.96875 -7.359375 3.96875 -10.671875 C 3.96875 -13.898438 5.132812 -16.5 7.46875 -18.46875 C 9.800781 -20.445312 13.515625 -21.4375 18.609375 -21.4375 L 30.671875 -21.4375 L 30.671875 -23.734375 C 30.671875 -27.003906 29.753906 -29.492188 27.921875 -31.203125 C 26.097656 -32.910156 23.429688 -33.765625 19.921875 -33.765625 C 17.515625 -33.765625 15.203125 -33.367188 12.984375 -32.578125 C 10.773438 -31.785156 8.875 -30.691406 7.28125 -29.296875 L 4.984375 -33.125 C 6.898438 -34.757812 9.207031 -36.019531 11.90625 -36.90625 C 14.601562 -37.800781 17.441406 -38.25 20.421875 -38.25 Z M 18.609375 -3.6875 C 21.503906 -3.6875 23.984375 -4.347656 26.046875 -5.671875 C 28.117188 -6.992188 29.660156 -8.90625 30.671875 -11.40625 L 30.671875 -17.609375 L 18.765625 -17.609375 C 12.265625 -17.609375 9.015625 -15.347656 9.015625 -10.828125 C 9.015625 -8.609375 9.859375 -6.863281 11.546875 -5.59375 C 13.234375 -4.320312 15.585938 -3.6875 18.609375 -3.6875 Z M 18.609375 -3.6875 "/></g></g></g><g fill="#000000" fill-opacity="1"><g transform="translate(408.726237, 219.250427)"><g><path d="M 26.484375 -38.25 C 31.242188 -38.25 35.03125 -36.863281 37.84375 -34.09375 C 40.65625 -31.320312 42.0625 -27.289062 42.0625 -22 L 42.0625 0 L 36.9375 0 L 36.9375 -21.5 C 36.9375 -25.445312 35.953125 -28.453125 33.984375 -30.515625 C 32.015625 -32.585938 29.203125 -33.625 25.546875 -33.625 C 21.453125 -33.625 18.210938 -32.410156 15.828125 -29.984375 C 13.453125 -27.554688 12.265625 -24.203125 12.265625 -19.921875 L 12.265625 0 L 7.140625 0 L 7.140625 -37.953125 L 12.046875 -37.953125 L 12.046875 -30.953125 C 13.441406 -33.265625 15.378906 -35.054688 17.859375 -36.328125 C 20.335938 -37.609375 23.210938 -38.25 26.484375 -38.25 Z M 26.484375 -38.25 "/></g></g></g><g fill="#000000" fill-opacity="1"><g transform="translate(457.573186, 219.250427)"><g><path d="M 20.421875 -38.25 C 25.378906 -38.25 29.179688 -37.007812 31.828125 -34.53125 C 34.472656 -32.050781 35.796875 -28.378906 35.796875 -23.515625 L 35.796875 0 L 30.890625 0 L 30.890625 -5.921875 C 29.734375 -3.941406 28.035156 -2.398438 25.796875 -1.296875 C 23.554688 -0.191406 20.898438 0.359375 17.828125 0.359375 C 13.585938 0.359375 10.21875 -0.648438 7.71875 -2.671875 C 5.21875 -4.691406 3.96875 -7.359375 3.96875 -10.671875 C 3.96875 -13.898438 5.132812 -16.5 7.46875 -18.46875 C 9.800781 -20.445312 13.515625 -21.4375 18.609375 -21.4375 L 30.671875 -21.4375 L 30.671875 -23.734375 C 30.671875 -27.003906 29.753906 -29.492188 27.921875 -31.203125 C 26.097656 -32.910156 23.429688 -33.765625 19.921875 -33.765625 C 17.515625 -33.765625 15.203125 -33.367188 12.984375 -32.578125 C 10.773438 -31.785156 8.875 -30.691406 7.28125 -29.296875 L 4.984375 -33.125 C 6.898438 -34.757812 9.207031 -36.019531 11.90625 -36.90625 C 14.601562 -37.800781 17.441406 -38.25 20.421875 -38.25 Z M 18.609375 -3.6875 C 21.503906 -3.6875 23.984375 -4.347656 26.046875 -5.671875 C 28.117188 -6.992188 29.660156 -8.90625 30.671875 -11.40625 L 30.671875 -17.609375 L 18.765625 -17.609375 C 12.265625 -17.609375 9.015625 -15.347656 9.015625 -10.828125 C 9.015625 -8.609375 9.859375 -6.863281 11.546875 -5.59375 C 13.234375 -4.320312 15.585938 -3.6875 18.609375 -3.6875 Z M 18.609375 -3.6875 "/></g></g></g><g fill="#000000" fill-opacity="1"><g transform="translate(500.142911, 219.250427)"><g><path d="M 26.484375 -38.25 C 31.242188 -38.25 35.03125 -36.863281 37.84375 -34.09375 C 40.65625 -31.320312 42.0625 -27.289062 42.0625 -22 L 42.0625 0 L 36.9375 0 L 36.9375 -21.5 C 36.9375 -25.445312 35.953125 -28.453125 33.984375 -30.515625 C 32.015625 -32.585938 29.203125 -33.625 25.546875 -33.625 C 21.453125 -33.625 18.210938 -32.410156 15.828125 -29.984375 C 13.453125 -27.554688 12.265625 -24.203125 12.265625 -19.921875 L 12.265625 0 L 7.140625 0 L 7.140625 -37.953125 L 12.046875 -37.953125 L 12.046875 -30.953125 C 13.441406 -33.265625 15.378906 -35.054688 17.859375 -36.328125 C 20.335938 -37.609375 23.210938 -38.25 26.484375 -38.25 Z M 26.484375 -38.25 "/></g></g></g><g fill="#000000" fill-opacity="1"><g transform="translate(548.98986, 219.250427)"><g/></g></g><g fill="#000000" fill-opacity="1"><g transform="translate(567.893687, 219.250427)"><g><path d="M 40.046875 -26.046875 C 43.367188 -25.328125 45.929688 -23.894531 47.734375 -21.75 C 49.535156 -19.613281 50.4375 -16.863281 50.4375 -13.5 C 50.4375 -9.164062 48.835938 -5.832031 45.640625 -3.5 C 42.441406 -1.164062 37.710938 0 31.453125 0 L 8.21875 0 L 8.21875 -50.515625 L 30.015625 -50.515625 C 35.640625 -50.515625 40.003906 -49.382812 43.109375 -47.125 C 46.210938 -44.863281 47.765625 -41.660156 47.765625 -37.515625 C 47.765625 -34.734375 47.078125 -32.363281 45.703125 -30.40625 C 44.335938 -28.457031 42.453125 -27.003906 40.046875 -26.046875 Z M 13.5625 -46.109375 L 13.5625 -27.78125 L 29.65625 -27.78125 C 33.75 -27.78125 36.898438 -28.5625 39.109375 -30.125 C 41.316406 -31.6875 42.421875 -33.957031 42.421875 -36.9375 C 42.421875 -39.925781 41.316406 -42.203125 39.109375 -43.765625 C 36.898438 -45.328125 33.75 -46.109375 29.65625 -46.109375 Z M 31.390625 -4.40625 C 35.910156 -4.40625 39.320312 -5.171875 41.625 -6.703125 C 43.9375 -8.242188 45.09375 -10.648438 45.09375 -13.921875 C 45.09375 -20.222656 40.523438 -23.375 31.390625 -23.375 L 13.5625 -23.375 L 13.5625 -4.40625 Z M 31.390625 -4.40625 "/></g></g></g><g fill="#000000" fill-opacity="1"><g transform="translate(622.296322, 219.250427)"><g><path d="M 40.1875 -17.390625 L 8.4375 -17.390625 C 8.726562 -13.441406 10.242188 -10.253906 12.984375 -7.828125 C 15.722656 -5.398438 19.1875 -4.1875 23.375 -4.1875 C 25.738281 -4.1875 27.90625 -4.601562 29.875 -5.4375 C 31.84375 -6.28125 33.550781 -7.519531 35 -9.15625 L 37.875 -5.84375 C 36.195312 -3.820312 34.09375 -2.28125 31.5625 -1.21875 C 29.039062 -0.164062 26.265625 0.359375 23.234375 0.359375 C 19.335938 0.359375 15.882812 -0.46875 12.875 -2.125 C 9.875 -3.789062 7.53125 -6.085938 5.84375 -9.015625 C 4.15625 -11.953125 3.3125 -15.273438 3.3125 -18.984375 C 3.3125 -22.679688 4.117188 -26 5.734375 -28.9375 C 7.347656 -31.875 9.5625 -34.160156 12.375 -35.796875 C 15.1875 -37.429688 18.347656 -38.25 21.859375 -38.25 C 25.367188 -38.25 28.519531 -37.429688 31.3125 -35.796875 C 34.101562 -34.160156 36.289062 -31.882812 37.875 -28.96875 C 39.46875 -26.0625 40.265625 -22.734375 40.265625 -18.984375 Z M 21.859375 -33.84375 C 18.203125 -33.84375 15.132812 -32.675781 12.65625 -30.34375 C 10.1875 -28.007812 8.78125 -24.96875 8.4375 -21.21875 L 35.359375 -21.21875 C 35.015625 -24.96875 33.601562 -28.007812 31.125 -30.34375 C 28.65625 -32.675781 25.566406 -33.84375 21.859375 -33.84375 Z M 21.859375 -33.84375 "/></g></g></g><g fill="#000000" fill-opacity="1"><g transform="translate(665.876149, 219.250427)"><g><path d="M 12.046875 -30.515625 C 13.253906 -33.066406 15.046875 -34.992188 17.421875 -36.296875 C 19.804688 -37.597656 22.753906 -38.25 26.265625 -38.25 L 26.265625 -33.265625 L 25.03125 -33.34375 C 21.039062 -33.34375 17.914062 -32.113281 15.65625 -29.65625 C 13.394531 -27.195312 12.265625 -23.757812 12.265625 -19.34375 L 12.265625 0 L 7.140625 0 L 7.140625 -37.953125 L 12.046875 -37.953125 Z M 12.046875 -30.515625 "/></g></g></g><g fill="#000000" fill-opacity="1"><g transform="translate(694.809129, 219.250427)"><g><path d="M 17.3125 0.359375 C 14.238281 0.359375 11.289062 -0.0820312 8.46875 -0.96875 C 5.65625 -1.863281 3.457031 -2.984375 1.875 -4.328125 L 4.1875 -8.375 C 5.769531 -7.125 7.765625 -6.097656 10.171875 -5.296875 C 12.578125 -4.503906 15.078125 -4.109375 17.671875 -4.109375 C 21.140625 -4.109375 23.703125 -4.648438 25.359375 -5.734375 C 27.023438 -6.816406 27.859375 -8.34375 27.859375 -10.3125 C 27.859375 -11.707031 27.398438 -12.800781 26.484375 -13.59375 C 25.566406 -14.394531 24.410156 -15 23.015625 -15.40625 C 21.617188 -15.8125 19.769531 -16.207031 17.46875 -16.59375 C 14.382812 -17.175781 11.90625 -17.765625 10.03125 -18.359375 C 8.15625 -18.960938 6.554688 -19.984375 5.234375 -21.421875 C 3.910156 -22.867188 3.25 -24.867188 3.25 -27.421875 C 3.25 -30.597656 4.570312 -33.195312 7.21875 -35.21875 C 9.863281 -37.238281 13.539062 -38.25 18.25 -38.25 C 20.707031 -38.25 23.160156 -37.921875 25.609375 -37.265625 C 28.066406 -36.617188 30.085938 -35.765625 31.671875 -34.703125 L 29.4375 -30.59375 C 26.3125 -32.757812 22.582031 -33.84375 18.25 -33.84375 C 14.976562 -33.84375 12.515625 -33.265625 10.859375 -32.109375 C 9.203125 -30.953125 8.375 -29.4375 8.375 -27.5625 C 8.375 -26.125 8.84375 -24.96875 9.78125 -24.09375 C 10.71875 -23.226562 11.882812 -22.59375 13.28125 -22.1875 C 14.675781 -21.78125 16.597656 -21.359375 19.046875 -20.921875 C 22.078125 -20.347656 24.503906 -19.769531 26.328125 -19.1875 C 28.160156 -18.613281 29.722656 -17.628906 31.015625 -16.234375 C 32.316406 -14.835938 32.96875 -12.914062 32.96875 -10.46875 C 32.96875 -7.144531 31.582031 -4.507812 28.8125 -2.5625 C 26.050781 -0.613281 22.21875 0.359375 17.3125 0.359375 Z M 17.3125 0.359375 "/></g></g></g><g fill="#000000" fill-opacity="1"><g transform="translate(730.091486, 219.250427)"><g><path d="M 20.421875 -38.25 C 25.378906 -38.25 29.179688 -37.007812 31.828125 -34.53125 C 34.472656 -32.050781 35.796875 -28.378906 35.796875 -23.515625 L 35.796875 0 L 30.890625 0 L 30.890625 -5.921875 C 29.734375 -3.941406 28.035156 -2.398438 25.796875 -1.296875 C 23.554688 -0.191406 20.898438 0.359375 17.828125 0.359375 C 13.585938 0.359375 10.21875 -0.648438 7.71875 -2.671875 C 5.21875 -4.691406 3.96875 -7.359375 3.96875 -10.671875 C 3.96875 -13.898438 5.132812 -16.5 7.46875 -18.46875 C 9.800781 -20.445312 13.515625 -21.4375 18.609375 -21.4375 L 30.671875 -21.4375 L 30.671875 -23.734375 C 30.671875 -27.003906 29.753906 -29.492188 27.921875 -31.203125 C 26.097656 -32.910156 23.429688 -33.765625 19.921875 -33.765625 C 17.515625 -33.765625 15.203125 -33.367188 12.984375 -32.578125 C 10.773438 -31.785156 8.875 -30.691406 7.28125 -29.296875 L 4.984375 -33.125 C 6.898438 -34.757812 9.207031 -36.019531 11.90625 -36.90625 C 14.601562 -37.800781 17.441406 -38.25 20.421875 -38.25 Z M 18.609375 -3.6875 C 21.503906 -3.6875 23.984375 -4.347656 26.046875 -5.671875 C 28.117188 -6.992188 29.660156 -8.90625 30.671875 -11.40625 L 30.671875 -17.609375 L 18.765625 -17.609375 C 12.265625 -17.609375 9.015625 -15.347656 9.015625 -10.828125 C 9.015625 -8.609375 9.859375 -6.863281 11.546875 -5.59375 C 13.234375 -4.320312 15.585938 -3.6875 18.609375 -3.6875 Z M 18.609375 -3.6875 "/></g></g></g><g fill="#000000" fill-opacity="1"><g transform="translate(772.66121, 219.250427)"><g><path d="M 54.484375 -38.25 C 59.242188 -38.25 62.984375 -36.875 65.703125 -34.125 C 68.421875 -31.382812 69.78125 -27.34375 69.78125 -22 L 69.78125 0 L 64.65625 0 L 64.65625 -21.5 C 64.65625 -25.445312 63.703125 -28.453125 61.796875 -30.515625 C 59.898438 -32.585938 57.21875 -33.625 53.75 -33.625 C 49.8125 -33.625 46.710938 -32.410156 44.453125 -29.984375 C 42.191406 -27.554688 41.0625 -24.203125 41.0625 -19.921875 L 41.0625 0 L 35.9375 0 L 35.9375 -21.5 C 35.9375 -25.445312 34.984375 -28.453125 33.078125 -30.515625 C 31.179688 -32.585938 28.476562 -33.625 24.96875 -33.625 C 21.070312 -33.625 17.976562 -32.410156 15.6875 -29.984375 C 13.40625 -27.554688 12.265625 -24.203125 12.265625 -19.921875 L 12.265625 0 L 7.140625 0 L 7.140625 -37.953125 L 12.046875 -37.953125 L 12.046875 -31.03125 C 13.398438 -33.332031 15.273438 -35.109375 17.671875 -36.359375 C 20.078125 -37.617188 22.84375 -38.25 25.96875 -38.25 C 29.144531 -38.25 31.898438 -37.570312 34.234375 -36.21875 C 36.566406 -34.875 38.3125 -32.878906 39.46875 -30.234375 C 40.863281 -32.734375 42.867188 -34.691406 45.484375 -36.109375 C 48.109375 -37.535156 51.109375 -38.25 54.484375 -38.25 Z M 54.484375 -38.25 "/></g></g></g><g fill="#000000" fill-opacity="1"><g transform="translate(849.214547, 219.250427)"><g><path d="M 20.421875 -38.25 C 25.378906 -38.25 29.179688 -37.007812 31.828125 -34.53125 C 34.472656 -32.050781 35.796875 -28.378906 35.796875 -23.515625 L 35.796875 0 L 30.890625 0 L 30.890625 -5.921875 C 29.734375 -3.941406 28.035156 -2.398438 25.796875 -1.296875 C 23.554688 -0.191406 20.898438 0.359375 17.828125 0.359375 C 13.585938 0.359375 10.21875 -0.648438 7.71875 -2.671875 C 5.21875 -4.691406 3.96875 -7.359375 3.96875 -10.671875 C 3.96875 -13.898438 5.132812 -16.5 7.46875 -18.46875 C 9.800781 -20.445312 13.515625 -21.4375 18.609375 -21.4375 L 30.671875 -21.4375 L 30.671875 -23.734375 C 30.671875 -27.003906 29.753906 -29.492188 27.921875 -31.203125 C 26.097656 -32.910156 23.429688 -33.765625 19.921875 -33.765625 C 17.515625 -33.765625 15.203125 -33.367188 12.984375 -32.578125 C 10.773438 -31.785156 8.875 -30.691406 7.28125 -29.296875 L 4.984375 -33.125 C 6.898438 -34.757812 9.207031 -36.019531 11.90625 -36.90625 C 14.601562 -37.800781 17.441406 -38.25 20.421875 -38.25 Z M 18.609375 -3.6875 C 21.503906 -3.6875 23.984375 -4.347656 26.046875 -5.671875 C 28.117188 -6.992188 29.660156 -8.90625 30.671875 -11.40625 L 30.671875 -17.609375 L 18.765625 -17.609375 C 12.265625 -17.609375 9.015625 -15.347656 9.015625 -10.828125 C 9.015625 -8.609375 9.859375 -6.863281 11.546875 -5.59375 C 13.234375 -4.320312 15.585938 -3.6875 18.609375 -3.6875 Z M 18.609375 -3.6875 "/></g></g></g></g></g></g></g></g></g></mask><clipPath id="cd8f70a08d"><path d="M 96.917969 7.675781 L 1034.226562 7.675781 L 1034.226562 381.621094 L 96.917969 381.621094 Z M 96.917969 7.675781 " clip-rule="nonzero"/></clipPath><clipPath id="e19da46e56"><rect x="0" width="1134" y="0" height="390"/></clipPath><clipPath id="90216e36f7"><rect x="0" width="1134" y="0" height="390"/></clipPath><clipPath id="fd32261798"><rect x="0" width="1134" y="0" height="390"/></clipPath></defs><path fill="#008037" d="M 287.9375 373.757812 C 329.847656 310.855469 388.113281 251.957031 466.25 187.140625 C 535.160156 150.761719 543.675781 212.851562 514.523438 255.039062 C 487.015625 284.0625 460.375 308.316406 437.328125 342.007812 C 428.824219 373.90625 462.027344 372 485.128906 368.917969 C 597.085938 339.75 697.457031 283.34375 809.214844 255.027344 C 873.671875 250.652344 841.628906 312.121094 805.765625 330.914062 C 758.898438 347.503906 619.148438 378.578125 593.058594 419.113281 C 586.726562 437.347656 602.1875 436.550781 616.496094 434.667969 C 647.027344 426.472656 677.554688 418.28125 708.085938 410.089844 C 740.292969 399.527344 772.496094 388.960938 804.703125 378.398438 C 835.480469 371.359375 868.359375 359.308594 897.066406 379.773438 C 899.285156 382.867188 901.5 385.957031 903.714844 389.050781 C 912.027344 427.515625 884.519531 429.964844 849.417969 440.863281 C 831.617188 447.726562 813.824219 454.59375 796.023438 461.460938 C 772.53125 468.574219 749.039062 475.6875 725.546875 482.804688 C 704.640625 488.429688 683.734375 494.054688 662.832031 499.675781 C 656.570312 501.679688 650.3125 503.679688 644.054688 505.679688 C 624.359375 523.847656 640.03125 528.210938 657.210938 530.339844 C 665.894531 529.710938 674.582031 529.082031 683.265625 528.453125 C 704.792969 524.226562 943.828125 470.515625 913.378906 536.128906 C 905.328125 546.203125 899.78125 551.8125 887.171875 556.453125 C 749.199219 595.511719 651.945312 666.503906 589.507812 482.945312 C 584.972656 469.144531 580.4375 455.339844 575.902344 441.539062 C 568.613281 423.105469 558.667969 366.949219 529.128906 382.859375 C 527.863281 385.300781 526.597656 387.746094 525.332031 390.191406 C 522.816406 402.726562 526.953125 414.363281 529.398438 426.851562 C 533.746094 444.363281 538.097656 461.875 542.449219 479.386719 C 542.644531 483.917969 542.839844 488.453125 543.035156 492.984375 C 540.742188 501.71875 533.746094 501.433594 527.757812 497.269531 C 526.15625 495.359375 524.550781 493.449219 522.945312 491.539062 C 517.449219 485.363281 511.957031 479.1875 506.464844 473.011719 C 500.65625 467.257812 494.855469 461.507812 489.050781 455.753906 C 477.839844 446.324219 439.714844 401.480469 420.003906 410.558594 C 408.605469 415.8125 409.285156 426.714844 414.398438 435.628906 C 429.652344 462.203125 460.367188 487.132812 480.363281 508.75 C 482.753906 511.621094 485.148438 514.484375 487.542969 517.355469 C 490.960938 523.558594 490.738281 527.167969 483.207031 525.109375 C 477.375 523.515625 470.785156 518.15625 465.546875 515.007812 C 445.707031 502.132812 390.914062 449.90625 366.855469 466.777344 C 355.660156 479.558594 365.1875 491.289062 375.097656 501.378906 C 390.414062 513.570312 405.730469 525.765625 421.050781 537.957031 C 434.054688 547.328125 447.0625 556.695312 460.066406 566.066406 C 463.03125 569.988281 466.0625 577.726562 457.347656 577.136719 C 453.765625 576.890625 450.183594 576.644531 446.601562 576.394531 C 436.800781 575.816406 427 575.238281 417.203125 574.660156 C 396.304688 571.199219 376.972656 568.144531 356.902344 561.484375 C 347.027344 561.210938 334.085938 558.882812 329.167969 570.308594 C 328.59375 572.988281 328.023438 575.667969 327.453125 578.351562 C 329.269531 593.015625 354.996094 599.792969 366.335938 603.4375 C 373.421875 606 380.511719 608.5625 387.601562 611.125 C 399.457031 615.527344 411.316406 619.929688 423.171875 624.332031 C 453.886719 631.203125 472.910156 638.542969 497.273438 657.53125 C 505 666.132812 509.65625 671.304688 506.242188 682.484375 C 469.570312 727.410156 406.789062 723.257812 355.542969 719.796875 C 190.042969 686.832031 196.808594 482.222656 287.9375 373.757812 " fill-opacity="1" fill-rule="evenodd"/><g transform="matrix(1, 0, 0, 1, 0, 538)"><g clip-path="url(#d4c079aebf)"><g clip-path="url(#ea04482282)"><g transform="matrix(1, 0, 0, 1, 0, -0.000000000000341061)"><g clip-path="url(#52af09b9c2)"><g clip-path="url(#cc45a01232)"><g mask="url(#8204fca08a)"><g transform="matrix(1, 0, 0, 1, 0, -0.000000000000341061)"><g clip-path="url(#46ddd682e5)"><g clip-path="url(#b88fe17ca2)"><path fill="url(#c7deb52912)" d="M 30.808594 8.203125 L 30.808594 569.792969 L 1104.984375 569.792969 L 1104.984375 8.203125 Z M 30.808594 8.203125 " fill-rule="nonzero"/></g></g></g></g></g></g></g></g></g></g><g transform="matrix(1, 0, 0, 1, 0, 744)"><g clip-path="url(#fd32261798)"><g clip-path="url(#65e314a24f)"><g transform="matrix(1, 0, 0, 1, 0, -0.000000000000227374)"><g clip-path="url(#90216e36f7)"><g clip-path="url(#8d1588eb43)"><g mask="url(#18641e86a4)"><g transform="matrix(1, 0, 0, 1, 0, -0.000000000000227374)"><g clip-path="url(#e19da46e56)"><g clip-path="url(#cd8f70a08d)"><path fill="url(#ab05dd578e)" d="M 96.917969 7.675781 L 96.917969 381.621094 L 1034.226562 381.621094 L 1034.226562 7.675781 Z M 96.917969 7.675781 " fill-rule="nonzero"/></g></g></g></g></g></g></g></g></g></g></svg>