<svg xmlns="http://www.w3.org/2000/svg" xmlns:xlink="http://www.w3.org/1999/xlink" width="1512" zoomAndPan="magnify" viewBox="0 0 1134 1133.999944" height="1512" preserveAspectRatio="xMidYMid meet" version="1.0"><defs><g/><clipPath id="04dbaed21c"><rect x="0" width="574" y="0" height="117"/></clipPath><clipPath id="f87c116ef8"><rect x="0" width="579" y="0" height="77"/></clipPath></defs><path fill="#ffffff" d="M 320.691406 396.441406 C 357.683594 340.925781 409.105469 288.945312 478.070312 231.738281 C 538.886719 199.628906 546.402344 254.429688 520.671875 291.664062 C 496.394531 317.28125 472.882812 338.6875 452.542969 368.421875 C 445.035156 396.574219 474.339844 394.890625 494.730469 392.171875 C 593.542969 366.429688 682.125 316.644531 780.761719 291.652344 C 837.648438 287.792969 809.371094 342.042969 777.71875 358.628906 C 736.351562 373.273438 613.015625 400.695312 589.988281 436.472656 C 584.398438 452.566406 598.042969 451.863281 610.671875 450.199219 C 637.617188 442.96875 664.5625 435.738281 691.507812 428.507812 C 719.933594 419.1875 748.355469 409.863281 776.78125 400.539062 C 803.941406 394.324219 832.960938 383.691406 858.300781 401.75 C 860.257812 404.480469 862.210938 407.210938 864.167969 409.941406 C 871.503906 443.886719 847.226562 446.050781 816.242188 455.667969 C 800.535156 461.726562 784.828125 467.789062 769.121094 473.847656 C 748.386719 480.125 727.652344 486.40625 706.917969 492.683594 C 688.464844 497.648438 670.015625 502.613281 651.566406 507.578125 C 646.042969 509.34375 640.519531 511.109375 634.996094 512.875 C 617.613281 528.910156 631.445312 532.757812 646.609375 534.636719 C 654.273438 534.082031 661.9375 533.527344 669.601562 532.972656 C 688.601562 529.242188 899.570312 481.839844 872.695312 539.75 C 865.589844 548.640625 860.695312 553.589844 849.5625 557.6875 C 727.792969 592.160156 641.960938 654.816406 586.855469 492.808594 C 582.851562 480.628906 578.847656 468.445312 574.84375 456.265625 C 568.414062 439.996094 559.636719 390.433594 533.5625 404.476562 C 532.445312 406.632812 531.332031 408.789062 530.214844 410.945312 C 527.992188 422.011719 531.644531 432.28125 533.800781 443.300781 C 537.640625 458.757812 541.480469 474.214844 545.320312 489.667969 C 545.492188 493.667969 545.664062 497.671875 545.835938 501.667969 C 543.8125 509.378906 537.640625 509.128906 532.355469 505.449219 C 530.9375 503.765625 529.523438 502.078125 528.105469 500.394531 C 523.257812 494.941406 518.410156 489.492188 513.5625 484.042969 C 508.4375 478.964844 503.3125 473.890625 498.191406 468.8125 C 488.296875 460.488281 454.648438 420.910156 437.253906 428.921875 C 427.191406 433.558594 427.792969 443.179688 432.308594 451.050781 C 445.765625 474.503906 472.878906 496.503906 490.527344 515.585938 C 492.636719 518.117188 494.75 520.648438 496.859375 523.179688 C 499.878906 528.652344 499.683594 531.839844 493.035156 530.023438 C 487.886719 528.617188 482.074219 523.886719 477.445312 521.105469 C 459.9375 509.742188 411.578125 463.648438 390.34375 478.539062 C 380.464844 489.820312 388.875 500.171875 397.617188 509.078125 C 411.136719 519.839844 424.65625 530.601562 438.175781 541.363281 C 449.65625 549.632812 461.132812 557.902344 472.613281 566.171875 C 475.230469 569.632812 477.902344 576.464844 470.210938 575.941406 C 467.050781 575.722656 463.890625 575.507812 460.726562 575.289062 C 452.078125 574.777344 443.429688 574.265625 434.78125 573.757812 C 416.335938 570.699219 399.273438 568.007812 381.5625 562.125 C 372.84375 561.886719 361.425781 559.832031 357.082031 569.917969 C 356.578125 572.28125 356.070312 574.644531 355.566406 577.011719 C 357.171875 589.957031 379.878906 595.9375 389.886719 599.152344 C 396.140625 601.414062 402.398438 603.675781 408.65625 605.9375 C 419.121094 609.824219 429.585938 613.710938 440.050781 617.597656 C 467.15625 623.65625 483.945312 630.136719 505.449219 646.894531 C 512.269531 654.488281 516.378906 659.054688 513.367188 668.917969 C 481 708.570312 425.589844 704.90625 380.363281 701.851562 C 234.292969 672.757812 240.265625 492.171875 320.691406 396.441406 " fill-opacity="1" fill-rule="evenodd"/><g transform="matrix(1, 0, 0, 1, 279, 738)"><g clip-path="url(#04dbaed21c)"><g fill="#ffffff" fill-opacity="1"><g transform="translate(4.267781, 90.059609)"><g><path d="M 29.671875 1.140625 C 24.421875 1.140625 19.347656 0.429688 14.453125 -0.984375 C 9.554688 -2.410156 5.625 -4.265625 2.65625 -6.546875 L 7.875 -18.109375 C 10.71875 -16.023438 14.097656 -14.347656 18.015625 -13.078125 C 21.929688 -11.816406 25.847656 -11.1875 29.765625 -11.1875 C 34.128906 -11.1875 37.351562 -11.832031 39.4375 -13.125 C 41.519531 -14.425781 42.5625 -16.148438 42.5625 -18.296875 C 42.5625 -19.878906 41.941406 -21.191406 40.703125 -22.234375 C 39.472656 -23.273438 37.894531 -24.109375 35.96875 -24.734375 C 34.039062 -25.367188 31.4375 -26.066406 28.15625 -26.828125 C 23.101562 -28.023438 18.960938 -29.222656 15.734375 -30.421875 C 12.515625 -31.628906 9.75 -33.554688 7.4375 -36.203125 C 5.132812 -38.859375 3.984375 -42.398438 3.984375 -46.828125 C 3.984375 -50.679688 5.023438 -54.171875 7.109375 -57.296875 C 9.191406 -60.429688 12.332031 -62.914062 16.53125 -64.75 C 20.738281 -66.582031 25.878906 -67.5 31.953125 -67.5 C 36.179688 -67.5 40.316406 -66.992188 44.359375 -65.984375 C 48.410156 -64.972656 51.953125 -63.519531 54.984375 -61.625 L 50.25 -49.953125 C 44.113281 -53.429688 37.984375 -55.171875 31.859375 -55.171875 C 27.554688 -55.171875 24.378906 -54.472656 22.328125 -53.078125 C 20.273438 -51.691406 19.25 -49.863281 19.25 -47.59375 C 19.25 -45.3125 20.429688 -43.617188 22.796875 -42.515625 C 25.171875 -41.410156 28.789062 -40.320312 33.65625 -39.25 C 38.707031 -38.039062 42.84375 -36.835938 46.0625 -35.640625 C 49.289062 -34.441406 52.054688 -32.546875 54.359375 -29.953125 C 56.671875 -27.359375 57.828125 -23.851562 57.828125 -19.4375 C 57.828125 -15.644531 56.765625 -12.179688 54.640625 -9.046875 C 52.523438 -5.921875 49.347656 -3.441406 45.109375 -1.609375 C 40.878906 0.222656 35.734375 1.140625 29.671875 1.140625 Z M 29.671875 1.140625 "/></g></g></g><g fill="#ffffff" fill-opacity="1"><g transform="translate(64.752871, 90.059609)"><g><path d="M 7.875 -66.359375 L 23.21875 -66.359375 L 23.21875 0 L 7.875 0 Z M 7.875 -66.359375 "/></g></g></g><g fill="#ffffff" fill-opacity="1"><g transform="translate(95.848654, 90.059609)"><g><path d="M 4.921875 -32.609375 L 31.75 -32.609375 L 31.75 -20.765625 L 4.921875 -20.765625 Z M 4.921875 -32.609375 "/></g></g></g><g fill="#ffffff" fill-opacity="1"><g transform="translate(132.443118, 90.059609)"><g/></g></g><g fill="#ffffff" fill-opacity="1"><g transform="translate(159.272717, 90.059609)"><g><path d="M 36.59375 -66.359375 C 42.46875 -66.359375 47.566406 -65.378906 51.890625 -63.421875 C 56.222656 -61.460938 59.554688 -58.679688 61.890625 -55.078125 C 64.234375 -51.472656 65.40625 -47.207031 65.40625 -42.28125 C 65.40625 -37.414062 64.234375 -33.164062 61.890625 -29.53125 C 59.554688 -25.894531 56.222656 -23.113281 51.890625 -21.1875 C 47.566406 -19.257812 42.46875 -18.296875 36.59375 -18.296875 L 23.21875 -18.296875 L 23.21875 0 L 7.875 0 L 7.875 -66.359375 Z M 35.734375 -30.8125 C 40.347656 -30.8125 43.851562 -31.804688 46.25 -33.796875 C 48.65625 -35.785156 49.859375 -38.613281 49.859375 -42.28125 C 49.859375 -46.007812 48.65625 -48.867188 46.25 -50.859375 C 43.851562 -52.847656 40.347656 -53.84375 35.734375 -53.84375 L 23.21875 -53.84375 L 23.21875 -30.8125 Z M 35.734375 -30.8125 "/></g></g></g><g fill="#ffffff" fill-opacity="1"><g transform="translate(228.669438, 90.059609)"><g><path d="M 40 1.140625 C 33.113281 1.140625 26.90625 -0.34375 21.375 -3.3125 C 15.84375 -6.28125 11.515625 -10.375 8.390625 -15.59375 C 5.265625 -20.8125 3.703125 -26.671875 3.703125 -33.171875 C 3.703125 -39.679688 5.265625 -45.539062 8.390625 -50.75 C 11.515625 -55.96875 15.84375 -60.0625 21.375 -63.03125 C 26.90625 -66.007812 33.113281 -67.5 40 -67.5 C 46.894531 -67.5 53.085938 -66.007812 58.578125 -63.03125 C 64.078125 -60.0625 68.40625 -55.96875 71.5625 -50.75 C 74.726562 -45.539062 76.3125 -39.679688 76.3125 -33.171875 C 76.3125 -26.671875 74.726562 -20.8125 71.5625 -15.59375 C 68.40625 -10.375 64.078125 -6.28125 58.578125 -3.3125 C 53.085938 -0.34375 46.894531 1.140625 40 1.140625 Z M 40 -11.9375 C 43.914062 -11.9375 47.453125 -12.835938 50.609375 -14.640625 C 53.773438 -16.441406 56.257812 -18.953125 58.0625 -22.171875 C 59.863281 -25.398438 60.765625 -29.066406 60.765625 -33.171875 C 60.765625 -37.285156 59.863281 -40.953125 58.0625 -44.171875 C 56.257812 -47.398438 53.773438 -49.910156 50.609375 -51.703125 C 47.453125 -53.503906 43.914062 -54.40625 40 -54.40625 C 36.082031 -54.40625 32.539062 -53.503906 29.375 -51.703125 C 26.21875 -49.910156 23.738281 -47.398438 21.9375 -44.171875 C 20.144531 -40.953125 19.25 -37.285156 19.25 -33.171875 C 19.25 -29.066406 20.144531 -25.398438 21.9375 -22.171875 C 23.738281 -18.953125 26.21875 -16.441406 29.375 -14.640625 C 32.539062 -12.835938 36.082031 -11.9375 40 -11.9375 Z M 40 -11.9375 "/></g></g></g><g fill="#ffffff" fill-opacity="1"><g transform="translate(308.68421, 90.059609)"><g><path d="M 29.671875 1.140625 C 24.421875 1.140625 19.347656 0.429688 14.453125 -0.984375 C 9.554688 -2.410156 5.625 -4.265625 2.65625 -6.546875 L 7.875 -18.109375 C 10.71875 -16.023438 14.097656 -14.347656 18.015625 -13.078125 C 21.929688 -11.816406 25.847656 -11.1875 29.765625 -11.1875 C 34.128906 -11.1875 37.351562 -11.832031 39.4375 -13.125 C 41.519531 -14.425781 42.5625 -16.148438 42.5625 -18.296875 C 42.5625 -19.878906 41.941406 -21.191406 40.703125 -22.234375 C 39.472656 -23.273438 37.894531 -24.109375 35.96875 -24.734375 C 34.039062 -25.367188 31.4375 -26.066406 28.15625 -26.828125 C 23.101562 -28.023438 18.960938 -29.222656 15.734375 -30.421875 C 12.515625 -31.628906 9.75 -33.554688 7.4375 -36.203125 C 5.132812 -38.859375 3.984375 -42.398438 3.984375 -46.828125 C 3.984375 -50.679688 5.023438 -54.171875 7.109375 -57.296875 C 9.191406 -60.429688 12.332031 -62.914062 16.53125 -64.75 C 20.738281 -66.582031 25.878906 -67.5 31.953125 -67.5 C 36.179688 -67.5 40.316406 -66.992188 44.359375 -65.984375 C 48.410156 -64.972656 51.953125 -63.519531 54.984375 -61.625 L 50.25 -49.953125 C 44.113281 -53.429688 37.984375 -55.171875 31.859375 -55.171875 C 27.554688 -55.171875 24.378906 -54.472656 22.328125 -53.078125 C 20.273438 -51.691406 19.25 -49.863281 19.25 -47.59375 C 19.25 -45.3125 20.429688 -43.617188 22.796875 -42.515625 C 25.171875 -41.410156 28.789062 -40.320312 33.65625 -39.25 C 38.707031 -38.039062 42.84375 -36.835938 46.0625 -35.640625 C 49.289062 -34.441406 52.054688 -32.546875 54.359375 -29.953125 C 56.671875 -27.359375 57.828125 -23.851562 57.828125 -19.4375 C 57.828125 -15.644531 56.765625 -12.179688 54.640625 -9.046875 C 52.523438 -5.921875 49.347656 -3.441406 45.109375 -1.609375 C 40.878906 0.222656 35.734375 1.140625 29.671875 1.140625 Z M 29.671875 1.140625 "/></g></g></g><g fill="#ffffff" fill-opacity="1"><g transform="translate(369.1693, 90.059609)"><g><path d="M 7.875 -66.359375 L 38.015625 -66.359375 C 45.222656 -66.359375 51.585938 -64.984375 57.109375 -62.234375 C 62.640625 -59.484375 66.9375 -55.609375 70 -50.609375 C 73.070312 -45.617188 74.609375 -39.804688 74.609375 -33.171875 C 74.609375 -26.535156 73.070312 -20.722656 70 -15.734375 C 66.9375 -10.742188 62.640625 -6.875 57.109375 -4.125 C 51.585938 -1.375 45.222656 0 38.015625 0 L 7.875 0 Z M 37.25 -12.609375 C 43.882812 -12.609375 49.175781 -14.457031 53.125 -18.15625 C 57.082031 -21.851562 59.0625 -26.859375 59.0625 -33.171875 C 59.0625 -39.492188 57.082031 -44.503906 53.125 -48.203125 C 49.175781 -51.898438 43.882812 -53.75 37.25 -53.75 L 23.21875 -53.75 L 23.21875 -12.609375 Z M 37.25 -12.609375 "/></g></g></g><g fill="#ffffff" fill-opacity="1"><g transform="translate(447.477596, 90.059609)"><g><path d="M 59.25 -12.328125 L 59.25 0 L 7.875 0 L 7.875 -66.359375 L 58.015625 -66.359375 L 58.015625 -54.03125 L 23.125 -54.03125 L 23.125 -39.625 L 53.9375 -39.625 L 53.9375 -27.6875 L 23.125 -27.6875 L 23.125 -12.328125 Z M 59.25 -12.328125 "/></g></g></g><g fill="#ffffff" fill-opacity="1"><g transform="translate(511.091238, 90.059609)"><g><path d="M 29.671875 1.140625 C 24.421875 1.140625 19.347656 0.429688 14.453125 -0.984375 C 9.554688 -2.410156 5.625 -4.265625 2.65625 -6.546875 L 7.875 -18.109375 C 10.71875 -16.023438 14.097656 -14.347656 18.015625 -13.078125 C 21.929688 -11.816406 25.847656 -11.1875 29.765625 -11.1875 C 34.128906 -11.1875 37.351562 -11.832031 39.4375 -13.125 C 41.519531 -14.425781 42.5625 -16.148438 42.5625 -18.296875 C 42.5625 -19.878906 41.941406 -21.191406 40.703125 -22.234375 C 39.472656 -23.273438 37.894531 -24.109375 35.96875 -24.734375 C 34.039062 -25.367188 31.4375 -26.066406 28.15625 -26.828125 C 23.101562 -28.023438 18.960938 -29.222656 15.734375 -30.421875 C 12.515625 -31.628906 9.75 -33.554688 7.4375 -36.203125 C 5.132812 -38.859375 3.984375 -42.398438 3.984375 -46.828125 C 3.984375 -50.679688 5.023438 -54.171875 7.109375 -57.296875 C 9.191406 -60.429688 12.332031 -62.914062 16.53125 -64.75 C 20.738281 -66.582031 25.878906 -67.5 31.953125 -67.5 C 36.179688 -67.5 40.316406 -66.992188 44.359375 -65.984375 C 48.410156 -64.972656 51.953125 -63.519531 54.984375 -61.625 L 50.25 -49.953125 C 44.113281 -53.429688 37.984375 -55.171875 31.859375 -55.171875 C 27.554688 -55.171875 24.378906 -54.472656 22.328125 -53.078125 C 20.273438 -51.691406 19.25 -49.863281 19.25 -47.59375 C 19.25 -45.3125 20.429688 -43.617188 22.796875 -42.515625 C 25.171875 -41.410156 28.789062 -40.320312 33.65625 -39.25 C 38.707031 -38.039062 42.84375 -36.835938 46.0625 -35.640625 C 49.289062 -34.441406 52.054688 -32.546875 54.359375 -29.953125 C 56.671875 -27.359375 57.828125 -23.851562 57.828125 -19.4375 C 57.828125 -15.644531 56.765625 -12.179688 54.640625 -9.046875 C 52.523438 -5.921875 49.347656 -3.441406 45.109375 -1.609375 C 40.878906 0.222656 35.734375 1.140625 29.671875 1.140625 Z M 29.671875 1.140625 "/></g></g></g></g></g><g transform="matrix(1, 0, 0, 1, 277, 858)"><g clip-path="url(#f87c116ef8)"><g fill="#ffffff" fill-opacity="1"><g transform="translate(3.140365, 58.711703)"><g><path d="M 7.265625 -44.578125 L 11.96875 -44.578125 L 11.96875 -4.078125 L 36.9375 -4.078125 L 36.9375 0 L 7.265625 0 Z M 7.265625 -44.578125 "/></g></g></g><g fill="#ffffff" fill-opacity="1"><g transform="translate(40.647567, 58.711703)"><g><path d="M 18.03125 -33.75 C 22.394531 -33.75 25.742188 -32.65625 28.078125 -30.46875 C 30.421875 -28.28125 31.59375 -25.046875 31.59375 -20.765625 L 31.59375 0 L 27.265625 0 L 27.265625 -5.21875 C 26.242188 -3.476562 24.742188 -2.117188 22.765625 -1.140625 C 20.796875 -0.171875 18.453125 0.3125 15.734375 0.3125 C 11.992188 0.3125 9.019531 -0.578125 6.8125 -2.359375 C 4.601562 -4.140625 3.5 -6.492188 3.5 -9.421875 C 3.5 -12.265625 4.53125 -14.554688 6.59375 -16.296875 C 8.65625 -18.046875 11.9375 -18.921875 16.4375 -18.921875 L 27.0625 -18.921875 L 27.0625 -20.953125 C 27.0625 -23.835938 26.253906 -26.035156 24.640625 -27.546875 C 23.035156 -29.054688 20.679688 -29.8125 17.578125 -29.8125 C 15.453125 -29.8125 13.410156 -29.457031 11.453125 -28.75 C 9.503906 -28.050781 7.832031 -27.085938 6.4375 -25.859375 L 4.390625 -29.234375 C 6.085938 -30.671875 8.125 -31.78125 10.5 -32.5625 C 12.882812 -33.351562 15.394531 -33.75 18.03125 -33.75 Z M 16.4375 -3.25 C 18.976562 -3.25 21.160156 -3.832031 22.984375 -5 C 24.816406 -6.164062 26.175781 -7.851562 27.0625 -10.0625 L 27.0625 -15.546875 L 16.5625 -15.546875 C 10.832031 -15.546875 7.96875 -13.546875 7.96875 -9.546875 C 7.96875 -7.597656 8.707031 -6.0625 10.1875 -4.9375 C 11.675781 -3.8125 13.757812 -3.25 16.4375 -3.25 Z M 16.4375 -3.25 "/></g></g></g><g fill="#ffffff" fill-opacity="1"><g transform="translate(78.218448, 58.711703)"><g><path d="M 34.453125 -33.5 L 17.703125 4.015625 C 16.347656 7.148438 14.773438 9.375 12.984375 10.6875 C 11.203125 12.007812 9.0625 12.671875 6.5625 12.671875 C 4.945312 12.671875 3.4375 12.414062 2.03125 11.90625 C 0.632812 11.394531 -0.570312 10.628906 -1.59375 9.609375 L 0.515625 6.234375 C 2.210938 7.929688 4.25 8.78125 6.625 8.78125 C 8.15625 8.78125 9.460938 8.351562 10.546875 7.5 C 11.628906 6.65625 12.632812 5.21875 13.5625 3.1875 L 15.03125 -0.0625 L 0.0625 -33.5 L 4.78125 -33.5 L 17.390625 -5.03125 L 30 -33.5 Z M 34.453125 -33.5 "/></g></g></g><g fill="#ffffff" fill-opacity="1"><g transform="translate(112.732691, 58.711703)"><g><path d="M 18.03125 -33.75 C 22.394531 -33.75 25.742188 -32.65625 28.078125 -30.46875 C 30.421875 -28.28125 31.59375 -25.046875 31.59375 -20.765625 L 31.59375 0 L 27.265625 0 L 27.265625 -5.21875 C 26.242188 -3.476562 24.742188 -2.117188 22.765625 -1.140625 C 20.796875 -0.171875 18.453125 0.3125 15.734375 0.3125 C 11.992188 0.3125 9.019531 -0.578125 6.8125 -2.359375 C 4.601562 -4.140625 3.5 -6.492188 3.5 -9.421875 C 3.5 -12.265625 4.53125 -14.554688 6.59375 -16.296875 C 8.65625 -18.046875 11.9375 -18.921875 16.4375 -18.921875 L 27.0625 -18.921875 L 27.0625 -20.953125 C 27.0625 -23.835938 26.253906 -26.035156 24.640625 -27.546875 C 23.035156 -29.054688 20.679688 -29.8125 17.578125 -29.8125 C 15.453125 -29.8125 13.410156 -29.457031 11.453125 -28.75 C 9.503906 -28.050781 7.832031 -27.085938 6.4375 -25.859375 L 4.390625 -29.234375 C 6.085938 -30.671875 8.125 -31.78125 10.5 -32.5625 C 12.882812 -33.351562 15.394531 -33.75 18.03125 -33.75 Z M 16.4375 -3.25 C 18.976562 -3.25 21.160156 -3.832031 22.984375 -5 C 24.816406 -6.164062 26.175781 -7.851562 27.0625 -10.0625 L 27.0625 -15.546875 L 16.5625 -15.546875 C 10.832031 -15.546875 7.96875 -13.546875 7.96875 -9.546875 C 7.96875 -7.597656 8.707031 -6.0625 10.1875 -4.9375 C 11.675781 -3.8125 13.757812 -3.25 16.4375 -3.25 Z M 16.4375 -3.25 "/></g></g></g><g fill="#ffffff" fill-opacity="1"><g transform="translate(150.303573, 58.711703)"><g><path d="M 23.375 -33.75 C 27.570312 -33.75 30.910156 -32.53125 33.390625 -30.09375 C 35.878906 -27.65625 37.125 -24.097656 37.125 -19.421875 L 37.125 0 L 32.609375 0 L 32.609375 -18.984375 C 32.609375 -22.460938 31.738281 -25.113281 30 -26.9375 C 28.257812 -28.757812 25.773438 -29.671875 22.546875 -29.671875 C 18.929688 -29.671875 16.070312 -28.597656 13.96875 -26.453125 C 11.875 -24.316406 10.828125 -21.359375 10.828125 -17.578125 L 10.828125 0 L 6.3125 0 L 6.3125 -33.5 L 10.640625 -33.5 L 10.640625 -27.328125 C 11.867188 -29.359375 13.578125 -30.9375 15.765625 -32.0625 C 17.953125 -33.1875 20.488281 -33.75 23.375 -33.75 Z M 23.375 -33.75 "/></g></g></g><g fill="#ffffff" fill-opacity="1"><g transform="translate(193.414562, 58.711703)"><g><path d="M 18.03125 -33.75 C 22.394531 -33.75 25.742188 -32.65625 28.078125 -30.46875 C 30.421875 -28.28125 31.59375 -25.046875 31.59375 -20.765625 L 31.59375 0 L 27.265625 0 L 27.265625 -5.21875 C 26.242188 -3.476562 24.742188 -2.117188 22.765625 -1.140625 C 20.796875 -0.171875 18.453125 0.3125 15.734375 0.3125 C 11.992188 0.3125 9.019531 -0.578125 6.8125 -2.359375 C 4.601562 -4.140625 3.5 -6.492188 3.5 -9.421875 C 3.5 -12.265625 4.53125 -14.554688 6.59375 -16.296875 C 8.65625 -18.046875 11.9375 -18.921875 16.4375 -18.921875 L 27.0625 -18.921875 L 27.0625 -20.953125 C 27.0625 -23.835938 26.253906 -26.035156 24.640625 -27.546875 C 23.035156 -29.054688 20.679688 -29.8125 17.578125 -29.8125 C 15.453125 -29.8125 13.410156 -29.457031 11.453125 -28.75 C 9.503906 -28.050781 7.832031 -27.085938 6.4375 -25.859375 L 4.390625 -29.234375 C 6.085938 -30.671875 8.125 -31.78125 10.5 -32.5625 C 12.882812 -33.351562 15.394531 -33.75 18.03125 -33.75 Z M 16.4375 -3.25 C 18.976562 -3.25 21.160156 -3.832031 22.984375 -5 C 24.816406 -6.164062 26.175781 -7.851562 27.0625 -10.0625 L 27.0625 -15.546875 L 16.5625 -15.546875 C 10.832031 -15.546875 7.96875 -13.546875 7.96875 -9.546875 C 7.96875 -7.597656 8.707031 -6.0625 10.1875 -4.9375 C 11.675781 -3.8125 13.757812 -3.25 16.4375 -3.25 Z M 16.4375 -3.25 "/></g></g></g><g fill="#ffffff" fill-opacity="1"><g transform="translate(230.985444, 58.711703)"><g><path d="M 23.375 -33.75 C 27.570312 -33.75 30.910156 -32.53125 33.390625 -30.09375 C 35.878906 -27.65625 37.125 -24.097656 37.125 -19.421875 L 37.125 0 L 32.609375 0 L 32.609375 -18.984375 C 32.609375 -22.460938 31.738281 -25.113281 30 -26.9375 C 28.257812 -28.757812 25.773438 -29.671875 22.546875 -29.671875 C 18.929688 -29.671875 16.070312 -28.597656 13.96875 -26.453125 C 11.875 -24.316406 10.828125 -21.359375 10.828125 -17.578125 L 10.828125 0 L 6.3125 0 L 6.3125 -33.5 L 10.640625 -33.5 L 10.640625 -27.328125 C 11.867188 -29.359375 13.578125 -30.9375 15.765625 -32.0625 C 17.953125 -33.1875 20.488281 -33.75 23.375 -33.75 Z M 23.375 -33.75 "/></g></g></g><g fill="#ffffff" fill-opacity="1"><g transform="translate(274.096433, 58.711703)"><g/></g></g><g fill="#ffffff" fill-opacity="1"><g transform="translate(290.780438, 58.711703)"><g><path d="M 35.34375 -22.984375 C 38.269531 -22.347656 40.53125 -21.085938 42.125 -19.203125 C 43.71875 -17.316406 44.515625 -14.882812 44.515625 -11.90625 C 44.515625 -8.082031 43.101562 -5.140625 40.28125 -3.078125 C 37.457031 -1.023438 33.285156 0 27.765625 0 L 7.265625 0 L 7.265625 -44.578125 L 26.5 -44.578125 C 31.46875 -44.578125 35.316406 -43.578125 38.046875 -41.578125 C 40.785156 -39.585938 42.15625 -36.769531 42.15625 -33.125 C 42.15625 -30.65625 41.550781 -28.5625 40.34375 -26.84375 C 39.132812 -25.125 37.46875 -23.835938 35.34375 -22.984375 Z M 11.96875 -40.703125 L 11.96875 -24.515625 L 26.171875 -24.515625 C 29.785156 -24.515625 32.566406 -25.203125 34.515625 -26.578125 C 36.472656 -27.960938 37.453125 -29.972656 37.453125 -32.609375 C 37.453125 -35.242188 36.472656 -37.25 34.515625 -38.625 C 32.566406 -40.007812 29.785156 -40.703125 26.171875 -40.703125 Z M 27.703125 -3.890625 C 31.691406 -3.890625 34.707031 -4.566406 36.75 -5.921875 C 38.789062 -7.285156 39.8125 -9.410156 39.8125 -12.296875 C 39.8125 -17.859375 35.773438 -20.640625 27.703125 -20.640625 L 11.96875 -20.640625 L 11.96875 -3.890625 Z M 27.703125 -3.890625 "/></g></g></g><g fill="#ffffff" fill-opacity="1"><g transform="translate(338.794724, 58.711703)"><g><path d="M 35.46875 -15.34375 L 7.453125 -15.34375 C 7.703125 -11.863281 9.035156 -9.050781 11.453125 -6.90625 C 13.878906 -4.757812 16.941406 -3.6875 20.640625 -3.6875 C 22.710938 -3.6875 24.617188 -4.054688 26.359375 -4.796875 C 28.109375 -5.546875 29.617188 -6.644531 30.890625 -8.09375 L 33.4375 -5.15625 C 31.945312 -3.375 30.085938 -2.015625 27.859375 -1.078125 C 25.628906 -0.148438 23.175781 0.3125 20.5 0.3125 C 17.0625 0.3125 14.015625 -0.414062 11.359375 -1.875 C 8.710938 -3.34375 6.644531 -5.367188 5.15625 -7.953125 C 3.664062 -10.546875 2.921875 -13.476562 2.921875 -16.75 C 2.921875 -20.019531 3.632812 -22.945312 5.0625 -25.53125 C 6.488281 -28.125 8.441406 -30.140625 10.921875 -31.578125 C 13.398438 -33.023438 16.191406 -33.75 19.296875 -33.75 C 22.398438 -33.75 25.179688 -33.023438 27.640625 -31.578125 C 30.097656 -30.140625 32.023438 -28.132812 33.421875 -25.5625 C 34.828125 -23 35.53125 -20.0625 35.53125 -16.75 Z M 19.296875 -29.875 C 16.066406 -29.875 13.359375 -28.84375 11.171875 -26.78125 C 8.984375 -24.71875 7.742188 -22.03125 7.453125 -18.71875 L 31.203125 -18.71875 C 30.910156 -22.03125 29.671875 -24.71875 27.484375 -26.78125 C 25.296875 -28.84375 22.566406 -29.875 19.296875 -29.875 Z M 19.296875 -29.875 "/></g></g></g><g fill="#ffffff" fill-opacity="1"><g transform="translate(377.257095, 58.711703)"><g><path d="M 10.640625 -26.9375 C 11.703125 -29.1875 13.28125 -30.882812 15.375 -32.03125 C 17.476562 -33.175781 20.082031 -33.75 23.1875 -33.75 L 23.1875 -29.359375 L 22.09375 -29.421875 C 18.570312 -29.421875 15.8125 -28.335938 13.8125 -26.171875 C 11.820312 -24.003906 10.828125 -20.96875 10.828125 -17.0625 L 10.828125 0 L 6.3125 0 L 6.3125 -33.5 L 10.640625 -33.5 Z M 10.640625 -26.9375 "/></g></g></g><g fill="#ffffff" fill-opacity="1"><g transform="translate(402.792557, 58.711703)"><g><path d="M 15.28125 0.3125 C 12.5625 0.3125 9.957031 -0.078125 7.46875 -0.859375 C 4.988281 -1.640625 3.050781 -2.628906 1.65625 -3.828125 L 3.6875 -7.390625 C 5.09375 -6.285156 6.859375 -5.378906 8.984375 -4.671875 C 11.109375 -3.972656 13.316406 -3.625 15.609375 -3.625 C 18.660156 -3.625 20.914062 -4.101562 22.375 -5.0625 C 23.84375 -6.019531 24.578125 -7.367188 24.578125 -9.109375 C 24.578125 -10.335938 24.171875 -11.300781 23.359375 -12 C 22.554688 -12.707031 21.539062 -13.238281 20.3125 -13.59375 C 19.082031 -13.957031 17.445312 -14.304688 15.40625 -14.640625 C 12.695312 -15.148438 10.515625 -15.671875 8.859375 -16.203125 C 7.203125 -16.734375 5.785156 -17.632812 4.609375 -18.90625 C 3.441406 -20.1875 2.859375 -21.953125 2.859375 -24.203125 C 2.859375 -27.003906 4.023438 -29.296875 6.359375 -31.078125 C 8.703125 -32.859375 11.953125 -33.75 16.109375 -33.75 C 18.273438 -33.75 20.441406 -33.460938 22.609375 -32.890625 C 24.773438 -32.316406 26.554688 -31.566406 27.953125 -30.640625 L 25.984375 -27 C 23.222656 -28.914062 19.929688 -29.875 16.109375 -29.875 C 13.222656 -29.875 11.046875 -29.363281 9.578125 -28.34375 C 8.117188 -27.320312 7.390625 -25.984375 7.390625 -24.328125 C 7.390625 -23.054688 7.800781 -22.035156 8.625 -21.265625 C 9.457031 -20.503906 10.488281 -19.941406 11.71875 -19.578125 C 12.945312 -19.222656 14.644531 -18.851562 16.8125 -18.46875 C 19.488281 -17.957031 21.632812 -17.445312 23.25 -16.9375 C 24.863281 -16.425781 26.242188 -15.554688 27.390625 -14.328125 C 28.535156 -13.097656 29.109375 -11.398438 29.109375 -9.234375 C 29.109375 -6.304688 27.882812 -3.984375 25.4375 -2.265625 C 23 -0.546875 19.613281 0.3125 15.28125 0.3125 Z M 15.28125 0.3125 "/></g></g></g><g fill="#ffffff" fill-opacity="1"><g transform="translate(433.931806, 58.711703)"><g><path d="M 18.03125 -33.75 C 22.394531 -33.75 25.742188 -32.65625 28.078125 -30.46875 C 30.421875 -28.28125 31.59375 -25.046875 31.59375 -20.765625 L 31.59375 0 L 27.265625 0 L 27.265625 -5.21875 C 26.242188 -3.476562 24.742188 -2.117188 22.765625 -1.140625 C 20.796875 -0.171875 18.453125 0.3125 15.734375 0.3125 C 11.992188 0.3125 9.019531 -0.578125 6.8125 -2.359375 C 4.601562 -4.140625 3.5 -6.492188 3.5 -9.421875 C 3.5 -12.265625 4.53125 -14.554688 6.59375 -16.296875 C 8.65625 -18.046875 11.9375 -18.921875 16.4375 -18.921875 L 27.0625 -18.921875 L 27.0625 -20.953125 C 27.0625 -23.835938 26.253906 -26.035156 24.640625 -27.546875 C 23.035156 -29.054688 20.679688 -29.8125 17.578125 -29.8125 C 15.453125 -29.8125 13.410156 -29.457031 11.453125 -28.75 C 9.503906 -28.050781 7.832031 -27.085938 6.4375 -25.859375 L 4.390625 -29.234375 C 6.085938 -30.671875 8.125 -31.78125 10.5 -32.5625 C 12.882812 -33.351562 15.394531 -33.75 18.03125 -33.75 Z M 16.4375 -3.25 C 18.976562 -3.25 21.160156 -3.832031 22.984375 -5 C 24.816406 -6.164062 26.175781 -7.851562 27.0625 -10.0625 L 27.0625 -15.546875 L 16.5625 -15.546875 C 10.832031 -15.546875 7.96875 -13.546875 7.96875 -9.546875 C 7.96875 -7.597656 8.707031 -6.0625 10.1875 -4.9375 C 11.675781 -3.8125 13.757812 -3.25 16.4375 -3.25 Z M 16.4375 -3.25 "/></g></g></g><g fill="#ffffff" fill-opacity="1"><g transform="translate(471.502687, 58.711703)"><g><path d="M 48.078125 -33.75 C 52.285156 -33.75 55.585938 -32.539062 57.984375 -30.125 C 60.378906 -27.707031 61.578125 -24.140625 61.578125 -19.421875 L 61.578125 0 L 57.0625 0 L 57.0625 -18.984375 C 57.0625 -22.460938 56.222656 -25.113281 54.546875 -26.9375 C 52.867188 -28.757812 50.503906 -29.671875 47.453125 -29.671875 C 43.960938 -29.671875 41.21875 -28.597656 39.21875 -26.453125 C 37.226562 -24.316406 36.234375 -21.359375 36.234375 -17.578125 L 36.234375 0 L 31.71875 0 L 31.71875 -18.984375 C 31.71875 -22.460938 30.878906 -25.113281 29.203125 -26.9375 C 27.523438 -28.757812 25.132812 -29.671875 22.03125 -29.671875 C 18.59375 -29.671875 15.863281 -28.597656 13.84375 -26.453125 C 11.832031 -24.316406 10.828125 -21.359375 10.828125 -17.578125 L 10.828125 0 L 6.3125 0 L 6.3125 -33.5 L 10.640625 -33.5 L 10.640625 -27.390625 C 11.828125 -29.421875 13.476562 -30.988281 15.59375 -32.09375 C 17.71875 -33.195312 20.160156 -33.75 22.921875 -33.75 C 25.722656 -33.75 28.15625 -33.15625 30.21875 -31.96875 C 32.28125 -30.78125 33.820312 -29.019531 34.84375 -26.6875 C 36.070312 -28.894531 37.84375 -30.625 40.15625 -31.875 C 42.46875 -33.125 45.109375 -33.75 48.078125 -33.75 Z M 48.078125 -33.75 "/></g></g></g><g fill="#ffffff" fill-opacity="1"><g transform="translate(539.066581, 58.711703)"><g><path d="M 18.03125 -33.75 C 22.394531 -33.75 25.742188 -32.65625 28.078125 -30.46875 C 30.421875 -28.28125 31.59375 -25.046875 31.59375 -20.765625 L 31.59375 0 L 27.265625 0 L 27.265625 -5.21875 C 26.242188 -3.476562 24.742188 -2.117188 22.765625 -1.140625 C 20.796875 -0.171875 18.453125 0.3125 15.734375 0.3125 C 11.992188 0.3125 9.019531 -0.578125 6.8125 -2.359375 C 4.601562 -4.140625 3.5 -6.492188 3.5 -9.421875 C 3.5 -12.265625 4.53125 -14.554688 6.59375 -16.296875 C 8.65625 -18.046875 11.9375 -18.921875 16.4375 -18.921875 L 27.0625 -18.921875 L 27.0625 -20.953125 C 27.0625 -23.835938 26.253906 -26.035156 24.640625 -27.546875 C 23.035156 -29.054688 20.679688 -29.8125 17.578125 -29.8125 C 15.453125 -29.8125 13.410156 -29.457031 11.453125 -28.75 C 9.503906 -28.050781 7.832031 -27.085938 6.4375 -25.859375 L 4.390625 -29.234375 C 6.085938 -30.671875 8.125 -31.78125 10.5 -32.5625 C 12.882812 -33.351562 15.394531 -33.75 18.03125 -33.75 Z M 16.4375 -3.25 C 18.976562 -3.25 21.160156 -3.832031 22.984375 -5 C 24.816406 -6.164062 26.175781 -7.851562 27.0625 -10.0625 L 27.0625 -15.546875 L 16.5625 -15.546875 C 10.832031 -15.546875 7.96875 -13.546875 7.96875 -9.546875 C 7.96875 -7.597656 8.707031 -6.0625 10.1875 -4.9375 C 11.675781 -3.8125 13.757812 -3.25 16.4375 -3.25 Z M 16.4375 -3.25 "/></g></g></g></g></g></svg>