<svg xmlns="http://www.w3.org/2000/svg" xmlns:xlink="http://www.w3.org/1999/xlink" width="1512" zoomAndPan="magnify" viewBox="0 0 1134 1133.999944" height="1512" preserveAspectRatio="xMidYMid meet" version="1.0"><defs><filter x="0%" y="0%" width="100%" height="100%" id="d6ba324f33"><feColorMatrix values="0 0 0 0 1 0 0 0 0 1 0 0 0 0 1 0 0 0 1 0" color-interpolation-filters="sRGB"/></filter><g/><clipPath id="e074120bb4"><path d="M 0.660156 0.785156 L 953 0.785156 L 953 422.972656 L 0.660156 422.972656 Z M 0.660156 0.785156 " clip-rule="nonzero"/></clipPath><clipPath id="dc4a3dea5f"><path d="M 0.660156 0.785156 L 953 0.785156 L 953 422.972656 L 0.660156 422.972656 Z M 0.660156 0.785156 " clip-rule="nonzero"/></clipPath><clipPath id="961f6db881"><path d="M 155.183594 6.304688 L 941.613281 6.304688 L 941.613281 417.457031 L 155.183594 417.457031 Z M 155.183594 6.304688 " clip-rule="nonzero"/></clipPath><linearGradient x1="-1.031" gradientTransform="matrix(2.76379, 0, 0, 2.759396, 158.034538, 158.072005)" y1="19.5" x2="283.516" gradientUnits="userSpaceOnUse" y2="19.5" id="5c8fcae7cf"><stop stop-opacity="1" stop-color="rgb(9.799194%, 48.629761%, 1.959229%)" offset="0"/><stop stop-opacity="1" stop-color="rgb(9.799194%, 48.629761%, 1.959229%)" offset="0.125"/><stop stop-opacity="1" stop-color="rgb(9.799194%, 48.629761%, 1.959229%)" offset="0.1875"/><stop stop-opacity="1" stop-color="rgb(9.779358%, 48.748779%, 1.980591%)" offset="0.203125"/><stop stop-opacity="1" stop-color="rgb(9.706116%, 49.203491%, 2.064514%)" offset="0.207031"/><stop stop-opacity="1" stop-color="rgb(9.65271%, 49.539185%, 2.125549%)" offset="0.210937"/><stop stop-opacity="1" stop-color="rgb(9.599304%, 49.873352%, 2.186584%)" offset="0.214844"/><stop stop-opacity="1" stop-color="rgb(9.545898%, 50.209045%, 2.249146%)" offset="0.21875"/><stop stop-opacity="1" stop-color="rgb(9.492493%, 50.543213%, 2.310181%)" offset="0.222656"/><stop stop-opacity="1" stop-color="rgb(9.439087%, 50.878906%, 2.371216%)" offset="0.226562"/><stop stop-opacity="1" stop-color="rgb(9.385681%, 51.213074%, 2.432251%)" offset="0.230469"/><stop stop-opacity="1" stop-color="rgb(9.332275%, 51.548767%, 2.493286%)" offset="0.234375"/><stop stop-opacity="1" stop-color="rgb(9.277344%, 51.882935%, 2.554321%)" offset="0.238281"/><stop stop-opacity="1" stop-color="rgb(9.223938%, 52.217102%, 2.616882%)" offset="0.242188"/><stop stop-opacity="1" stop-color="rgb(9.170532%, 52.55127%, 2.677917%)" offset="0.246094"/><stop stop-opacity="1" stop-color="rgb(9.117126%, 52.886963%, 2.738953%)" offset="0.25"/><stop stop-opacity="1" stop-color="rgb(9.063721%, 53.22113%, 2.799988%)" offset="0.253906"/><stop stop-opacity="1" stop-color="rgb(9.010315%, 53.556824%, 2.862549%)" offset="0.257812"/><stop stop-opacity="1" stop-color="rgb(8.955383%, 53.890991%, 2.923584%)" offset="0.261719"/><stop stop-opacity="1" stop-color="rgb(8.901978%, 54.226685%, 2.984619%)" offset="0.265625"/><stop stop-opacity="1" stop-color="rgb(8.848572%, 54.560852%, 3.045654%)" offset="0.269531"/><stop stop-opacity="1" stop-color="rgb(8.795166%, 54.896545%, 3.106689%)" offset="0.273437"/><stop stop-opacity="1" stop-color="rgb(8.74176%, 55.230713%, 3.167725%)" offset="0.277344"/><stop stop-opacity="1" stop-color="rgb(8.688354%, 55.566406%, 3.230286%)" offset="0.28125"/><stop stop-opacity="1" stop-color="rgb(8.633423%, 55.900574%, 3.291321%)" offset="0.285156"/><stop stop-opacity="1" stop-color="rgb(8.580017%, 56.234741%, 3.352356%)" offset="0.289062"/><stop stop-opacity="1" stop-color="rgb(8.526611%, 56.568909%, 3.413391%)" offset="0.292969"/><stop stop-opacity="1" stop-color="rgb(8.473206%, 56.904602%, 3.474426%)" offset="0.296875"/><stop stop-opacity="1" stop-color="rgb(8.4198%, 57.23877%, 3.535461%)" offset="0.300781"/><stop stop-opacity="1" stop-color="rgb(8.366394%, 57.574463%, 3.598022%)" offset="0.304688"/><stop stop-opacity="1" stop-color="rgb(8.312988%, 57.90863%, 3.659058%)" offset="0.308594"/><stop stop-opacity="1" stop-color="rgb(8.259583%, 58.244324%, 3.720093%)" offset="0.3125"/><stop stop-opacity="1" stop-color="rgb(8.204651%, 58.578491%, 3.781128%)" offset="0.316406"/><stop stop-opacity="1" stop-color="rgb(8.151245%, 58.914185%, 3.843689%)" offset="0.320312"/><stop stop-opacity="1" stop-color="rgb(8.097839%, 59.248352%, 3.904724%)" offset="0.324219"/><stop stop-opacity="1" stop-color="rgb(8.044434%, 59.58252%, 3.965759%)" offset="0.328125"/><stop stop-opacity="1" stop-color="rgb(7.991028%, 59.916687%, 4.026794%)" offset="0.332031"/><stop stop-opacity="1" stop-color="rgb(7.937622%, 60.25238%, 4.08783%)" offset="0.335938"/><stop stop-opacity="1" stop-color="rgb(7.88269%, 60.586548%, 4.148865%)" offset="0.339844"/><stop stop-opacity="1" stop-color="rgb(7.829285%, 60.922241%, 4.211426%)" offset="0.34375"/><stop stop-opacity="1" stop-color="rgb(7.775879%, 61.256409%, 4.272461%)" offset="0.347656"/><stop stop-opacity="1" stop-color="rgb(7.722473%, 61.592102%, 4.333496%)" offset="0.351562"/><stop stop-opacity="1" stop-color="rgb(7.669067%, 61.92627%, 4.394531%)" offset="0.355469"/><stop stop-opacity="1" stop-color="rgb(7.615662%, 62.261963%, 4.457092%)" offset="0.359375"/><stop stop-opacity="1" stop-color="rgb(7.56073%, 62.59613%, 4.518127%)" offset="0.363281"/><stop stop-opacity="1" stop-color="rgb(7.507324%, 62.931824%, 4.579163%)" offset="0.367187"/><stop stop-opacity="1" stop-color="rgb(7.453918%, 63.265991%, 4.640198%)" offset="0.371094"/><stop stop-opacity="1" stop-color="rgb(7.400513%, 63.600159%, 4.701233%)" offset="0.375"/><stop stop-opacity="1" stop-color="rgb(7.347107%, 63.934326%, 4.762268%)" offset="0.378906"/><stop stop-opacity="1" stop-color="rgb(7.293701%, 64.27002%, 4.824829%)" offset="0.382812"/><stop stop-opacity="1" stop-color="rgb(7.23877%, 64.604187%, 4.885864%)" offset="0.386719"/><stop stop-opacity="1" stop-color="rgb(7.185364%, 64.93988%, 4.946899%)" offset="0.390625"/><stop stop-opacity="1" stop-color="rgb(7.131958%, 65.274048%, 5.007935%)" offset="0.394531"/><stop stop-opacity="1" stop-color="rgb(7.078552%, 65.609741%, 5.06897%)" offset="0.398438"/><stop stop-opacity="1" stop-color="rgb(7.025146%, 65.943909%, 5.130005%)" offset="0.402344"/><stop stop-opacity="1" stop-color="rgb(6.971741%, 66.279602%, 5.192566%)" offset="0.40625"/><stop stop-opacity="1" stop-color="rgb(6.918335%, 66.61377%, 5.253601%)" offset="0.410156"/><stop stop-opacity="1" stop-color="rgb(6.864929%, 66.949463%, 5.314636%)" offset="0.414062"/><stop stop-opacity="1" stop-color="rgb(6.809998%, 67.28363%, 5.375671%)" offset="0.417969"/><stop stop-opacity="1" stop-color="rgb(6.756592%, 67.617798%, 5.438232%)" offset="0.421875"/><stop stop-opacity="1" stop-color="rgb(6.703186%, 67.951965%, 5.499268%)" offset="0.425781"/><stop stop-opacity="1" stop-color="rgb(6.64978%, 68.287659%, 5.560303%)" offset="0.429688"/><stop stop-opacity="1" stop-color="rgb(6.596375%, 68.621826%, 5.621338%)" offset="0.433594"/><stop stop-opacity="1" stop-color="rgb(6.542969%, 68.95752%, 5.682373%)" offset="0.4375"/><stop stop-opacity="1" stop-color="rgb(6.488037%, 69.291687%, 5.743408%)" offset="0.441406"/><stop stop-opacity="1" stop-color="rgb(6.434631%, 69.62738%, 5.805969%)" offset="0.445312"/><stop stop-opacity="1" stop-color="rgb(6.381226%, 69.961548%, 5.867004%)" offset="0.449219"/><stop stop-opacity="1" stop-color="rgb(6.32782%, 70.297241%, 5.92804%)" offset="0.453125"/><stop stop-opacity="1" stop-color="rgb(6.274414%, 70.631409%, 5.989075%)" offset="0.457031"/><stop stop-opacity="1" stop-color="rgb(6.221008%, 70.965576%, 6.051636%)" offset="0.460937"/><stop stop-opacity="1" stop-color="rgb(6.166077%, 71.299744%, 6.112671%)" offset="0.464844"/><stop stop-opacity="1" stop-color="rgb(6.112671%, 71.635437%, 6.173706%)" offset="0.46875"/><stop stop-opacity="1" stop-color="rgb(6.059265%, 71.969604%, 6.234741%)" offset="0.472656"/><stop stop-opacity="1" stop-color="rgb(6.005859%, 72.305298%, 6.295776%)" offset="0.476562"/><stop stop-opacity="1" stop-color="rgb(5.952454%, 72.639465%, 6.356812%)" offset="0.480469"/><stop stop-opacity="1" stop-color="rgb(5.899048%, 72.975159%, 6.419373%)" offset="0.484375"/><stop stop-opacity="1" stop-color="rgb(5.845642%, 73.309326%, 6.480408%)" offset="0.488281"/><stop stop-opacity="1" stop-color="rgb(5.792236%, 73.64502%, 6.541443%)" offset="0.492188"/><stop stop-opacity="1" stop-color="rgb(5.737305%, 73.979187%, 6.602478%)" offset="0.496094"/><stop stop-opacity="1" stop-color="rgb(5.683899%, 74.31488%, 6.663513%)" offset="0.5"/><stop stop-opacity="1" stop-color="rgb(5.630493%, 74.649048%, 6.724548%)" offset="0.503906"/><stop stop-opacity="1" stop-color="rgb(5.577087%, 74.983215%, 6.787109%)" offset="0.507812"/><stop stop-opacity="1" stop-color="rgb(5.523682%, 75.317383%, 6.848145%)" offset="0.511719"/><stop stop-opacity="1" stop-color="rgb(5.470276%, 75.653076%, 6.90918%)" offset="0.515625"/><stop stop-opacity="1" stop-color="rgb(5.415344%, 75.987244%, 6.970215%)" offset="0.519531"/><stop stop-opacity="1" stop-color="rgb(5.361938%, 76.322937%, 7.032776%)" offset="0.523438"/><stop stop-opacity="1" stop-color="rgb(5.308533%, 76.657104%, 7.093811%)" offset="0.527344"/><stop stop-opacity="1" stop-color="rgb(5.255127%, 76.992798%, 7.154846%)" offset="0.53125"/><stop stop-opacity="1" stop-color="rgb(5.201721%, 77.326965%, 7.215881%)" offset="0.535156"/><stop stop-opacity="1" stop-color="rgb(5.148315%, 77.662659%, 7.276917%)" offset="0.539062"/><stop stop-opacity="1" stop-color="rgb(5.093384%, 77.996826%, 7.337952%)" offset="0.542969"/><stop stop-opacity="1" stop-color="rgb(5.039978%, 78.33252%, 7.400513%)" offset="0.546875"/><stop stop-opacity="1" stop-color="rgb(4.986572%, 78.666687%, 7.461548%)" offset="0.550781"/><stop stop-opacity="1" stop-color="rgb(4.933167%, 79.000854%, 7.522583%)" offset="0.554688"/><stop stop-opacity="1" stop-color="rgb(4.879761%, 79.335022%, 7.583618%)" offset="0.558594"/><stop stop-opacity="1" stop-color="rgb(4.826355%, 79.670715%, 7.646179%)" offset="0.5625"/><stop stop-opacity="1" stop-color="rgb(4.771423%, 80.004883%, 7.707214%)" offset="0.566406"/><stop stop-opacity="1" stop-color="rgb(4.718018%, 80.340576%, 7.76825%)" offset="0.570312"/><stop stop-opacity="1" stop-color="rgb(4.664612%, 80.674744%, 7.829285%)" offset="0.574219"/><stop stop-opacity="1" stop-color="rgb(4.611206%, 81.010437%, 7.89032%)" offset="0.578125"/><stop stop-opacity="1" stop-color="rgb(4.5578%, 81.344604%, 7.951355%)" offset="0.582031"/><stop stop-opacity="1" stop-color="rgb(4.504395%, 81.680298%, 8.013916%)" offset="0.585937"/><stop stop-opacity="1" stop-color="rgb(4.450989%, 82.014465%, 8.074951%)" offset="0.589844"/><stop stop-opacity="1" stop-color="rgb(4.397583%, 82.348633%, 8.135986%)" offset="0.59375"/><stop stop-opacity="1" stop-color="rgb(4.342651%, 82.6828%, 8.197021%)" offset="0.597656"/><stop stop-opacity="1" stop-color="rgb(4.289246%, 83.018494%, 8.258057%)" offset="0.601562"/><stop stop-opacity="1" stop-color="rgb(4.23584%, 83.352661%, 8.319092%)" offset="0.605469"/><stop stop-opacity="1" stop-color="rgb(4.182434%, 83.688354%, 8.381653%)" offset="0.609375"/><stop stop-opacity="1" stop-color="rgb(4.129028%, 84.022522%, 8.442688%)" offset="0.613281"/><stop stop-opacity="1" stop-color="rgb(4.075623%, 84.358215%, 8.503723%)" offset="0.617188"/><stop stop-opacity="1" stop-color="rgb(4.020691%, 84.692383%, 8.564758%)" offset="0.621094"/><stop stop-opacity="1" stop-color="rgb(3.967285%, 85.028076%, 8.627319%)" offset="0.625"/><stop stop-opacity="1" stop-color="rgb(3.913879%, 85.362244%, 8.688354%)" offset="0.628906"/><stop stop-opacity="1" stop-color="rgb(3.860474%, 85.697937%, 8.74939%)" offset="0.632812"/><stop stop-opacity="1" stop-color="rgb(3.807068%, 86.032104%, 8.810425%)" offset="0.636719"/><stop stop-opacity="1" stop-color="rgb(3.753662%, 86.366272%, 8.87146%)" offset="0.640625"/><stop stop-opacity="1" stop-color="rgb(3.69873%, 86.700439%, 8.932495%)" offset="0.644531"/><stop stop-opacity="1" stop-color="rgb(3.645325%, 87.036133%, 8.995056%)" offset="0.648438"/><stop stop-opacity="1" stop-color="rgb(3.591919%, 87.3703%, 9.056091%)" offset="0.652344"/><stop stop-opacity="1" stop-color="rgb(3.538513%, 87.705994%, 9.117126%)" offset="0.65625"/><stop stop-opacity="1" stop-color="rgb(3.485107%, 88.040161%, 9.178162%)" offset="0.660156"/><stop stop-opacity="1" stop-color="rgb(3.431702%, 88.375854%, 9.240723%)" offset="0.664062"/><stop stop-opacity="1" stop-color="rgb(3.378296%, 88.710022%, 9.301758%)" offset="0.667969"/><stop stop-opacity="1" stop-color="rgb(3.32489%, 89.045715%, 9.362793%)" offset="0.671875"/><stop stop-opacity="1" stop-color="rgb(3.269958%, 89.379883%, 9.423828%)" offset="0.675781"/><stop stop-opacity="1" stop-color="rgb(3.216553%, 89.715576%, 9.484863%)" offset="0.679687"/><stop stop-opacity="1" stop-color="rgb(3.163147%, 90.049744%, 9.545898%)" offset="0.683594"/><stop stop-opacity="1" stop-color="rgb(3.109741%, 90.383911%, 9.608459%)" offset="0.6875"/><stop stop-opacity="1" stop-color="rgb(3.056335%, 90.718079%, 9.669495%)" offset="0.691406"/><stop stop-opacity="1" stop-color="rgb(3.00293%, 91.053772%, 9.73053%)" offset="0.695312"/><stop stop-opacity="1" stop-color="rgb(2.947998%, 91.387939%, 9.791565%)" offset="0.699219"/><stop stop-opacity="1" stop-color="rgb(2.894592%, 91.723633%, 9.8526%)" offset="0.703125"/><stop stop-opacity="1" stop-color="rgb(2.841187%, 92.0578%, 9.913635%)" offset="0.707031"/><stop stop-opacity="1" stop-color="rgb(2.787781%, 92.393494%, 9.976196%)" offset="0.710937"/><stop stop-opacity="1" stop-color="rgb(2.734375%, 92.727661%, 10.037231%)" offset="0.714844"/><stop stop-opacity="1" stop-color="rgb(2.680969%, 93.063354%, 10.098267%)" offset="0.71875"/><stop stop-opacity="1" stop-color="rgb(2.626038%, 93.397522%, 10.159302%)" offset="0.722656"/><stop stop-opacity="1" stop-color="rgb(2.572632%, 93.731689%, 10.221863%)" offset="0.726562"/><stop stop-opacity="1" stop-color="rgb(2.519226%, 94.065857%, 10.282898%)" offset="0.730469"/><stop stop-opacity="1" stop-color="rgb(2.46582%, 94.40155%, 10.343933%)" offset="0.734375"/><stop stop-opacity="1" stop-color="rgb(2.412415%, 94.735718%, 10.404968%)" offset="0.738281"/><stop stop-opacity="1" stop-color="rgb(2.359009%, 95.071411%, 10.466003%)" offset="0.742187"/><stop stop-opacity="1" stop-color="rgb(2.304077%, 95.405579%, 10.527039%)" offset="0.746094"/><stop stop-opacity="1" stop-color="rgb(2.250671%, 95.741272%, 10.5896%)" offset="0.75"/><stop stop-opacity="1" stop-color="rgb(2.197266%, 96.075439%, 10.650635%)" offset="0.753906"/><stop stop-opacity="1" stop-color="rgb(2.14386%, 96.411133%, 10.71167%)" offset="0.757812"/><stop stop-opacity="1" stop-color="rgb(2.090454%, 96.7453%, 10.772705%)" offset="0.761719"/><stop stop-opacity="1" stop-color="rgb(2.037048%, 97.080994%, 10.835266%)" offset="0.765625"/><stop stop-opacity="1" stop-color="rgb(1.983643%, 97.415161%, 10.896301%)" offset="0.769531"/><stop stop-opacity="1" stop-color="rgb(1.930237%, 97.749329%, 10.957336%)" offset="0.773438"/><stop stop-opacity="1" stop-color="rgb(1.875305%, 98.083496%, 11.018372%)" offset="0.777344"/><stop stop-opacity="1" stop-color="rgb(1.821899%, 98.419189%, 11.079407%)" offset="0.78125"/><stop stop-opacity="1" stop-color="rgb(1.768494%, 98.753357%, 11.140442%)" offset="0.785156"/><stop stop-opacity="1" stop-color="rgb(1.715088%, 99.08905%, 11.203003%)" offset="0.789062"/><stop stop-opacity="1" stop-color="rgb(1.661682%, 99.423218%, 11.264038%)" offset="0.792969"/><stop stop-opacity="1" stop-color="rgb(1.608276%, 99.758911%, 11.325073%)" offset="0.796875"/><stop stop-opacity="1" stop-color="rgb(1.58844%, 99.879456%, 11.346436%)" offset="0.8125"/><stop stop-opacity="1" stop-color="rgb(1.568604%, 100%, 11.369324%)" offset="0.875"/><stop stop-opacity="1" stop-color="rgb(1.568604%, 100%, 11.369324%)" offset="1"/></linearGradient><clipPath id="5f75991808"><rect x="0" width="953" y="0" height="423"/></clipPath><clipPath id="1ec317699b"><path d="M 0.660156 0.785156 L 953 0.785156 L 953 422.972656 L 0.660156 422.972656 Z M 0.660156 0.785156 " clip-rule="nonzero"/></clipPath><clipPath id="0062e95368"><rect x="0" width="953" y="0" height="423"/></clipPath><clipPath id="778baefaa7"><rect x="0" width="953" y="0" height="423"/></clipPath><mask id="8bc1e1771f"><g filter="url(#d6ba324f33)"><g transform="matrix(1, 0, 0, 1, 0, -0.000000000000284217)"><g clip-path="url(#778baefaa7)"><g clip-path="url(#1ec317699b)"><g transform="matrix(1, 0, 0, 1, 0, -0.000000000000284217)"><g clip-path="url(#0062e95368)"><g fill="#000000" fill-opacity="1"><g transform="translate(312.384456, 238.094464)"><g><path d="M 24.609375 0.9375 C 20.265625 0.9375 16.054688 0.347656 11.984375 -0.828125 C 7.921875 -2.003906 4.660156 -3.535156 2.203125 -5.421875 L 6.53125 -15.015625 C 8.882812 -13.285156 11.6875 -11.894531 14.9375 -10.84375 C 18.1875 -9.800781 21.4375 -9.28125 24.6875 -9.28125 C 28.3125 -9.28125 30.988281 -9.816406 32.71875 -10.890625 C 34.445312 -11.960938 35.3125 -13.390625 35.3125 -15.171875 C 35.3125 -16.484375 34.800781 -17.570312 33.78125 -18.4375 C 32.757812 -19.300781 31.445312 -19.992188 29.84375 -20.515625 C 28.25 -21.046875 26.085938 -21.625 23.359375 -22.25 C 19.160156 -23.25 15.722656 -24.242188 13.046875 -25.234375 C 10.378906 -26.234375 8.085938 -27.832031 6.171875 -30.03125 C 4.253906 -32.238281 3.296875 -35.175781 3.296875 -38.84375 C 3.296875 -42.039062 4.160156 -44.9375 5.890625 -47.53125 C 7.628906 -50.132812 10.238281 -52.191406 13.71875 -53.703125 C 17.207031 -55.222656 21.46875 -55.984375 26.5 -55.984375 C 30.007812 -55.984375 33.441406 -55.5625 36.796875 -54.71875 C 40.160156 -53.882812 43.097656 -52.679688 45.609375 -51.109375 L 41.671875 -41.4375 C 36.585938 -44.320312 31.503906 -45.765625 26.421875 -45.765625 C 22.859375 -45.765625 20.222656 -45.1875 18.515625 -44.03125 C 16.816406 -42.882812 15.96875 -41.367188 15.96875 -39.484375 C 15.96875 -37.585938 16.945312 -36.179688 18.90625 -35.265625 C 20.875 -34.347656 23.878906 -33.445312 27.921875 -32.5625 C 32.109375 -31.5625 35.539062 -30.5625 38.21875 -29.5625 C 40.894531 -28.570312 43.1875 -27 45.09375 -24.84375 C 47.007812 -22.695312 47.96875 -19.789062 47.96875 -16.125 C 47.96875 -12.976562 47.085938 -10.109375 45.328125 -7.515625 C 43.578125 -4.921875 40.941406 -2.863281 37.421875 -1.34375 C 33.910156 0.175781 29.640625 0.9375 24.609375 0.9375 Z M 24.609375 0.9375 "/></g></g></g><g fill="#000000" fill-opacity="1"><g transform="translate(362.558695, 238.094464)"><g><path d="M 6.53125 -55.046875 L 19.265625 -55.046875 L 19.265625 0 L 6.53125 0 Z M 6.53125 -55.046875 "/></g></g></g><g fill="#000000" fill-opacity="1"><g transform="translate(388.353601, 238.094464)"><g><path d="M 4.09375 -27.046875 L 26.34375 -27.046875 L 26.34375 -17.21875 L 4.09375 -17.21875 Z M 4.09375 -27.046875 "/></g></g></g><g fill="#000000" fill-opacity="1"><g transform="translate(418.709833, 238.094464)"><g/></g></g><g fill="#000000" fill-opacity="1"><g transform="translate(440.965809, 238.094464)"><g><path d="M 30.359375 -55.046875 C 35.234375 -55.046875 39.460938 -54.234375 43.046875 -52.609375 C 46.640625 -50.984375 49.40625 -48.675781 51.34375 -45.6875 C 53.289062 -42.695312 54.265625 -39.160156 54.265625 -35.078125 C 54.265625 -31.035156 53.289062 -27.503906 51.34375 -24.484375 C 49.40625 -21.472656 46.640625 -19.164062 43.046875 -17.5625 C 39.460938 -15.96875 35.234375 -15.171875 30.359375 -15.171875 L 19.265625 -15.171875 L 19.265625 0 L 6.53125 0 L 6.53125 -55.046875 Z M 29.640625 -25.5625 C 33.472656 -25.5625 36.382812 -26.382812 38.375 -28.03125 C 40.363281 -29.6875 41.359375 -32.035156 41.359375 -35.078125 C 41.359375 -38.171875 40.363281 -40.539062 38.375 -42.1875 C 36.382812 -43.84375 33.472656 -44.671875 29.640625 -44.671875 L 19.265625 -44.671875 L 19.265625 -25.5625 Z M 29.640625 -25.5625 "/></g></g></g><g fill="#000000" fill-opacity="1"><g transform="translate(498.532519, 238.094464)"><g><path d="M 33.1875 0.9375 C 27.46875 0.9375 22.316406 -0.289062 17.734375 -2.75 C 13.148438 -5.21875 9.554688 -8.613281 6.953125 -12.9375 C 4.359375 -17.257812 3.0625 -22.125 3.0625 -27.53125 C 3.0625 -32.925781 4.359375 -37.785156 6.953125 -42.109375 C 9.554688 -46.429688 13.148438 -49.820312 17.734375 -52.28125 C 22.316406 -54.75 27.46875 -55.984375 33.1875 -55.984375 C 38.90625 -55.984375 44.039062 -54.75 48.59375 -52.28125 C 53.15625 -49.820312 56.75 -46.429688 59.375 -42.109375 C 62 -37.785156 63.3125 -32.925781 63.3125 -27.53125 C 63.3125 -22.125 62 -17.257812 59.375 -12.9375 C 56.75 -8.613281 53.15625 -5.21875 48.59375 -2.75 C 44.039062 -0.289062 38.90625 0.9375 33.1875 0.9375 Z M 33.1875 -9.90625 C 36.4375 -9.90625 39.367188 -10.648438 41.984375 -12.140625 C 44.609375 -13.640625 46.664062 -15.722656 48.15625 -18.390625 C 49.65625 -21.066406 50.40625 -24.113281 50.40625 -27.53125 C 50.40625 -30.9375 49.65625 -33.972656 48.15625 -36.640625 C 46.664062 -39.316406 44.609375 -41.398438 41.984375 -42.890625 C 39.367188 -44.390625 36.4375 -45.140625 33.1875 -45.140625 C 29.9375 -45.140625 27 -44.390625 24.375 -42.890625 C 21.757812 -41.398438 19.703125 -39.316406 18.203125 -36.640625 C 16.710938 -33.972656 15.96875 -30.9375 15.96875 -27.53125 C 15.96875 -24.113281 16.710938 -21.066406 18.203125 -18.390625 C 19.703125 -15.722656 21.757812 -13.640625 24.375 -12.140625 C 27 -10.648438 29.9375 -9.90625 33.1875 -9.90625 Z M 33.1875 -9.90625 "/></g></g></g><g fill="#000000" fill-opacity="1"><g transform="translate(564.907229, 238.094464)"><g><path d="M 24.609375 0.9375 C 20.265625 0.9375 16.054688 0.347656 11.984375 -0.828125 C 7.921875 -2.003906 4.660156 -3.535156 2.203125 -5.421875 L 6.53125 -15.015625 C 8.882812 -13.285156 11.6875 -11.894531 14.9375 -10.84375 C 18.1875 -9.800781 21.4375 -9.28125 24.6875 -9.28125 C 28.3125 -9.28125 30.988281 -9.816406 32.71875 -10.890625 C 34.445312 -11.960938 35.3125 -13.390625 35.3125 -15.171875 C 35.3125 -16.484375 34.800781 -17.570312 33.78125 -18.4375 C 32.757812 -19.300781 31.445312 -19.992188 29.84375 -20.515625 C 28.25 -21.046875 26.085938 -21.625 23.359375 -22.25 C 19.160156 -23.25 15.722656 -24.242188 13.046875 -25.234375 C 10.378906 -26.234375 8.085938 -27.832031 6.171875 -30.03125 C 4.253906 -32.238281 3.296875 -35.175781 3.296875 -38.84375 C 3.296875 -42.039062 4.160156 -44.9375 5.890625 -47.53125 C 7.628906 -50.132812 10.238281 -52.191406 13.71875 -53.703125 C 17.207031 -55.222656 21.46875 -55.984375 26.5 -55.984375 C 30.007812 -55.984375 33.441406 -55.5625 36.796875 -54.71875 C 40.160156 -53.882812 43.097656 -52.679688 45.609375 -51.109375 L 41.671875 -41.4375 C 36.585938 -44.320312 31.503906 -45.765625 26.421875 -45.765625 C 22.859375 -45.765625 20.222656 -45.1875 18.515625 -44.03125 C 16.816406 -42.882812 15.96875 -41.367188 15.96875 -39.484375 C 15.96875 -37.585938 16.945312 -36.179688 18.90625 -35.265625 C 20.875 -34.347656 23.878906 -33.445312 27.921875 -32.5625 C 32.109375 -31.5625 35.539062 -30.5625 38.21875 -29.5625 C 40.894531 -28.570312 43.1875 -27 45.09375 -24.84375 C 47.007812 -22.695312 47.96875 -19.789062 47.96875 -16.125 C 47.96875 -12.976562 47.085938 -10.109375 45.328125 -7.515625 C 43.578125 -4.921875 40.941406 -2.863281 37.421875 -1.34375 C 33.910156 0.175781 29.640625 0.9375 24.609375 0.9375 Z M 24.609375 0.9375 "/></g></g></g><g fill="#000000" fill-opacity="1"><g transform="translate(615.081468, 238.094464)"><g><path d="M 6.53125 -55.046875 L 31.53125 -55.046875 C 37.507812 -55.046875 42.789062 -53.90625 47.375 -51.625 C 51.96875 -49.34375 55.535156 -46.128906 58.078125 -41.984375 C 60.617188 -37.847656 61.890625 -33.03125 61.890625 -27.53125 C 61.890625 -22.019531 60.617188 -17.191406 58.078125 -13.046875 C 55.535156 -8.910156 51.96875 -5.703125 47.375 -3.421875 C 42.789062 -1.140625 37.507812 0 31.53125 0 L 6.53125 0 Z M 30.90625 -10.453125 C 36.40625 -10.453125 40.796875 -11.984375 44.078125 -15.046875 C 47.359375 -18.117188 49 -22.28125 49 -27.53125 C 49 -32.769531 47.359375 -36.921875 44.078125 -39.984375 C 40.796875 -43.054688 36.40625 -44.59375 30.90625 -44.59375 L 19.265625 -44.59375 L 19.265625 -10.453125 Z M 30.90625 -10.453125 "/></g></g></g><g fill="#000000" fill-opacity="1"><g transform="translate(680.040603, 238.094464)"><g><path d="M 49.15625 -10.21875 L 49.15625 0 L 6.53125 0 L 6.53125 -55.046875 L 48.125 -55.046875 L 48.125 -44.828125 L 19.1875 -44.828125 L 19.1875 -32.875 L 44.75 -32.875 L 44.75 -22.96875 L 19.1875 -22.96875 L 19.1875 -10.21875 Z M 49.15625 -10.21875 "/></g></g></g><g fill="#000000" fill-opacity="1"><g transform="translate(732.810072, 238.094464)"><g><path d="M 24.609375 0.9375 C 20.265625 0.9375 16.054688 0.347656 11.984375 -0.828125 C 7.921875 -2.003906 4.660156 -3.535156 2.203125 -5.421875 L 6.53125 -15.015625 C 8.882812 -13.285156 11.6875 -11.894531 14.9375 -10.84375 C 18.1875 -9.800781 21.4375 -9.28125 24.6875 -9.28125 C 28.3125 -9.28125 30.988281 -9.816406 32.71875 -10.890625 C 34.445312 -11.960938 35.3125 -13.390625 35.3125 -15.171875 C 35.3125 -16.484375 34.800781 -17.570312 33.78125 -18.4375 C 32.757812 -19.300781 31.445312 -19.992188 29.84375 -20.515625 C 28.25 -21.046875 26.085938 -21.625 23.359375 -22.25 C 19.160156 -23.25 15.722656 -24.242188 13.046875 -25.234375 C 10.378906 -26.234375 8.085938 -27.832031 6.171875 -30.03125 C 4.253906 -32.238281 3.296875 -35.175781 3.296875 -38.84375 C 3.296875 -42.039062 4.160156 -44.9375 5.890625 -47.53125 C 7.628906 -50.132812 10.238281 -52.191406 13.71875 -53.703125 C 17.207031 -55.222656 21.46875 -55.984375 26.5 -55.984375 C 30.007812 -55.984375 33.441406 -55.5625 36.796875 -54.71875 C 40.160156 -53.882812 43.097656 -52.679688 45.609375 -51.109375 L 41.671875 -41.4375 C 36.585938 -44.320312 31.503906 -45.765625 26.421875 -45.765625 C 22.859375 -45.765625 20.222656 -45.1875 18.515625 -44.03125 C 16.816406 -42.882812 15.96875 -41.367188 15.96875 -39.484375 C 15.96875 -37.585938 16.945312 -36.179688 18.90625 -35.265625 C 20.875 -34.347656 23.878906 -33.445312 27.921875 -32.5625 C 32.109375 -31.5625 35.539062 -30.5625 38.21875 -29.5625 C 40.894531 -28.570312 43.1875 -27 45.09375 -24.84375 C 47.007812 -22.695312 47.96875 -19.789062 47.96875 -16.125 C 47.96875 -12.976562 47.085938 -10.109375 45.328125 -7.515625 C 43.578125 -4.921875 40.941406 -2.863281 37.421875 -1.34375 C 33.910156 0.175781 29.640625 0.9375 24.609375 0.9375 Z M 24.609375 0.9375 "/></g></g></g></g></g></g></g></g></g></mask><clipPath id="a79f4483f0"><path d="M 155.183594 6.304688 L 941.613281 6.304688 L 941.613281 417.457031 L 155.183594 417.457031 Z M 155.183594 6.304688 " clip-rule="nonzero"/></clipPath><clipPath id="a9df8d9948"><rect x="0" width="953" y="0" height="423"/></clipPath><clipPath id="1a6364039a"><rect x="0" width="953" y="0" height="423"/></clipPath><clipPath id="f59f4bccb6"><rect x="0" width="953" y="0" height="424"/></clipPath><clipPath id="9da6497548"><path d="M 0.503906 0.273438 L 867 0.273438 L 867 286.65625 L 0.503906 286.65625 Z M 0.503906 0.273438 " clip-rule="nonzero"/></clipPath><clipPath id="23d4e8cede"><path d="M 0.503906 0.273438 L 867 0.273438 L 867 286.65625 L 0.503906 286.65625 Z M 0.503906 0.273438 " clip-rule="nonzero"/></clipPath><clipPath id="7b165cd031"><path d="M 117.585938 5.675781 L 803.808594 5.675781 L 803.808594 279.449219 L 117.585938 279.449219 Z M 117.585938 5.675781 " clip-rule="nonzero"/></clipPath><linearGradient x1="6.302" gradientTransform="matrix(1.79887, 0, 0, 1.797203, 106.24892, 105.721801)" y1="20.5" x2="387.776" gradientUnits="userSpaceOnUse" y2="20.5" id="bd49b7a3cf"><stop stop-opacity="1" stop-color="rgb(9.799194%, 48.629761%, 1.959229%)" offset="0"/><stop stop-opacity="1" stop-color="rgb(9.799194%, 48.629761%, 1.959229%)" offset="0.125"/><stop stop-opacity="1" stop-color="rgb(9.783936%, 48.719788%, 1.976013%)" offset="0.15625"/><stop stop-opacity="1" stop-color="rgb(9.7229%, 49.101257%, 2.044678%)" offset="0.160156"/><stop stop-opacity="1" stop-color="rgb(9.677124%, 49.391174%, 2.098083%)" offset="0.164063"/><stop stop-opacity="1" stop-color="rgb(9.629822%, 49.681091%, 2.151489%)" offset="0.167969"/><stop stop-opacity="1" stop-color="rgb(9.584045%, 49.971008%, 2.204895%)" offset="0.171875"/><stop stop-opacity="1" stop-color="rgb(9.536743%, 50.260925%, 2.258301%)" offset="0.175781"/><stop stop-opacity="1" stop-color="rgb(9.490967%, 50.550842%, 2.311707%)" offset="0.179688"/><stop stop-opacity="1" stop-color="rgb(9.443665%, 50.840759%, 2.363586%)" offset="0.183594"/><stop stop-opacity="1" stop-color="rgb(9.397888%, 51.130676%, 2.416992%)" offset="0.1875"/><stop stop-opacity="1" stop-color="rgb(9.352112%, 51.419067%, 2.470398%)" offset="0.191406"/><stop stop-opacity="1" stop-color="rgb(9.306335%, 51.708984%, 2.523804%)" offset="0.195313"/><stop stop-opacity="1" stop-color="rgb(9.259033%, 51.998901%, 2.575684%)" offset="0.199219"/><stop stop-opacity="1" stop-color="rgb(9.213257%, 52.288818%, 2.629089%)" offset="0.203125"/><stop stop-opacity="1" stop-color="rgb(9.165955%, 52.578735%, 2.682495%)" offset="0.207031"/><stop stop-opacity="1" stop-color="rgb(9.120178%, 52.868652%, 2.735901%)" offset="0.210938"/><stop stop-opacity="1" stop-color="rgb(9.072876%, 53.158569%, 2.789307%)" offset="0.214844"/><stop stop-opacity="1" stop-color="rgb(9.0271%, 53.448486%, 2.842712%)" offset="0.21875"/><stop stop-opacity="1" stop-color="rgb(8.979797%, 53.738403%, 2.894592%)" offset="0.222656"/><stop stop-opacity="1" stop-color="rgb(8.934021%, 54.02832%, 2.947998%)" offset="0.226563"/><stop stop-opacity="1" stop-color="rgb(8.886719%, 54.318237%, 3.001404%)" offset="0.230469"/><stop stop-opacity="1" stop-color="rgb(8.840942%, 54.608154%, 3.05481%)" offset="0.234375"/><stop stop-opacity="1" stop-color="rgb(8.79364%, 54.898071%, 3.106689%)" offset="0.238281"/><stop stop-opacity="1" stop-color="rgb(8.747864%, 55.187988%, 3.160095%)" offset="0.242188"/><stop stop-opacity="1" stop-color="rgb(8.702087%, 55.476379%, 3.213501%)" offset="0.246094"/><stop stop-opacity="1" stop-color="rgb(8.656311%, 55.766296%, 3.266907%)" offset="0.25"/><stop stop-opacity="1" stop-color="rgb(8.609009%, 56.056213%, 3.318787%)" offset="0.253906"/><stop stop-opacity="1" stop-color="rgb(8.563232%, 56.34613%, 3.372192%)" offset="0.257813"/><stop stop-opacity="1" stop-color="rgb(8.51593%, 56.636047%, 3.425598%)" offset="0.261719"/><stop stop-opacity="1" stop-color="rgb(8.470154%, 56.925964%, 3.479004%)" offset="0.265625"/><stop stop-opacity="1" stop-color="rgb(8.422852%, 57.215881%, 3.53241%)" offset="0.269531"/><stop stop-opacity="1" stop-color="rgb(8.377075%, 57.505798%, 3.585815%)" offset="0.273438"/><stop stop-opacity="1" stop-color="rgb(8.329773%, 57.795715%, 3.637695%)" offset="0.277344"/><stop stop-opacity="1" stop-color="rgb(8.283997%, 58.085632%, 3.691101%)" offset="0.28125"/><stop stop-opacity="1" stop-color="rgb(8.236694%, 58.375549%, 3.744507%)" offset="0.285156"/><stop stop-opacity="1" stop-color="rgb(8.190918%, 58.665466%, 3.797913%)" offset="0.289062"/><stop stop-opacity="1" stop-color="rgb(8.143616%, 58.955383%, 3.849792%)" offset="0.292969"/><stop stop-opacity="1" stop-color="rgb(8.097839%, 59.2453%, 3.903198%)" offset="0.296875"/><stop stop-opacity="1" stop-color="rgb(8.052063%, 59.533691%, 3.956604%)" offset="0.300781"/><stop stop-opacity="1" stop-color="rgb(8.006287%, 59.823608%, 4.01001%)" offset="0.304688"/><stop stop-opacity="1" stop-color="rgb(7.958984%, 60.113525%, 4.063416%)" offset="0.308594"/><stop stop-opacity="1" stop-color="rgb(7.913208%, 60.403442%, 4.116821%)" offset="0.3125"/><stop stop-opacity="1" stop-color="rgb(7.865906%, 60.693359%, 4.168701%)" offset="0.316406"/><stop stop-opacity="1" stop-color="rgb(7.820129%, 60.983276%, 4.222107%)" offset="0.320312"/><stop stop-opacity="1" stop-color="rgb(7.772827%, 61.273193%, 4.275513%)" offset="0.324219"/><stop stop-opacity="1" stop-color="rgb(7.727051%, 61.56311%, 4.328918%)" offset="0.328125"/><stop stop-opacity="1" stop-color="rgb(7.679749%, 61.853027%, 4.380798%)" offset="0.332031"/><stop stop-opacity="1" stop-color="rgb(7.633972%, 62.142944%, 4.434204%)" offset="0.335938"/><stop stop-opacity="1" stop-color="rgb(7.58667%, 62.432861%, 4.48761%)" offset="0.339844"/><stop stop-opacity="1" stop-color="rgb(7.540894%, 62.722778%, 4.541016%)" offset="0.34375"/><stop stop-opacity="1" stop-color="rgb(7.493591%, 63.011169%, 4.592896%)" offset="0.347656"/><stop stop-opacity="1" stop-color="rgb(7.447815%, 63.301086%, 4.646301%)" offset="0.351562"/><stop stop-opacity="1" stop-color="rgb(7.402039%, 63.591003%, 4.699707%)" offset="0.355469"/><stop stop-opacity="1" stop-color="rgb(7.356262%, 63.88092%, 4.753113%)" offset="0.359375"/><stop stop-opacity="1" stop-color="rgb(7.30896%, 64.170837%, 4.806519%)" offset="0.363281"/><stop stop-opacity="1" stop-color="rgb(7.263184%, 64.460754%, 4.859924%)" offset="0.367188"/><stop stop-opacity="1" stop-color="rgb(7.215881%, 64.750671%, 4.911804%)" offset="0.371094"/><stop stop-opacity="1" stop-color="rgb(7.170105%, 65.040588%, 4.96521%)" offset="0.375"/><stop stop-opacity="1" stop-color="rgb(7.122803%, 65.330505%, 5.018616%)" offset="0.378906"/><stop stop-opacity="1" stop-color="rgb(7.077026%, 65.620422%, 5.072021%)" offset="0.382812"/><stop stop-opacity="1" stop-color="rgb(7.029724%, 65.910339%, 5.123901%)" offset="0.386719"/><stop stop-opacity="1" stop-color="rgb(6.983948%, 66.200256%, 5.177307%)" offset="0.390625"/><stop stop-opacity="1" stop-color="rgb(6.936646%, 66.490173%, 5.230713%)" offset="0.394531"/><stop stop-opacity="1" stop-color="rgb(6.890869%, 66.78009%, 5.284119%)" offset="0.398437"/><stop stop-opacity="1" stop-color="rgb(6.843567%, 67.068481%, 5.337524%)" offset="0.402344"/><stop stop-opacity="1" stop-color="rgb(6.797791%, 67.358398%, 5.39093%)" offset="0.40625"/><stop stop-opacity="1" stop-color="rgb(6.752014%, 67.648315%, 5.44281%)" offset="0.410156"/><stop stop-opacity="1" stop-color="rgb(6.706238%, 67.938232%, 5.496216%)" offset="0.414063"/><stop stop-opacity="1" stop-color="rgb(6.658936%, 68.228149%, 5.549622%)" offset="0.417969"/><stop stop-opacity="1" stop-color="rgb(6.613159%, 68.518066%, 5.603027%)" offset="0.421875"/><stop stop-opacity="1" stop-color="rgb(6.565857%, 68.807983%, 5.654907%)" offset="0.425781"/><stop stop-opacity="1" stop-color="rgb(6.520081%, 69.0979%, 5.708313%)" offset="0.429688"/><stop stop-opacity="1" stop-color="rgb(6.472778%, 69.387817%, 5.761719%)" offset="0.433594"/><stop stop-opacity="1" stop-color="rgb(6.427002%, 69.677734%, 5.815125%)" offset="0.4375"/><stop stop-opacity="1" stop-color="rgb(6.3797%, 69.967651%, 5.867004%)" offset="0.441406"/><stop stop-opacity="1" stop-color="rgb(6.333923%, 70.257568%, 5.92041%)" offset="0.445313"/><stop stop-opacity="1" stop-color="rgb(6.286621%, 70.545959%, 5.973816%)" offset="0.449219"/><stop stop-opacity="1" stop-color="rgb(6.240845%, 70.835876%, 6.027222%)" offset="0.453125"/><stop stop-opacity="1" stop-color="rgb(6.193542%, 71.125793%, 6.080627%)" offset="0.457031"/><stop stop-opacity="1" stop-color="rgb(6.147766%, 71.41571%, 6.134033%)" offset="0.460938"/><stop stop-opacity="1" stop-color="rgb(6.10199%, 71.705627%, 6.185913%)" offset="0.464844"/><stop stop-opacity="1" stop-color="rgb(6.056213%, 71.995544%, 6.239319%)" offset="0.46875"/><stop stop-opacity="1" stop-color="rgb(6.008911%, 72.285461%, 6.292725%)" offset="0.472656"/><stop stop-opacity="1" stop-color="rgb(5.963135%, 72.575378%, 6.34613%)" offset="0.476562"/><stop stop-opacity="1" stop-color="rgb(5.915833%, 72.865295%, 6.39801%)" offset="0.480469"/><stop stop-opacity="1" stop-color="rgb(5.870056%, 73.155212%, 6.451416%)" offset="0.484375"/><stop stop-opacity="1" stop-color="rgb(5.822754%, 73.445129%, 6.504822%)" offset="0.488281"/><stop stop-opacity="1" stop-color="rgb(5.776978%, 73.735046%, 6.558228%)" offset="0.492188"/><stop stop-opacity="1" stop-color="rgb(5.729675%, 74.024963%, 6.610107%)" offset="0.496094"/><stop stop-opacity="1" stop-color="rgb(5.683899%, 74.31488%, 6.663513%)" offset="0.5"/><stop stop-opacity="1" stop-color="rgb(5.636597%, 74.603271%, 6.716919%)" offset="0.503906"/><stop stop-opacity="1" stop-color="rgb(5.59082%, 74.893188%, 6.770325%)" offset="0.507812"/><stop stop-opacity="1" stop-color="rgb(5.545044%, 75.183105%, 6.82373%)" offset="0.511719"/><stop stop-opacity="1" stop-color="rgb(5.499268%, 75.473022%, 6.877136%)" offset="0.515625"/><stop stop-opacity="1" stop-color="rgb(5.451965%, 75.762939%, 6.929016%)" offset="0.519531"/><stop stop-opacity="1" stop-color="rgb(5.406189%, 76.052856%, 6.982422%)" offset="0.523438"/><stop stop-opacity="1" stop-color="rgb(5.358887%, 76.342773%, 7.035828%)" offset="0.527344"/><stop stop-opacity="1" stop-color="rgb(5.31311%, 76.63269%, 7.089233%)" offset="0.53125"/><stop stop-opacity="1" stop-color="rgb(5.265808%, 76.922607%, 7.141113%)" offset="0.535156"/><stop stop-opacity="1" stop-color="rgb(5.220032%, 77.212524%, 7.194519%)" offset="0.539063"/><stop stop-opacity="1" stop-color="rgb(5.172729%, 77.502441%, 7.247925%)" offset="0.542969"/><stop stop-opacity="1" stop-color="rgb(5.126953%, 77.792358%, 7.301331%)" offset="0.546875"/><stop stop-opacity="1" stop-color="rgb(5.079651%, 78.082275%, 7.354736%)" offset="0.550781"/><stop stop-opacity="1" stop-color="rgb(5.033875%, 78.372192%, 7.408142%)" offset="0.554688"/><stop stop-opacity="1" stop-color="rgb(4.986572%, 78.660583%, 7.460022%)" offset="0.558594"/><stop stop-opacity="1" stop-color="rgb(4.940796%, 78.9505%, 7.513428%)" offset="0.5625"/><stop stop-opacity="1" stop-color="rgb(4.89502%, 79.240417%, 7.566833%)" offset="0.566406"/><stop stop-opacity="1" stop-color="rgb(4.849243%, 79.530334%, 7.620239%)" offset="0.570313"/><stop stop-opacity="1" stop-color="rgb(4.801941%, 79.820251%, 7.672119%)" offset="0.574219"/><stop stop-opacity="1" stop-color="rgb(4.756165%, 80.110168%, 7.725525%)" offset="0.578125"/><stop stop-opacity="1" stop-color="rgb(4.708862%, 80.400085%, 7.778931%)" offset="0.582031"/><stop stop-opacity="1" stop-color="rgb(4.663086%, 80.690002%, 7.832336%)" offset="0.585938"/><stop stop-opacity="1" stop-color="rgb(4.615784%, 80.979919%, 7.884216%)" offset="0.589844"/><stop stop-opacity="1" stop-color="rgb(4.570007%, 81.269836%, 7.937622%)" offset="0.59375"/><stop stop-opacity="1" stop-color="rgb(4.522705%, 81.559753%, 7.991028%)" offset="0.597656"/><stop stop-opacity="1" stop-color="rgb(4.476929%, 81.84967%, 8.044434%)" offset="0.601562"/><stop stop-opacity="1" stop-color="rgb(4.429626%, 82.138062%, 8.097839%)" offset="0.605469"/><stop stop-opacity="1" stop-color="rgb(4.38385%, 82.427979%, 8.151245%)" offset="0.609375"/><stop stop-opacity="1" stop-color="rgb(4.336548%, 82.717896%, 8.203125%)" offset="0.613281"/><stop stop-opacity="1" stop-color="rgb(4.290771%, 83.007812%, 8.256531%)" offset="0.617188"/><stop stop-opacity="1" stop-color="rgb(4.244995%, 83.297729%, 8.309937%)" offset="0.621094"/><stop stop-opacity="1" stop-color="rgb(4.199219%, 83.587646%, 8.363342%)" offset="0.625"/><stop stop-opacity="1" stop-color="rgb(4.151917%, 83.877563%, 8.415222%)" offset="0.628906"/><stop stop-opacity="1" stop-color="rgb(4.10614%, 84.16748%, 8.468628%)" offset="0.632812"/><stop stop-opacity="1" stop-color="rgb(4.058838%, 84.457397%, 8.522034%)" offset="0.636719"/><stop stop-opacity="1" stop-color="rgb(4.013062%, 84.747314%, 8.575439%)" offset="0.640625"/><stop stop-opacity="1" stop-color="rgb(3.965759%, 85.037231%, 8.628845%)" offset="0.644531"/><stop stop-opacity="1" stop-color="rgb(3.919983%, 85.327148%, 8.682251%)" offset="0.648438"/><stop stop-opacity="1" stop-color="rgb(3.872681%, 85.617065%, 8.734131%)" offset="0.652344"/><stop stop-opacity="1" stop-color="rgb(3.826904%, 85.906982%, 8.787537%)" offset="0.65625"/><stop stop-opacity="1" stop-color="rgb(3.779602%, 86.195374%, 8.840942%)" offset="0.660156"/><stop stop-opacity="1" stop-color="rgb(3.733826%, 86.485291%, 8.894348%)" offset="0.664062"/><stop stop-opacity="1" stop-color="rgb(3.686523%, 86.775208%, 8.946228%)" offset="0.667969"/><stop stop-opacity="1" stop-color="rgb(3.640747%, 87.065125%, 8.999634%)" offset="0.671875"/><stop stop-opacity="1" stop-color="rgb(3.594971%, 87.355042%, 9.05304%)" offset="0.675781"/><stop stop-opacity="1" stop-color="rgb(3.549194%, 87.644958%, 9.106445%)" offset="0.679688"/><stop stop-opacity="1" stop-color="rgb(3.501892%, 87.934875%, 9.158325%)" offset="0.683594"/><stop stop-opacity="1" stop-color="rgb(3.456116%, 88.224792%, 9.211731%)" offset="0.6875"/><stop stop-opacity="1" stop-color="rgb(3.408813%, 88.514709%, 9.265137%)" offset="0.691406"/><stop stop-opacity="1" stop-color="rgb(3.363037%, 88.804626%, 9.318542%)" offset="0.695312"/><stop stop-opacity="1" stop-color="rgb(3.315735%, 89.094543%, 9.371948%)" offset="0.699219"/><stop stop-opacity="1" stop-color="rgb(3.269958%, 89.38446%, 9.425354%)" offset="0.703125"/><stop stop-opacity="1" stop-color="rgb(3.222656%, 89.672852%, 9.477234%)" offset="0.707031"/><stop stop-opacity="1" stop-color="rgb(3.17688%, 89.962769%, 9.53064%)" offset="0.710938"/><stop stop-opacity="1" stop-color="rgb(3.129578%, 90.252686%, 9.584045%)" offset="0.714844"/><stop stop-opacity="1" stop-color="rgb(3.083801%, 90.542603%, 9.637451%)" offset="0.71875"/><stop stop-opacity="1" stop-color="rgb(3.036499%, 90.83252%, 9.689331%)" offset="0.722656"/><stop stop-opacity="1" stop-color="rgb(2.990723%, 91.122437%, 9.742737%)" offset="0.726563"/><stop stop-opacity="1" stop-color="rgb(2.944946%, 91.412354%, 9.796143%)" offset="0.730469"/><stop stop-opacity="1" stop-color="rgb(2.89917%, 91.702271%, 9.849548%)" offset="0.734375"/><stop stop-opacity="1" stop-color="rgb(2.851868%, 91.992188%, 9.901428%)" offset="0.738281"/><stop stop-opacity="1" stop-color="rgb(2.806091%, 92.282104%, 9.954834%)" offset="0.742188"/><stop stop-opacity="1" stop-color="rgb(2.758789%, 92.572021%, 10.00824%)" offset="0.746094"/><stop stop-opacity="1" stop-color="rgb(2.713013%, 92.861938%, 10.061646%)" offset="0.75"/><stop stop-opacity="1" stop-color="rgb(2.66571%, 93.151855%, 10.115051%)" offset="0.753906"/><stop stop-opacity="1" stop-color="rgb(2.619934%, 93.441772%, 10.168457%)" offset="0.757812"/><stop stop-opacity="1" stop-color="rgb(2.572632%, 93.730164%, 10.220337%)" offset="0.761719"/><stop stop-opacity="1" stop-color="rgb(2.526855%, 94.020081%, 10.273743%)" offset="0.765625"/><stop stop-opacity="1" stop-color="rgb(2.479553%, 94.309998%, 10.327148%)" offset="0.769531"/><stop stop-opacity="1" stop-color="rgb(2.433777%, 94.599915%, 10.380554%)" offset="0.773438"/><stop stop-opacity="1" stop-color="rgb(2.386475%, 94.889832%, 10.432434%)" offset="0.777344"/><stop stop-opacity="1" stop-color="rgb(2.340698%, 95.179749%, 10.48584%)" offset="0.78125"/><stop stop-opacity="1" stop-color="rgb(2.294922%, 95.469666%, 10.539246%)" offset="0.785156"/><stop stop-opacity="1" stop-color="rgb(2.249146%, 95.759583%, 10.592651%)" offset="0.789062"/><stop stop-opacity="1" stop-color="rgb(2.201843%, 96.0495%, 10.646057%)" offset="0.792969"/><stop stop-opacity="1" stop-color="rgb(2.156067%, 96.339417%, 10.699463%)" offset="0.796875"/><stop stop-opacity="1" stop-color="rgb(2.108765%, 96.629333%, 10.751343%)" offset="0.800781"/><stop stop-opacity="1" stop-color="rgb(2.062988%, 96.91925%, 10.804749%)" offset="0.804688"/><stop stop-opacity="1" stop-color="rgb(2.015686%, 97.209167%, 10.858154%)" offset="0.808594"/><stop stop-opacity="1" stop-color="rgb(1.96991%, 97.499084%, 10.91156%)" offset="0.8125"/><stop stop-opacity="1" stop-color="rgb(1.922607%, 97.787476%, 10.96344%)" offset="0.816406"/><stop stop-opacity="1" stop-color="rgb(1.876831%, 98.077393%, 11.016846%)" offset="0.820312"/><stop stop-opacity="1" stop-color="rgb(1.829529%, 98.36731%, 11.070251%)" offset="0.824219"/><stop stop-opacity="1" stop-color="rgb(1.783752%, 98.657227%, 11.123657%)" offset="0.828125"/><stop stop-opacity="1" stop-color="rgb(1.73645%, 98.947144%, 11.175537%)" offset="0.832031"/><stop stop-opacity="1" stop-color="rgb(1.690674%, 99.237061%, 11.228943%)" offset="0.835938"/><stop stop-opacity="1" stop-color="rgb(1.644897%, 99.526978%, 11.282349%)" offset="0.839844"/><stop stop-opacity="1" stop-color="rgb(1.599121%, 99.816895%, 11.335754%)" offset="0.84375"/><stop stop-opacity="1" stop-color="rgb(1.583862%, 99.908447%, 11.352539%)" offset="0.875"/><stop stop-opacity="1" stop-color="rgb(1.568604%, 100%, 11.369324%)" offset="1"/></linearGradient><clipPath id="131a2a97f0"><rect x="0" width="867" y="0" height="287"/></clipPath><clipPath id="f571848764"><path d="M 0.503906 0.273438 L 867 0.273438 L 867 286.65625 L 0.503906 286.65625 Z M 0.503906 0.273438 " clip-rule="nonzero"/></clipPath><clipPath id="a679e7766a"><rect x="0" width="867" y="0" height="287"/></clipPath><clipPath id="9981852273"><rect x="0" width="867" y="0" height="287"/></clipPath><mask id="d587055478"><g filter="url(#d6ba324f33)"><g transform="matrix(1, 0, 0, 1, 0, -0.000000000000227374)"><g clip-path="url(#9981852273)"><g clip-path="url(#f571848764)"><g transform="matrix(1, 0, 0, 1, 0, -0.000000000000227374)"><g clip-path="url(#a679e7766a)"><g fill="#000000" fill-opacity="1"><g transform="translate(223.79016, 160.574985)"><g><path d="M 6.015625 -36.984375 L 9.9375 -36.984375 L 9.9375 -3.375 L 30.640625 -3.375 L 30.640625 0 L 6.015625 0 Z M 6.015625 -36.984375 "/></g></g></g><g fill="#000000" fill-opacity="1"><g transform="translate(254.903532, 160.574985)"><g><path d="M 14.953125 -28 C 18.578125 -28 21.359375 -27.09375 23.296875 -25.28125 C 25.234375 -23.46875 26.203125 -20.78125 26.203125 -17.21875 L 26.203125 0 L 22.609375 0 L 22.609375 -4.328125 C 21.765625 -2.890625 20.519531 -1.765625 18.875 -0.953125 C 17.238281 -0.140625 15.296875 0.265625 13.046875 0.265625 C 9.953125 0.265625 7.488281 -0.472656 5.65625 -1.953125 C 3.820312 -3.429688 2.90625 -5.382812 2.90625 -7.8125 C 2.90625 -10.175781 3.757812 -12.078125 5.46875 -13.515625 C 7.175781 -14.960938 9.894531 -15.6875 13.625 -15.6875 L 22.453125 -15.6875 L 22.453125 -17.375 C 22.453125 -19.769531 21.78125 -21.59375 20.4375 -22.84375 C 19.101562 -24.09375 17.148438 -24.71875 14.578125 -24.71875 C 12.816406 -24.71875 11.125 -24.425781 9.5 -23.84375 C 7.882812 -23.269531 6.492188 -22.472656 5.328125 -21.453125 L 3.640625 -24.25 C 5.054688 -25.445312 6.75 -26.367188 8.71875 -27.015625 C 10.6875 -27.671875 12.765625 -28 14.953125 -28 Z M 13.625 -2.6875 C 15.738281 -2.6875 17.550781 -3.171875 19.0625 -4.140625 C 20.582031 -5.109375 21.710938 -6.507812 22.453125 -8.34375 L 22.453125 -12.890625 L 13.734375 -12.890625 C 8.984375 -12.890625 6.609375 -11.234375 6.609375 -7.921875 C 6.609375 -6.304688 7.222656 -5.03125 8.453125 -4.09375 C 9.679688 -3.15625 11.40625 -2.6875 13.625 -2.6875 Z M 13.625 -2.6875 "/></g></g></g><g fill="#000000" fill-opacity="1"><g transform="translate(286.069728, 160.574985)"><g><path d="M 28.578125 -27.78125 L 14.6875 3.328125 C 13.5625 5.929688 12.257812 7.78125 10.78125 8.875 C 9.300781 9.96875 7.519531 10.515625 5.4375 10.515625 C 4.101562 10.515625 2.851562 10.300781 1.6875 9.875 C 0.53125 9.457031 -0.472656 8.828125 -1.328125 7.984375 L 0.421875 5.171875 C 1.828125 6.585938 3.519531 7.296875 5.5 7.296875 C 6.757812 7.296875 7.835938 6.941406 8.734375 6.234375 C 9.640625 5.523438 10.476562 4.328125 11.25 2.640625 L 12.46875 -0.046875 L 0.046875 -27.78125 L 3.96875 -27.78125 L 14.421875 -4.171875 L 24.875 -27.78125 Z M 28.578125 -27.78125 "/></g></g></g><g fill="#000000" fill-opacity="1"><g transform="translate(314.70035, 160.574985)"><g><path d="M 14.953125 -28 C 18.578125 -28 21.359375 -27.09375 23.296875 -25.28125 C 25.234375 -23.46875 26.203125 -20.78125 26.203125 -17.21875 L 26.203125 0 L 22.609375 0 L 22.609375 -4.328125 C 21.765625 -2.890625 20.519531 -1.765625 18.875 -0.953125 C 17.238281 -0.140625 15.296875 0.265625 13.046875 0.265625 C 9.953125 0.265625 7.488281 -0.472656 5.65625 -1.953125 C 3.820312 -3.429688 2.90625 -5.382812 2.90625 -7.8125 C 2.90625 -10.175781 3.757812 -12.078125 5.46875 -13.515625 C 7.175781 -14.960938 9.894531 -15.6875 13.625 -15.6875 L 22.453125 -15.6875 L 22.453125 -17.375 C 22.453125 -19.769531 21.78125 -21.59375 20.4375 -22.84375 C 19.101562 -24.09375 17.148438 -24.71875 14.578125 -24.71875 C 12.816406 -24.71875 11.125 -24.425781 9.5 -23.84375 C 7.882812 -23.269531 6.492188 -22.472656 5.328125 -21.453125 L 3.640625 -24.25 C 5.054688 -25.445312 6.75 -26.367188 8.71875 -27.015625 C 10.6875 -27.671875 12.765625 -28 14.953125 -28 Z M 13.625 -2.6875 C 15.738281 -2.6875 17.550781 -3.171875 19.0625 -4.140625 C 20.582031 -5.109375 21.710938 -6.507812 22.453125 -8.34375 L 22.453125 -12.890625 L 13.734375 -12.890625 C 8.984375 -12.890625 6.609375 -11.234375 6.609375 -7.921875 C 6.609375 -6.304688 7.222656 -5.03125 8.453125 -4.09375 C 9.679688 -3.15625 11.40625 -2.6875 13.625 -2.6875 Z M 13.625 -2.6875 "/></g></g></g><g fill="#000000" fill-opacity="1"><g transform="translate(345.866546, 160.574985)"><g><path d="M 19.390625 -28 C 22.878906 -28 25.648438 -26.984375 27.703125 -24.953125 C 29.765625 -22.929688 30.796875 -19.984375 30.796875 -16.109375 L 30.796875 0 L 27.046875 0 L 27.046875 -15.75 C 27.046875 -18.632812 26.320312 -20.832031 24.875 -22.34375 C 23.4375 -23.863281 21.378906 -24.625 18.703125 -24.625 C 15.703125 -24.625 13.332031 -23.734375 11.59375 -21.953125 C 9.851562 -20.171875 8.984375 -17.710938 8.984375 -14.578125 L 8.984375 0 L 5.234375 0 L 5.234375 -27.78125 L 8.828125 -27.78125 L 8.828125 -22.65625 C 9.847656 -24.351562 11.265625 -25.664062 13.078125 -26.59375 C 14.890625 -27.53125 16.992188 -28 19.390625 -28 Z M 19.390625 -28 "/></g></g></g><g fill="#000000" fill-opacity="1"><g transform="translate(381.628432, 160.574985)"><g><path d="M 14.953125 -28 C 18.578125 -28 21.359375 -27.09375 23.296875 -25.28125 C 25.234375 -23.46875 26.203125 -20.78125 26.203125 -17.21875 L 26.203125 0 L 22.609375 0 L 22.609375 -4.328125 C 21.765625 -2.890625 20.519531 -1.765625 18.875 -0.953125 C 17.238281 -0.140625 15.296875 0.265625 13.046875 0.265625 C 9.953125 0.265625 7.488281 -0.472656 5.65625 -1.953125 C 3.820312 -3.429688 2.90625 -5.382812 2.90625 -7.8125 C 2.90625 -10.175781 3.757812 -12.078125 5.46875 -13.515625 C 7.175781 -14.960938 9.894531 -15.6875 13.625 -15.6875 L 22.453125 -15.6875 L 22.453125 -17.375 C 22.453125 -19.769531 21.78125 -21.59375 20.4375 -22.84375 C 19.101562 -24.09375 17.148438 -24.71875 14.578125 -24.71875 C 12.816406 -24.71875 11.125 -24.425781 9.5 -23.84375 C 7.882812 -23.269531 6.492188 -22.472656 5.328125 -21.453125 L 3.640625 -24.25 C 5.054688 -25.445312 6.75 -26.367188 8.71875 -27.015625 C 10.6875 -27.671875 12.765625 -28 14.953125 -28 Z M 13.625 -2.6875 C 15.738281 -2.6875 17.550781 -3.171875 19.0625 -4.140625 C 20.582031 -5.109375 21.710938 -6.507812 22.453125 -8.34375 L 22.453125 -12.890625 L 13.734375 -12.890625 C 8.984375 -12.890625 6.609375 -11.234375 6.609375 -7.921875 C 6.609375 -6.304688 7.222656 -5.03125 8.453125 -4.09375 C 9.679688 -3.15625 11.40625 -2.6875 13.625 -2.6875 Z M 13.625 -2.6875 "/></g></g></g><g fill="#000000" fill-opacity="1"><g transform="translate(412.794628, 160.574985)"><g><path d="M 19.390625 -28 C 22.878906 -28 25.648438 -26.984375 27.703125 -24.953125 C 29.765625 -22.929688 30.796875 -19.984375 30.796875 -16.109375 L 30.796875 0 L 27.046875 0 L 27.046875 -15.75 C 27.046875 -18.632812 26.320312 -20.832031 24.875 -22.34375 C 23.4375 -23.863281 21.378906 -24.625 18.703125 -24.625 C 15.703125 -24.625 13.332031 -23.734375 11.59375 -21.953125 C 9.851562 -20.171875 8.984375 -17.710938 8.984375 -14.578125 L 8.984375 0 L 5.234375 0 L 5.234375 -27.78125 L 8.828125 -27.78125 L 8.828125 -22.65625 C 9.847656 -24.351562 11.265625 -25.664062 13.078125 -26.59375 C 14.890625 -27.53125 16.992188 -28 19.390625 -28 Z M 19.390625 -28 "/></g></g></g><g fill="#000000" fill-opacity="1"><g transform="translate(448.556514, 160.574985)"><g/></g></g><g fill="#000000" fill-opacity="1"><g transform="translate(462.396406, 160.574985)"><g><path d="M 29.3125 -19.078125 C 31.75 -18.546875 33.625 -17.492188 34.9375 -15.921875 C 36.257812 -14.359375 36.921875 -12.34375 36.921875 -9.875 C 36.921875 -6.707031 35.75 -4.269531 33.40625 -2.5625 C 31.070312 -0.851562 27.613281 0 23.03125 0 L 6.015625 0 L 6.015625 -36.984375 L 21.96875 -36.984375 C 26.09375 -36.984375 29.289062 -36.15625 31.5625 -34.5 C 33.832031 -32.84375 34.96875 -30.5 34.96875 -27.46875 C 34.96875 -25.425781 34.46875 -23.691406 33.46875 -22.265625 C 32.46875 -20.835938 31.082031 -19.773438 29.3125 -19.078125 Z M 9.9375 -33.75 L 9.9375 -20.34375 L 21.71875 -20.34375 C 24.707031 -20.34375 27.007812 -20.910156 28.625 -22.046875 C 30.25 -23.191406 31.0625 -24.859375 31.0625 -27.046875 C 31.0625 -29.234375 30.25 -30.894531 28.625 -32.03125 C 27.007812 -33.175781 24.707031 -33.75 21.71875 -33.75 Z M 22.984375 -3.21875 C 26.296875 -3.21875 28.796875 -3.78125 30.484375 -4.90625 C 32.171875 -6.039062 33.015625 -7.804688 33.015625 -10.203125 C 33.015625 -14.804688 29.671875 -17.109375 22.984375 -17.109375 L 9.9375 -17.109375 L 9.9375 -3.21875 Z M 22.984375 -3.21875 "/></g></g></g><g fill="#000000" fill-opacity="1"><g transform="translate(502.225727, 160.574985)"><g><path d="M 29.421875 -12.734375 L 6.1875 -12.734375 C 6.394531 -9.847656 7.5 -7.515625 9.5 -5.734375 C 11.507812 -3.953125 14.046875 -3.0625 17.109375 -3.0625 C 18.835938 -3.0625 20.421875 -3.367188 21.859375 -3.984375 C 23.304688 -4.597656 24.5625 -5.503906 25.625 -6.703125 L 27.734375 -4.28125 C 26.503906 -2.800781 24.960938 -1.671875 23.109375 -0.890625 C 21.265625 -0.117188 19.234375 0.265625 17.015625 0.265625 C 14.160156 0.265625 11.628906 -0.335938 9.421875 -1.546875 C 7.222656 -2.765625 5.507812 -4.445312 4.28125 -6.59375 C 3.050781 -8.75 2.4375 -11.179688 2.4375 -13.890625 C 2.4375 -16.609375 3.023438 -19.039062 4.203125 -21.1875 C 5.378906 -23.332031 7 -25.003906 9.0625 -26.203125 C 11.125 -27.398438 13.4375 -28 16 -28 C 18.570312 -28 20.878906 -27.398438 22.921875 -26.203125 C 24.960938 -25.003906 26.566406 -23.335938 27.734375 -21.203125 C 28.898438 -19.078125 29.484375 -16.640625 29.484375 -13.890625 Z M 16 -24.78125 C 13.320312 -24.78125 11.078125 -23.925781 9.265625 -22.21875 C 7.453125 -20.507812 6.425781 -18.28125 6.1875 -15.53125 L 25.890625 -15.53125 C 25.640625 -18.28125 24.609375 -20.507812 22.796875 -22.21875 C 20.984375 -23.925781 18.71875 -24.78125 16 -24.78125 Z M 16 -24.78125 "/></g></g></g><g fill="#000000" fill-opacity="1"><g transform="translate(534.131441, 160.574985)"><g><path d="M 8.828125 -22.34375 C 9.703125 -24.207031 11.007812 -25.613281 12.75 -26.5625 C 14.5 -27.519531 16.660156 -28 19.234375 -28 L 19.234375 -24.359375 L 18.328125 -24.40625 C 15.410156 -24.40625 13.125 -23.503906 11.46875 -21.703125 C 9.8125 -19.910156 8.984375 -17.394531 8.984375 -14.15625 L 8.984375 0 L 5.234375 0 L 5.234375 -27.78125 L 8.828125 -27.78125 Z M 8.828125 -22.34375 "/></g></g></g><g fill="#000000" fill-opacity="1"><g transform="translate(555.313888, 160.574985)"><g><path d="M 12.671875 0.265625 C 10.421875 0.265625 8.265625 -0.0546875 6.203125 -0.703125 C 4.140625 -1.359375 2.53125 -2.179688 1.375 -3.171875 L 3.0625 -6.125 C 4.226562 -5.207031 5.691406 -4.457031 7.453125 -3.875 C 9.210938 -3.300781 11.039062 -3.015625 12.9375 -3.015625 C 15.476562 -3.015625 17.351562 -3.410156 18.5625 -4.203125 C 19.78125 -4.992188 20.390625 -6.109375 20.390625 -7.546875 C 20.390625 -8.578125 20.054688 -9.378906 19.390625 -9.953125 C 18.722656 -10.535156 17.875 -10.976562 16.84375 -11.28125 C 15.820312 -11.582031 14.46875 -11.875 12.78125 -12.15625 C 10.53125 -12.570312 8.71875 -13 7.34375 -13.4375 C 5.96875 -13.882812 4.796875 -14.632812 3.828125 -15.6875 C 2.859375 -16.75 2.375 -18.210938 2.375 -20.078125 C 2.375 -22.398438 3.34375 -24.300781 5.28125 -25.78125 C 7.21875 -27.257812 9.910156 -28 13.359375 -28 C 15.160156 -28 16.957031 -27.757812 18.75 -27.28125 C 20.550781 -26.8125 22.03125 -26.1875 23.1875 -25.40625 L 21.546875 -22.40625 C 19.265625 -23.988281 16.535156 -24.78125 13.359375 -24.78125 C 10.960938 -24.78125 9.15625 -24.351562 7.9375 -23.5 C 6.726562 -22.65625 6.125 -21.550781 6.125 -20.1875 C 6.125 -19.125 6.46875 -18.273438 7.15625 -17.640625 C 7.84375 -17.003906 8.695312 -16.535156 9.71875 -16.234375 C 10.738281 -15.941406 12.148438 -15.632812 13.953125 -15.3125 C 16.171875 -14.894531 17.945312 -14.472656 19.28125 -14.046875 C 20.625 -13.628906 21.769531 -12.910156 22.71875 -11.890625 C 23.664062 -10.867188 24.140625 -9.457031 24.140625 -7.65625 C 24.140625 -5.226562 23.125 -3.300781 21.09375 -1.875 C 19.070312 -0.445312 16.265625 0.265625 12.671875 0.265625 Z M 12.671875 0.265625 "/></g></g></g><g fill="#000000" fill-opacity="1"><g transform="translate(581.144848, 160.574985)"><g><path d="M 14.953125 -28 C 18.578125 -28 21.359375 -27.09375 23.296875 -25.28125 C 25.234375 -23.46875 26.203125 -20.78125 26.203125 -17.21875 L 26.203125 0 L 22.609375 0 L 22.609375 -4.328125 C 21.765625 -2.890625 20.519531 -1.765625 18.875 -0.953125 C 17.238281 -0.140625 15.296875 0.265625 13.046875 0.265625 C 9.953125 0.265625 7.488281 -0.472656 5.65625 -1.953125 C 3.820312 -3.429688 2.90625 -5.382812 2.90625 -7.8125 C 2.90625 -10.175781 3.757812 -12.078125 5.46875 -13.515625 C 7.175781 -14.960938 9.894531 -15.6875 13.625 -15.6875 L 22.453125 -15.6875 L 22.453125 -17.375 C 22.453125 -19.769531 21.78125 -21.59375 20.4375 -22.84375 C 19.101562 -24.09375 17.148438 -24.71875 14.578125 -24.71875 C 12.816406 -24.71875 11.125 -24.425781 9.5 -23.84375 C 7.882812 -23.269531 6.492188 -22.472656 5.328125 -21.453125 L 3.640625 -24.25 C 5.054688 -25.445312 6.75 -26.367188 8.71875 -27.015625 C 10.6875 -27.671875 12.765625 -28 14.953125 -28 Z M 13.625 -2.6875 C 15.738281 -2.6875 17.550781 -3.171875 19.0625 -4.140625 C 20.582031 -5.109375 21.710938 -6.507812 22.453125 -8.34375 L 22.453125 -12.890625 L 13.734375 -12.890625 C 8.984375 -12.890625 6.609375 -11.234375 6.609375 -7.921875 C 6.609375 -6.304688 7.222656 -5.03125 8.453125 -4.09375 C 9.679688 -3.15625 11.40625 -2.6875 13.625 -2.6875 Z M 13.625 -2.6875 "/></g></g></g><g fill="#000000" fill-opacity="1"><g transform="translate(612.311045, 160.574985)"><g><path d="M 39.890625 -28 C 43.367188 -28 46.101562 -26.992188 48.09375 -24.984375 C 50.082031 -22.972656 51.078125 -20.015625 51.078125 -16.109375 L 51.078125 0 L 47.328125 0 L 47.328125 -15.75 C 47.328125 -18.632812 46.628906 -20.832031 45.234375 -22.34375 C 43.847656 -23.863281 41.890625 -24.625 39.359375 -24.625 C 36.472656 -24.625 34.203125 -23.734375 32.546875 -21.953125 C 30.890625 -20.171875 30.0625 -17.710938 30.0625 -14.578125 L 30.0625 0 L 26.3125 0 L 26.3125 -15.75 C 26.3125 -18.632812 25.613281 -20.832031 24.21875 -22.34375 C 22.832031 -23.863281 20.851562 -24.625 18.28125 -24.625 C 15.425781 -24.625 13.160156 -23.734375 11.484375 -21.953125 C 9.816406 -20.171875 8.984375 -17.710938 8.984375 -14.578125 L 8.984375 0 L 5.234375 0 L 5.234375 -27.78125 L 8.828125 -27.78125 L 8.828125 -22.71875 C 9.804688 -24.40625 11.175781 -25.707031 12.9375 -26.625 C 14.695312 -27.539062 16.722656 -28 19.015625 -28 C 21.335938 -28 23.351562 -27.503906 25.0625 -26.515625 C 26.769531 -25.535156 28.046875 -24.078125 28.890625 -22.140625 C 29.910156 -23.960938 31.378906 -25.394531 33.296875 -26.4375 C 35.222656 -27.476562 37.421875 -28 39.890625 -28 Z M 39.890625 -28 "/></g></g></g><g fill="#000000" fill-opacity="1"><g transform="translate(668.357363, 160.574985)"><g><path d="M 14.953125 -28 C 18.578125 -28 21.359375 -27.09375 23.296875 -25.28125 C 25.234375 -23.46875 26.203125 -20.78125 26.203125 -17.21875 L 26.203125 0 L 22.609375 0 L 22.609375 -4.328125 C 21.765625 -2.890625 20.519531 -1.765625 18.875 -0.953125 C 17.238281 -0.140625 15.296875 0.265625 13.046875 0.265625 C 9.953125 0.265625 7.488281 -0.472656 5.65625 -1.953125 C 3.820312 -3.429688 2.90625 -5.382812 2.90625 -7.8125 C 2.90625 -10.175781 3.757812 -12.078125 5.46875 -13.515625 C 7.175781 -14.960938 9.894531 -15.6875 13.625 -15.6875 L 22.453125 -15.6875 L 22.453125 -17.375 C 22.453125 -19.769531 21.78125 -21.59375 20.4375 -22.84375 C 19.101562 -24.09375 17.148438 -24.71875 14.578125 -24.71875 C 12.816406 -24.71875 11.125 -24.425781 9.5 -23.84375 C 7.882812 -23.269531 6.492188 -22.472656 5.328125 -21.453125 L 3.640625 -24.25 C 5.054688 -25.445312 6.75 -26.367188 8.71875 -27.015625 C 10.6875 -27.671875 12.765625 -28 14.953125 -28 Z M 13.625 -2.6875 C 15.738281 -2.6875 17.550781 -3.171875 19.0625 -4.140625 C 20.582031 -5.109375 21.710938 -6.507812 22.453125 -8.34375 L 22.453125 -12.890625 L 13.734375 -12.890625 C 8.984375 -12.890625 6.609375 -11.234375 6.609375 -7.921875 C 6.609375 -6.304688 7.222656 -5.03125 8.453125 -4.09375 C 9.679688 -3.15625 11.40625 -2.6875 13.625 -2.6875 Z M 13.625 -2.6875 "/></g></g></g></g></g></g></g></g></g></mask><clipPath id="00b953879a"><path d="M 117.585938 5.675781 L 803.808594 5.675781 L 803.808594 279.449219 L 117.585938 279.449219 Z M 117.585938 5.675781 " clip-rule="nonzero"/></clipPath><clipPath id="1946dccd0f"><rect x="0" width="867" y="0" height="287"/></clipPath><clipPath id="0521a93b9b"><rect x="0" width="867" y="0" height="287"/></clipPath><clipPath id="d7588392fc"><rect x="0" width="867" y="0" height="287"/></clipPath></defs><path fill="#008037" d="M 171.828125 535.496094 C 191.992188 505.230469 220.023438 476.894531 257.617188 445.710938 C 290.769531 428.207031 294.867188 458.082031 280.839844 478.378906 C 267.605469 492.34375 254.789062 504.011719 243.699219 520.222656 C 239.609375 535.566406 255.582031 534.648438 266.699219 533.167969 C 320.5625 519.132812 368.851562 491.996094 422.621094 478.371094 C 453.632812 476.265625 438.21875 505.839844 420.960938 514.882812 C 398.414062 522.867188 331.179688 537.816406 318.625 557.316406 C 315.578125 566.089844 323.015625 565.707031 329.902344 564.800781 C 344.589844 560.859375 359.277344 556.917969 373.96875 552.976562 C 389.460938 547.894531 404.957031 542.808594 420.453125 537.726562 C 435.257812 534.339844 451.078125 528.542969 464.890625 538.390625 C 465.957031 539.878906 467.023438 541.363281 468.089844 542.855469 C 472.085938 561.359375 458.851562 562.539062 441.964844 567.78125 C 433.402344 571.085938 424.839844 574.386719 416.277344 577.691406 C 404.972656 581.113281 393.671875 584.535156 382.367188 587.960938 C 372.308594 590.667969 362.25 593.371094 352.195312 596.078125 C 349.183594 597.042969 346.171875 598.003906 343.160156 598.964844 C 333.683594 607.707031 341.226562 609.804688 349.492188 610.828125 C 353.667969 610.527344 357.847656 610.222656 362.027344 609.921875 C 372.382812 607.886719 487.386719 582.046875 472.738281 613.613281 C 468.863281 618.460938 466.195312 621.160156 460.128906 623.394531 C 393.746094 642.1875 346.957031 676.339844 316.917969 588.027344 C 314.734375 581.386719 312.554688 574.746094 310.371094 568.105469 C 306.863281 559.238281 302.082031 532.21875 287.867188 539.875 C 287.257812 541.050781 286.652344 542.226562 286.042969 543.402344 C 284.832031 549.433594 286.820312 555.03125 287.996094 561.039062 C 290.089844 569.464844 292.183594 577.890625 294.277344 586.316406 C 294.371094 588.496094 294.464844 590.675781 294.558594 592.859375 C 293.457031 597.058594 290.089844 596.921875 287.210938 594.917969 C 286.4375 594 285.664062 593.082031 284.894531 592.160156 C 282.25 589.191406 279.605469 586.21875 276.964844 583.25 C 274.167969 580.480469 271.378906 577.714844 268.585938 574.945312 C 263.191406 570.410156 244.851562 548.835938 235.367188 553.203125 C 229.882812 555.726562 230.210938 560.972656 232.671875 565.261719 C 240.007812 578.046875 254.785156 590.042969 264.40625 600.441406 C 265.558594 601.824219 266.707031 603.203125 267.859375 604.582031 C 269.503906 607.566406 269.398438 609.304688 265.773438 608.3125 C 262.96875 607.546875 259.800781 604.96875 257.277344 603.453125 C 247.734375 597.257812 221.371094 572.132812 209.796875 580.25 C 204.410156 586.398438 208.992188 592.042969 213.761719 596.894531 C 221.128906 602.761719 228.5 608.628906 235.871094 614.496094 C 242.128906 619.003906 248.382812 623.511719 254.640625 628.019531 C 256.066406 629.90625 257.527344 633.628906 253.332031 633.34375 C 251.609375 633.226562 249.886719 633.109375 248.164062 632.988281 C 243.445312 632.710938 238.734375 632.429688 234.019531 632.152344 C 223.964844 630.488281 214.664062 629.019531 205.007812 625.8125 C 200.253906 625.683594 194.03125 624.5625 191.664062 630.058594 C 191.386719 631.347656 191.113281 632.640625 190.835938 633.929688 C 191.714844 640.984375 204.089844 644.246094 209.546875 645.996094 C 212.957031 647.230469 216.367188 648.464844 219.777344 649.695312 C 225.480469 651.816406 231.1875 653.933594 236.890625 656.050781 C 251.667969 659.355469 260.820312 662.886719 272.542969 672.023438 C 276.257812 676.164062 278.5 678.652344 276.855469 684.027344 C 259.214844 705.644531 229.007812 703.644531 204.355469 701.980469 C 124.730469 686.121094 127.984375 587.679688 171.828125 535.496094 " fill-opacity="1" fill-rule="evenodd"/><g transform="matrix(1, 0, 0, 1, 181, 334)"><g clip-path="url(#f59f4bccb6)"><g clip-path="url(#e074120bb4)"><g transform="matrix(1, 0, 0, 1, 0, -0.000000000000284217)"><g clip-path="url(#1a6364039a)"><g clip-path="url(#dc4a3dea5f)"><g mask="url(#8bc1e1771f)"><g transform="matrix(1, 0, 0, 1, 0, -0.000000000000284217)"><g clip-path="url(#a9df8d9948)"><g clip-path="url(#a79f4483f0)"><path fill="url(#5c8fcae7cf)" d="M 155.183594 6.304688 L 155.183594 417.457031 L 941.613281 417.457031 L 941.613281 6.304688 Z M 155.183594 6.304688 " fill-rule="nonzero"/></g></g></g></g></g></g></g></g></g></g><g transform="matrix(1, 0, 0, 1, 267, 480)"><g clip-path="url(#d7588392fc)"><g clip-path="url(#9da6497548)"><g transform="matrix(1, 0, 0, 1, 0, -0.000000000000227374)"><g clip-path="url(#0521a93b9b)"><g clip-path="url(#23d4e8cede)"><g mask="url(#d587055478)"><g transform="matrix(1, 0, 0, 1, 0, -0.000000000000227374)"><g clip-path="url(#1946dccd0f)"><g clip-path="url(#00b953879a)"><path fill="url(#bd49b7a3cf)" d="M 117.585938 5.675781 L 117.585938 279.449219 L 803.808594 279.449219 L 803.808594 5.675781 Z M 117.585938 5.675781 " fill-rule="nonzero"/></g></g></g></g></g></g></g></g></g></g></svg>