<svg xmlns="http://www.w3.org/2000/svg" xmlns:xlink="http://www.w3.org/1999/xlink" width="1512" zoomAndPan="magnify" viewBox="0 0 1134 1133.999944" height="1512" preserveAspectRatio="xMidYMid meet" version="1.0"><path fill="#008037" d="M 313.8125 507.65625 C 351.835938 450.585938 404.695312 397.152344 475.589844 338.347656 C 538.105469 305.339844 545.832031 361.675781 519.382812 399.949219 C 494.425781 426.28125 470.257812 448.285156 449.34375 478.851562 C 441.632812 507.792969 471.753906 506.058594 492.714844 503.261719 C 594.289062 476.804688 685.347656 425.628906 786.742188 399.9375 C 845.21875 395.964844 816.148438 451.738281 783.609375 468.785156 C 741.089844 483.839844 614.304688 512.027344 590.632812 548.804688 C 584.890625 565.347656 598.914062 564.625 611.898438 562.914062 C 639.597656 555.484375 667.292969 548.050781 694.992188 540.617188 C 724.210938 531.035156 753.429688 521.449219 782.648438 511.863281 C 810.570312 505.476562 840.398438 494.546875 866.445312 513.113281 C 868.457031 515.917969 870.46875 518.722656 872.476562 521.53125 C 880.019531 556.425781 855.0625 558.652344 823.214844 568.535156 C 807.066406 574.765625 790.921875 580.996094 774.777344 587.222656 C 753.460938 593.679688 732.148438 600.132812 710.832031 606.585938 C 691.863281 611.691406 672.898438 616.792969 653.933594 621.894531 C 648.253906 623.714844 642.578125 625.527344 636.898438 627.34375 C 619.03125 643.824219 633.25 647.78125 648.835938 649.714844 C 656.714844 649.144531 664.597656 648.574219 672.476562 648 C 692.003906 644.167969 908.871094 595.441406 881.246094 654.96875 C 873.941406 664.109375 868.910156 669.195312 857.464844 673.40625 C 732.292969 708.84375 644.058594 773.25 587.414062 606.714844 C 583.300781 594.195312 579.183594 581.671875 575.066406 569.148438 C 568.457031 552.425781 559.433594 501.476562 532.632812 515.910156 C 531.484375 518.128906 530.335938 520.347656 529.1875 522.566406 C 526.90625 533.9375 530.660156 544.496094 532.878906 555.824219 C 536.824219 571.710938 540.769531 587.601562 544.71875 603.484375 C 544.894531 607.601562 545.074219 611.710938 545.25 615.824219 C 543.167969 623.746094 536.820312 623.492188 531.390625 619.710938 C 529.933594 617.976562 528.480469 616.246094 527.023438 614.511719 C 522.039062 608.90625 517.054688 603.304688 512.070312 597.703125 C 506.800781 592.484375 501.539062 587.265625 496.269531 582.046875 C 486.101562 573.492188 451.511719 532.808594 433.632812 541.042969 C 423.289062 545.808594 423.90625 555.699219 428.546875 563.789062 C 442.382812 587.898438 470.25 610.515625 488.390625 630.128906 C 490.5625 632.730469 492.734375 635.332031 494.902344 637.933594 C 498.007812 643.5625 497.804688 646.835938 490.972656 644.96875 C 485.679688 643.523438 479.703125 638.660156 474.949219 635.804688 C 456.949219 624.125 407.238281 576.742188 385.410156 592.046875 C 375.253906 603.644531 383.898438 614.285156 392.886719 623.4375 C 406.785156 634.5 420.679688 645.5625 434.578125 656.625 C 446.378906 665.125 458.175781 673.625 469.976562 682.128906 C 472.667969 685.6875 475.414062 692.707031 467.511719 692.171875 C 464.261719 691.945312 461.011719 691.722656 457.757812 691.5 C 448.867188 690.972656 439.976562 690.449219 431.089844 689.925781 C 412.128906 686.785156 394.589844 684.015625 376.382812 677.96875 C 367.421875 677.722656 355.679688 675.613281 351.21875 685.976562 C 350.699219 688.410156 350.179688 690.839844 349.660156 693.273438 C 351.3125 706.578125 374.652344 712.726562 384.9375 716.03125 C 391.371094 718.355469 397.800781 720.679688 404.234375 723.007812 C 414.988281 727.003906 425.746094 730.996094 436.503906 734.992188 C 464.371094 741.222656 481.628906 747.882812 503.734375 765.109375 C 510.742188 772.914062 514.96875 777.605469 511.871094 787.746094 C 478.601562 828.507812 421.640625 824.738281 375.148438 821.601562 C 225 791.691406 231.136719 606.058594 313.8125 507.65625 " fill-opacity="1" fill-rule="evenodd"/></svg>